<?xml version="1.0" encoding="utf-8"?>
<!-- Generator: Adobe Illustrator 26.2.0, SVG Export Plug-In . SVG Version: 6.00 Build 0)  -->
<svg version="1.1" xmlns="http://www.w3.org/2000/svg" xmlns:xlink="http://www.w3.org/1999/xlink" x="0px" y="0px"
	 viewBox="0 0 900 900" style="enable-background:new 0 0 900 900;" xml:space="preserve">
<style type="text/css">
	.st0{fill-rule:evenodd;clip-rule:evenodd;fill:#A95E27;}
	.st1{fill-rule:evenodd;clip-rule:evenodd;fill:#FFFFFF;}
	.st2{fill-rule:evenodd;clip-rule:evenodd;fill:#5E5E5E;}
	.st3{fill-rule:evenodd;clip-rule:evenodd;fill:#484848;}
	.st4{fill-rule:evenodd;clip-rule:evenodd;fill:#373737;}
	.st5{fill-rule:evenodd;clip-rule:evenodd;fill:#262626;}
	.st6{fill-rule:evenodd;clip-rule:evenodd;fill:#121212;}
	.st7{fill-rule:evenodd;clip-rule:evenodd;fill:#A2A2A2;}
</style>
<g id="Ebene_1">
</g>
<g id="svg2">
	<g>
		<g id="g10_00000013157493597398744660000003398357378621647009_" transform="matrix(1.25 0 0 -1.25 0 32.274)">
			<g id="g12_00000124856982182414296320000012538502981063330712_">
				<path id="path38_00000083802178533761001190000006312331911863017659_" class="st0" d="M320.5-201.7c-2.2-4.6-5.8-8.4-10.8-11.6
					c-4.6-3.1-7.1-3.2-7.6-0.3c-0.8,2.6,0.3,6.2,2.8,10.8c2,3.7,4.1,5.9,6.5,6.9c0.7,0.3,2.9,0.5,6.5,0.8
					C321.5-195,322.4-197.1,320.5-201.7z"/>
				<path id="path40_00000139976018449549583750000004500710351266551946_" class="st0" d="M339.9-129.3c0.7-4.6-0.6-9.1-4-13.7
					c-3.1-4.1-6-5.9-8.6-5.4c-2.6,0.5-4.1,2.4-4.4,5.8c-0.5,3.6,0.6,7.4,3.2,11.5c2.7,4.3,5.5,6.6,8.7,6.9
					C337.8-124,339.4-125.7,339.9-129.3z"/>
				<path id="path170_00000120537126682894441110000006602904398711001002_" class="st0" d="M501-129.7c-3.8-2-6.5-3.1-7.9-3.6
					c-1.6-0.5-3.2-0.2-4.7,0.8c-1.7,1.5-0.5,3.7,3.6,6.9c4.1,3.4,8.1,4.9,11.9,4.7c2-0.3,2.4-1.6,1.5-4
					C504.2-127.4,502.7-129,501-129.7z"/>
				<path id="path172_00000153698533504849843390000016643273620906482324_" class="st0" d="M517.3-159.1c-2.4-3.8-4.4-6.4-5.7-7.6
					c-2.9-2.1-5.8-2-8.7,0.4c-3.1,2.6-4,6.1-2.5,10.4c1.2,4.1,3.5,7.1,6.9,9c6.2,3.6,10.1,3.4,11.5-0.7
					C520.5-151.4,520-155.2,517.3-159.1z"/>
				<path id="path174_00000009551798932779283420000003382334469082820993_" class="st0" d="M481.3-183.7c-1-4.5-2.1-7.8-3.6-9.7
					c-1.5-2.2-2.9-2-4.4,0.7c-1.6,2.6-1.9,7-0.7,13c1.5,6.2,3.3,10.2,5.7,11.9c2.4,1.5,3.8,0.3,4.3-3.6
					C483-174.8,482.5-178.9,481.3-183.7z"/>
				<path id="path176_00000052796428561912160190000005194625538728530305_" class="st0" d="M480.9-149.5c-3.3-3.6-5.3-4.1-5.7-1.5
					c-0.8,2.9,0.4,5.2,3.6,6.9c2.6,1.7,4.1,1.7,4.3,0C483.3-146,482.6-147.8,480.9-149.5z"/>
				<path id="path178_00000165202885364321470870000012617670279131683200_" class="st0" d="M473.6-228.9c-2.1-8.2-4.7-8.4-7.6-0.7
					c-2.9,7.9-2.6,13.9,0.7,18c3.2,3.9,5.4,3,6.9-2.5C474.7-219.1,474.7-224.1,473.6-228.9z"/>
				<path id="path180_00000055690215209637302650000000877635618458349710_" class="st0" d="M500.6-259.2c1.5-3.8,1.1-7-1.1-9.4
					c-2.1-2.4-5.2-2.3-9,0.4c-4.4,3.1-7,6.6-7.9,10.4c-1.2,4,0.1,6.8,4,8.3C492.3-247.5,497-250.8,500.6-259.2z"/>
				<path id="path182_00000086677707355311768650000014307602057506164371_" class="st0" d="M546.9-272.1c-8.2-0.5-13.6,2-16.2,7.6
					c-2.1,5.3-1.5,9.4,2.2,12.3c5.5,4.3,11.9,3.2,19.1-3.3c3.2-2.9,4.5-6.2,4-10.1C555.2-269.7,552.2-271.8,546.9-272.1z"/>
				<path id="path184_00000085244762916422028890000016490742931011429268_" class="st0" d="M539.7-291.9c1.2-3.1-0.4-4.5-4.7-4
					c-4.5,0.2-9,1.9-13.4,5c-4,2.9-5,5.2-2.8,6.9c1.9,1.4,5.2,1.8,10.1,1.1c3.8-0.7,6.5-2,7.9-3.6C537-287,538-288.8,539.7-291.9z"
					/>
				<path id="path192_00000163068623855742577940000013037684941852750775_" class="st0" d="M526.7-208.9c1-3.6-1.1-6.1-6.2-7.5
					c-5-1.5-9.4-0.6-13,2.5c-3.3,3.1-4.9,6.6-4.7,10.4c0.5,3.6,2.4,6.1,5.7,7.6c2.9,1.5,6.5,0.4,10.8-3.2
					C523.6-202.3,525.9-205.5,526.7-208.9z"/>
				<path id="path194_00000139265845333768004140000012231318081383901608_" class="st0" d="M555.3-217.4c-0.2-1.9-1.8-2.9-4.7-2.9
					c-2.6,0.3-4.4,1.1-5.4,2.5c-1.2,1.5-1.3,3.2-0.3,5.1c0.7,1.9,2.1,2.9,4.3,3.2C554-209.4,556-212.1,555.3-217.4z"/>
				<path id="path306_00000011738018980447679510000001286381464049308091_" class="st1" d="M522.2-126.9c0.7-2.6-0.5-4.7-3.7-6.2
					c-3.3-1.4-5.7-0.9-7.2,1.5c-1.5,2.4-0.1,4.2,4,5.4C519.1-124.7,521.4-125,522.2-126.9z"/>
				<path id="path360_00000072987601958212851400000007686657776505249938_" class="st0" d="M309.4-284.1c-2.2-2.6-4.6-4.1-7.2-4.3
					c-2.4,0-3.8,1.1-4.3,3.3c-0.5,1.9,0.7,3.8,3.6,5.7c2.4,1.7,4.9,2.8,7.6,3.3c2,0.3,2.9-0.6,2.9-2.5
					C311.9-280.4,311-282.2,309.4-284.1z"/>
				<path id="path454_00000117666187711108877600000010907960794339485839_" class="st2" d="M430.6-25.6
					c39.6,0,74.7-28.7,105.2-86.1c28.1-53.3,39.8-103.8,35-151.4c-7.2-73.5-48-114.2-122.2-121.8c-3.8-0.9-6.7-1.4-8.6-1.4h-18.8
					c-2.4,0-5.3,0.4-8.6,1.4c-74.1,7.5-114.9,48.1-122.5,121.8c-4.9,48.1,6.7,98.5,34.6,151.4C354.7-54.3,390-25.6,430.6-25.6z"/>
				<path id="path456_00000173133428211131927400000008056770126059504303_" class="st3" d="M442.1-26.7c37.2-6.2,69.6-36.9,97-91.9
					c25.7-51.6,36.3-99.8,31.7-144.5c-7.2-73.5-48-114.2-122.2-121.8c-3.8-0.9-6.7-1.4-8.6-1.4h-18.8c-2.4,0-5.3,0.4-8.6,1.4
					c-70.9,7.3-111.4,44.8-121.5,112.8c1.2-6.5,5.2-13.6,11.9-21.3c6.7-7.4,14.5-13.8,23.4-19.1c19.9-11.5,41.1-15.9,63.4-13
					c21.1,2.9,40.6,11.9,58.4,27c40.4,34.1,58.2,80.7,53.3,139.5c-2.4,29.6-10.3,57.9-23.8,85.1C466.1-49.9,454.2-34.2,442.1-26.7z"
					/>
				<path id="path458_00000182524189326896904640000001207468655583141814_" class="st4" d="M454-29.6
					c34.6-11.5,64.2-43.6,88.7-96.2c23.1-49.7,32.4-95.5,28.1-137.3c-7.2-73.5-48-114.2-122.2-121.8c-3.8-0.9-6.7-1.4-8.6-1.4h-18.8
					c-2.4,0-5.3,0.4-8.6,1.4c-19.7,2.2-37,6.6-52,13c21.7-0.5,43.2,0.8,64.5,4c59.6,7.9,93.7,49.2,102.4,124
					c3.3,27.8,2.6,57.5-2.2,89c-4.3,27.4-10.3,49.4-18,66C493.6-60.2,475.9-40.4,454-29.6z"/>
				<path id="path460_00000027592419264072435720000014779160541464898966_" class="st5" d="M481.4-44.4
					c28.1-20.9,51.2-54.1,69.2-99.8c17.3-44,24-83.6,20.1-118.9c-7.2-73.5-47.9-114.2-122.2-121.8c-3.8-0.9-6.7-1.4-8.7-1.4h-18.7
					c-2.4,0-5.3,0.5-8.7,1.4c-19.9,2.2-36.7,6.4-50.4,12.7l7.2-2.5c47.5-14.9,89.2-11.6,125.1,9.7c33.6,20.2,52.3,49.9,55.9,89
					c4.3,50.2-0.1,96.6-13.3,139.1C524.4-96.7,505.9-65.7,481.4-44.4z"/>
				<path id="path462_00000116957569618564935940000009002619162286989960_" class="st0" d="M332.9-285.5c3.1-5.7,4.5-11.3,4-16.6
					c-0.5-6.2-3.9-9.8-10.1-10.4c-6.7-0.7-12.2,2.6-16.2,10.1c-4.3,7.7-5.5,16.2-3.6,25.6c2,8.4,5.8,11,11.5,7.9
					C323.3-271.8,328.1-277.3,332.9-285.5z"/>
				<path id="path464_00000052826490923664067690000002204304444852972730_" class="st0" d="M347.5-340.5c3.1-4.9,5-8.1,5.8-9.8
					c1-2.4,1-4.5,0-6.5c-1.2-2.1-4.3-1.1-9.4,3.3c-5.5,4.5-8.4,9.5-8.7,14.7c0,2.6,1.8,3.5,5.4,2.6
					C344-337.1,346.3-338.6,347.5-340.5z"/>
				<path id="path466_00000090988762898617869640000017858774683639317128_" class="st6" d="M383-314c5.7-2.9,9.4-5,10.8-6.5
					c3.1-2.9,3.5-6.5,1.1-10.8c-2.6-4.8-7-6.7-13-5.8c-5.8,0.8-10.3,3.2-13.3,7.2c-5.8,7.7-6.1,13-1.1,15.9
					C372-311.4,377.2-311.4,383-314z"/>
				<path id="path470_00000119833231001039493810000018379756655986404014_" class="st0" d="M377.8-364c5.3-3.6,6.2-6.1,2.9-7.6
					c-3.6-1.3-7-0.1-10.1,3.2c-2.5,3.1-2.6,5-0.4,5.8C372.4-361.6,374.9-362.1,377.8-364z"/>
				<path id="path472_00000015332256338376251190000001092469106575721091_" class="st0" d="M482.9-359.4c11.5-0.9,12.3-4.2,2.5-9.8
					c-9.6-5.3-17.4-6-23.4-2.1c-5.5,3.3-5,6.4,1.8,9C470.3-359.6,476.6-358.7,482.9-359.4z"/>
				<path id="path474_00000056396524381931437430000005663129979168488594_" class="st0" d="M530.5-316c3.9-2.4,4.4-6.4,1.5-11.9
					c-3.4-6.2-7.4-10.4-12.3-12.6c-5-2.4-8.9-1.2-11.5,3.6c-1.9,3.6-1.8,7.4,0.4,11.2c1.9,3.6,5.2,6.6,9.7,9
					C522.9-314,527-313.8,530.5-316z"/>
				<path id="path476_00000002351847243945571640000015456533907044616876_" class="st6" d="M525.6-254c2.1-10.8-0.3-18.2-7.3-22.3
					c-6-3.9-11.3-3.7-15.8,0.3c-3.7,3.4-5.4,7.1-5.4,11.2c0,3.8,1.9,8.6,5.7,14.4c3.2,4.8,7.4,7.1,12.7,6.9
					C520.8-243.6,524.1-247.1,525.6-254z"/>
				<path id="path478_00000035520794926738086610000008557105773291760804_" class="st0" d="M552.6-260.8c3.6,2.5,5.7,0.6,6.2-5.4
					c0.5-6-1-12.2-4.3-18.4c-2.9-5.8-5.7-7.4-8.3-4.7c-2.1,2.4-3.2,6.7-3.2,13c0,4.8,1.1,8.4,3.2,10.8
					C546.8-264.8,549-263.2,552.6-260.8z"/>
				<path id="path480_00000021809711654347665530000012710673860257219513_" class="st6" d="M537.8-176.6c3.4-4.5,4.6-10.2,3.7-16.9
					c-0.8-6.2-2.8-9.9-6.2-10.8c-3.1-0.9-5.7,0.3-7.9,3.7c-2.4,3.6-3.5,8.4-3.2,14.4c0.4,6,2.1,10,5,11.9
					C532.3-172.2,535.2-173,537.8-176.6z"/>
				<path id="path482_00000133524282069292918020000006050057750504775054_" class="st6" d="M491.1-205.9c1.5-4.8,0.4-9.8-2.9-15.1
					c-3.4-5-6.7-6.7-10.1-5c-2.9,1.7-4.8,4.8-5.8,9.4c-1,3.8-0.3,7.6,2.1,11.1c2.2,3.3,4.9,5.3,7.9,5.8
					C486.5-199.3,489.4-201.3,491.1-205.9z"/>
				<path id="path484_00000110464540548831008120000007908803941961448859_" class="st6" d="M382.3-253.7c5.3-3.8,8.6-8.5,10.1-14
					c1.7-5.8,0.8-10.6-2.8-14.4c-3.4-3.8-7.7-4.3-13-1.4c-5.1,2.6-7.9,6.2-8.7,10.8c-0.7,4.5,0.6,9.4,4,14.7
					C375.2-252.5,378.7-251,382.3-253.7z"/>
				<path id="path486_00000131338141323333019710000006510849305937143179_" class="st6" d="M447.7-292c4.6,2,8.3-0.2,11.2-6.5
					c2.8-6.2,2.5-12-1.1-17.3c-3.4-5.3-7.6-8.1-12.6-8.3c-4.8,0-8.6,2-11.5,5.8c-2.4,3.6-1.6,8.5,2.5,14.7
					C439.8-297.5,443.7-293.7,447.7-292z"/>
				<path id="path488_00000181070672979809060290000015555231192361650080_" class="st6" d="M453-253.3c2.4,0,3.8-1.8,4.3-5.4
					c0.3-3.6-0.4-6.1-2.1-7.5c-2-1.7-4.1-2.1-6.5-1.5c-2.6,0.7-4.3,2.4-5,5C442.4-256.4,445.5-253.3,453-253.3z"/>
				<path id="path490_00000087375994170440588250000000220536065848307642_" class="st6" d="M341.8-221c3.1-8.2,4.7-15.7,4.7-22.7
					c-0.2-7-3.4-10.4-9.4-10.4c-6,0.2-10.2,4.3-12.6,12.3c-2.4,7.2-2.2,14.6,0.7,22.4c2.6,6.9,5.4,10.6,8.3,10.8
					C336.1-208.5,338.9-212.6,341.8-221z"/>
				<path id="path492_00000070800795332540165780000011533704719549727663_" class="st6" d="M505.7-139.8c2.4-2.6,3.6-5.9,3.6-9.8
					c0.3-3.8-0.8-6.7-3.2-8.6c-2.1-1.7-4.6-1-7.3,2.1c-2.8,3.1-4.3,6.6-4.3,10.4s1.1,6.5,3.2,7.9
					C500.1-135.9,502.8-136.7,505.7-139.8z"/>
				<path id="path494_00000146479346945097425500000000198612539714133423_" class="st6" d="M460.4-63.8c3.6-1.2,6.6-4.5,9-10.1
					c2.6-5.8,2.6-9.9,0-12.6c-2.6-2.5-5.8-1.3-9.4,3.2c-1.5,2-4.1,6.4-7.9,13.3c-1.9,3.3-1.9,5.6,0,6.9
					C453.8-62.1,456.5-62.4,460.4-63.8z"/>
				<path id="path496_00000029767010908398685310000003798799775532208544_" class="st6" d="M490.9-81.2c2.9-1.7,4.5-2.8,4.7-3.3
					c0.7-1,0.6-3-0.4-6.1c-1-4.6-4.5-2.4-10.5,6.5c0,1,0.5,1.9,1.5,2.9C487.7-80,489.3-80,490.9-81.2z"/>
				<path id="path498_00000110461458850337049360000009433852851776473738_" class="st6" d="M393-219.8c3.1-1.5,5.4-5.8,6.9-13
					c1.2-7.4-0.3-11.7-4.4-12.6c-3.8-1-6.9,0.9-9.4,5.7c-2.1,4.4-2.8,8.6-2.1,12.7C385.4-219.8,388.4-217.4,393-219.8z"/>
				<path id="path500_00000070112714778592736320000005186189979055736463_" class="st6" d="M462.2-125.8c3.8-1.5,6-5,6.5-10.8
					c0.5-6-1.4-9.9-5.8-11.9c-3.8-1.9-7.4-0.2-10.8,5c-3.1,4.9-4.4,9.4-4,13.7c0.5,3.4,1.8,5.3,4,5.8
					C454-123.5,457.3-124.1,462.2-125.8z"/>
				<path id="path502_00000047782877471557628740000000276990929143046570_" class="st6" d="M400.6-150.7c5.3-0.8,7.7-2.3,7.2-4.7
					c-0.5-2.5-1.6-4.6-3.2-6.6c-2.2-1.9-4.5-2.3-6.9-1.1c-2.4,1.5-3,3.8-1.8,7.2C396.9-152.2,398.4-150.5,400.6-150.7z"/>
				<path id="path504_00000014604770180377038390000013971970445728911268_" class="st6" d="M355.9-156.4c0.8-4.1,0.4-7.1-1.1-9.1
					c-1.2-1.6-2.9-2.3-5-1.8c-2.4,0.5-4.2,1.9-5.4,4.4c-1.2,2.1-1.1,4.4,0.4,6.8c1.5,2.4,3.6,4,6.5,4.7
					C353.6-150.7,355.2-152.4,355.9-156.4z"/>
				<path id="path506_00000162334439628707375420000001371058326694947717_" class="st6" d="M323-184.8c1.9-3.6,2-7.2,0.4-10.8
					c-1.2-3.1-3.7-5.5-7.3-7.2c-3.1-1.5-4.9-1.1-5.4,1.1c-0.2,1.4,0.1,4.7,1.1,9.8c0.8,4.1,2.6,6.9,5.4,8.3
					C320.1-182.5,322.1-182.8,323-184.8z"/>
				<path id="path508_00000181071977232856299820000002968822829155093948_" class="st6" d="M478.3-54.9c3.4-2.1,5.3-4.5,5.8-7.2
					c0.7-2.4-0.2-4-2.9-4.7c-2.1-0.7-4.5,0.2-7.2,2.9c-2.4,2.4-4,4.9-4.7,7.6c-0.7,2.2,0.1,3.4,2.5,3.7
					C474.1-52.7,476.2-53.5,478.3-54.9z"/>
				<path id="path598_00000176732243812303738070000013435785028293350827_" class="st7" d="M372.9-75.4c12,7,15.3,0.8,9.8-18.4
					c-5.8-19-13.1-26.3-22-22c-7.9,3.8-9.4,10.9-4.7,21.3C360.3-85.8,365.9-79.5,372.9-75.4z"/>
				<path id="path600_00000085235572081472765010000006675672308305671308_" class="st7" d="M352-121.1c3.3-1.5,4.2-4.4,2.5-9
					c-1.5-4.5-4.1-6.4-7.9-5.4c-3.3,1-4,3.8-1.8,8.7C347.2-121.8,349.6-119.9,352-121.1z"/>
			</g>
		</g>
		<g id="g10_00000098179332105188251310000012040882130295790233_" transform="matrix(1.25 0 0 -1.25 0 32.274)">
			<g id="g12_00000019677258375875075940000007838402346025788858_">
				<path id="path38_00000142857615499841497490000012793854887330480273_" class="st0" d="M433.5-420.4c-3.3-4.9-8.1-8.7-14.5-11.4
					c-5.8-2.7-8.7-2.4-8.7,1c-0.4,3.2,1.4,7.1,5.2,11.9c2.9,3.9,5.7,6.1,8.7,6.7c0.9,0.2,3.4,0.1,7.6-0.3
					C435.9-412.9,436.5-415.5,433.5-420.4z"/>
				<path id="path40_00000164512071952049739040000008820349784832861622_" class="st0" d="M468.6-340.8c0-5.4-2.3-10.4-7-15.1
					c-4.3-4.1-7.9-5.7-10.9-4.7c-2.9,1.1-4.3,3.5-4,7.4c0.1,4.2,2,8.4,5.7,12.7c3.8,4.5,7.5,6.6,11.2,6.3
					C467.1-334.3,468.7-336.6,468.6-340.8z"/>
				<path id="path170_00000019666626094127632230000003978667446988289725_" class="st0" d="M653.5-369.6c-4.7-1.6-8-2.5-9.7-2.8
					c-2-0.2-3.7,0.3-5.2,1.7c-1.7,2,0.1,4.3,5.3,7.2c5.3,3.1,10.1,4.2,14.5,3.3c2.2-0.6,2.5-2.2,1-4.8
					C657.5-367.5,655.5-369.1,653.5-369.6z"/>
				<path id="path172_00000007397877637526936360000001082111945602921142_" class="st0" d="M667-406.1c-3.4-4-6.1-6.5-7.9-7.7
					c-3.7-1.9-7-1.3-9.9,2c-3.1,3.6-3.5,7.7-1,12.4c2.1,4.5,5.2,7.6,9.5,9.1c7.8,3.1,12.2,2.1,13.1-2.8
					C672-397.9,670.7-402.2,667-406.1z"/>
				<path id="path174_00000106125060422361007930000014553870028538200462_" class="st0" d="M621.3-428.1c-1.9-5-3.8-8.6-5.8-10.5
					c-2.1-2.3-3.7-1.7-4.9,1.6c-1.4,3.3-0.9,8.4,1.5,15c2.8,6.9,5.6,11.1,8.7,12.6c3,1.2,4.5-0.4,4.3-4.9
					C624.8-418.2,623.5-422.8,621.3-428.1z"/>
				<path id="path176_00000031169548761521653090000004229146644787767196_" class="st0" d="M626.9-388.7c-4.5-3.5-6.8-3.8-6.8-0.7
					c-0.4,3.5,1.4,5.8,5.3,7.3c3.3,1.5,5,1.2,4.9-0.8C630.3-385.2,629.2-387.1,626.9-388.7z"/>
				<path id="path178_00000159455230293729328120000009959169215198479253_" class="st0" d="M604.5-478.6c-3.9-9-6.8-8.9-8.8,0.5
					c-1.9,9.5-0.6,16.4,4,20.6c4.3,3.9,6.8,2.5,7.4-4.1C607.6-467.6,606.7-473.3,604.5-478.6z"/>
				<path id="path180_00000031202539331720036450000007618125516490655894_" class="st0" d="M630.2-518.2c1-4.7,0-8.2-2.9-10.6
					c-2.9-2.4-6.3-1.7-10.3,2c-4.5,4.3-6.9,8.8-7.3,13.4c-0.7,4.8,1.3,7.8,6,8.8C622.7-503.3,627.6-507.9,630.2-518.2z"/>
				<path id="path182_00000112601687041399416180000003425228832181109638_" class="st0" d="M681.1-541.1
					c-9.5,0.9-15.3,4.7-17.3,11.5c-1.5,6.4,0,11,4.7,13.7c7.1,3.9,14.2,1.6,21.3-7.1c3.1-3.9,4-8,2.8-12.3
					C691-539.8,687.2-541.8,681.1-541.1z"/>
				<path id="path184_00000158027818577199414470000018090216291179157656_" class="st0" d="M669.4-562.6c0.8-3.8-1.2-5.1-6.1-3.7
					c-5.2,1-10,3.8-14.5,8.1c-4.1,4-4.9,6.8-2,8.4c2.4,1.3,6.3,1.1,11.8-0.6c4.3-1.5,7.1-3.4,8.5-5.5
					C667.1-556.5,667.9-558.8,669.4-562.6z"/>
				<path id="path192_00000111185182829804945470000001771596883342412169_" class="st0" d="M669-465.1c0.5-4.3-2.4-6.8-8.4-7.6
					c-6-0.8-10.9,0.9-14.5,5.2c-3.3,4.2-4.5,8.5-3.5,12.8c1.2,4,3.8,6.6,7.9,7.7c3.6,1.2,7.5-0.7,11.9-5.6
					C666.6-456.9,668.7-461,669-465.1z"/>
				<path id="path194_00000090287655741307966340000000433296487789056651_" class="st0" d="M700.4-479.8c-0.6-2.1-2.6-3-5.9-2.5
					c-3,0.8-4.9,2.1-5.8,3.8c-1.1,1.9-1,3.9,0.5,5.9c1.1,2,3,3,5.5,2.9C700.3-470.4,702.1-473.8,700.4-479.8z"/>
				<path id="path306_00000052819723054365984620000007759472065461246652_" class="st1" d="M678.3-370.1c0.3-3.2-1.4-5.3-5.3-6.4
					c-4.1-1.1-6.7-0.1-8,2.9c-1.2,3,0.6,4.9,5.5,5.5C675.2-367.1,677.7-367.8,678.3-370.1z"/>
				<path id="path360_00000113321812541302540090000018199896422178655407_" class="st0" d="M406.3-513.1c-3-2.6-6-3.9-9.1-3.7
					c-2.7,0.4-4.2,1.9-4.3,4.5c-0.3,2.3,1.5,4.3,5.1,5.9c3.1,1.5,6.1,2.3,9.3,2.4c2.3,0,3.2-1.2,2.9-3.4
					C409.8-509.3,408.5-511.1,406.3-513.1z"/>
				<path id="path454_00000062907056240109872700000015357904173937170571_" class="st2" d="M591-237.7
					c45.5-7,80.8-46.1,105.6-117.4c22.9-66.2,27.4-126.2,13.5-180c-21.3-83.2-75.2-122.6-161.8-118.4c-4.6-0.4-8-0.4-10.1-0.1
					l-21.5,3.3c-2.7,0.4-6,1.4-9.7,3.1c-83.7,21.7-123.4,75.5-119.2,161.5c2.9,56,25,111.9,66.4,167.7
					C498.7-257.3,544.3-230.5,591-237.7z"/>
				<path id="path456_00000134216864932555509080000012539815941401154449_" class="st3" d="M604-240.9
					c41.6-13.7,73.4-54.6,95.1-122.6c20.4-63.8,24.1-121,11-171.5c-21.3-83.2-75.2-122.6-161.8-118.4c-4.6-0.4-8-0.4-10.1-0.1
					l-21.5,3.3c-2.7,0.4-6,1.4-9.7,3.1c-80.1,20.8-120,71.1-119.6,151c0.2-7.7,3.5-16.5,9.9-26.5c6.4-9.7,14.2-18.4,23.5-26
					c20.8-16.7,44.3-25.5,70.5-26.1c24.8-0.4,48.7,6.5,71.8,20.7c52.4,32.1,81,82.4,85.8,150.7c2.5,34.4-1.6,68.3-12.3,101.9
					C627.4-271.7,616.5-251.6,604-240.9z"/>
				<path id="path458_00000025414379859276121810000012821892074066717601_" class="st4" d="M617.2-246.4
					c37.7-19.3,66-61.4,84.8-126.1c17.7-61.2,20.4-115.4,8.1-162.6c-21.3-83.2-75.2-122.6-161.8-118.4c-4.6-0.4-8-0.4-10.1-0.1
					l-21.5,3.3c-2.7,0.4-6,1.4-9.7,3.1c-22.2,6-41.4,14.1-57.4,24.1c24.8-4.4,49.7-6.7,74.8-6.8c69.8-1.4,116.3,40,139.4,124.3
					c8.7,31.4,13.2,65.5,13.1,102.5c-0.1,32.2-3.2,58.5-9,78.9C657.3-288.5,640.4-262.6,617.2-246.4z"/>
				<path id="path460_00000064331056846250924530000014099053471527702701_" class="st5" d="M646-268.2
					c28.6-29,49.2-71.2,61.9-126.8c12.2-53.5,12.8-100.2,2.2-140.1c-21.2-83.2-75.1-122.6-161.7-118.4c-4.6-0.4-8-0.5-10.2-0.1
					l-21.5,3.3c-2.7,0.4-6,1.5-9.7,3.2c-22.5,6-41,13.8-55.7,23.4l7.9-4.2c52-25.5,100.4-29.1,145.3-10.9
					c42.2,17.3,68.8,48.1,79.8,92.4c13.8,56.9,16.9,110.9,9.2,162.1C686.2-335.7,670.4-297,646-268.2z"/>
				<path id="path462_00000158014194343719538830000001653171081938843537_" class="st6" d="M433-518.8c2.6-7.1,3.1-13.7,1.6-19.7
					c-1.6-7.1-6.1-10.5-13.4-10.2c-7.9,0.4-13.5,5.2-16.9,14.4c-3.6,9.6-3.4,19.6,0.4,30c3.7,9.3,8.6,11.6,14.6,7.1
					C424.4-501.4,428.9-508.6,433-518.8z"/>
				<path id="path464_00000130645917674437462150000016763431015179342215_" class="st6" d="M440.1-584.5c2.8-6.1,4.4-10.1,4.9-12.2
					c0.7-2.9,0.3-5.4-1.1-7.5c-1.7-2.2-5.2-0.5-10.2,5.4c-5.6,6.2-8,12.4-7.4,18.5c0.5,3,2.7,3.7,6.7,2
					C436.7-580.1,439-582.1,440.1-584.5z"/>
				<path id="path466_00000124162230857305075790000014849066492155686320_" class="st6" d="M485.5-560.4c6.1-4.3,9.9-7.4,11.3-9.4
					c3-3.9,2.8-8.1-0.7-12.6c-3.9-5-9.2-6.5-15.9-4.4c-6.5,1.9-11.2,5.4-14,10.7c-5.3,9.8-4.7,16,1.6,18.4
					C473.4-555.4,479.3-556.3,485.5-560.4z"/>
				<path id="path468_00000044160578976087767910000011843563163403812002_" class="st6" d="M522.7-616.4c7.1-1.7,12-3.5,14.8-5.7
					c3.2-2.5,3-4.7-0.7-6.7c-4-2.5-10.9-2.7-20.4-0.6c-9.6,1.8-15.6,4.7-17.8,8.7c-2.2,3.7-0.5,5.8,5.2,6.4
					C508.8-613.6,515-614.4,522.7-616.4z"/>
				<path id="path470_00000122699846064479729640000014543122633601085604_" class="st6" d="M470.7-616.9c5.4-5,6.1-8.1,2-9.2
					c-4.3-0.8-8,1.1-11,5.5c-2.3,4-2.1,6.2,0.6,6.7C464.9-613.2,467.7-614.2,470.7-616.9z"/>
				<path id="path472_00000181766176682688927610000002490593180472331935_" class="st6" d="M592.3-630.1c13.1-3.1,13.4-7,1.2-11.6
					c-12-4.4-21.1-3.8-27.3,1.7c-5.8,4.8-4.6,8.2,3.6,10C577.7-628.1,585.2-628.2,592.3-630.1z"/>
				<path id="path474_00000075856988938391059610000015923574386609767572_" class="st6" d="M654.6-588.6c4-3.4,3.9-8.1-0.4-13.9
					c-5-6.5-10.4-10.7-16.3-12.3c-6.2-1.9-10.4,0.2-12.6,6.2c-1.5,4.5-0.7,8.8,2.4,12.8c2.8,3.8,7.1,6.7,12.7,8.6
					C646.1-585,650.8-585.5,654.6-588.6z"/>
				<path id="path476_00000119078384987080661730000002413099636460647092_" class="st6" d="M659.8-516.6
					c0.5-12.8-3.5-20.9-12.3-24.4c-7.5-3.4-13.6-2.3-18.1,3.1c-3.6,4.5-5,9.1-4.2,13.8c0.7,4.4,3.7,9.6,9.1,15.5
					c4.5,4.9,9.7,6.8,15.8,5.7C656.1-503.8,659.3-508.4,659.8-516.6z"/>
				<path id="path478_00000177467921012643350920000001317344369471722119_" class="st6" d="M689.6-529.2c4.6,2.2,6.6-0.3,6.1-7.2
					c-0.5-7-3.3-13.8-8.2-20.4c-4.4-6.1-7.8-7.5-10.4-4c-2,3.1-2.5,8.3-1.4,15.5c0.9,5.6,2.7,9.5,5.6,11.9
					C682.3-532.7,685-531.3,689.6-529.2z"/>
				<path id="path480_00000083777152220817596510000014531302324248565393_" class="st6" d="M687.5-429.9c3.1-5.8,3.5-12.5,1.2-20.1
					c-2-7-4.9-10.9-9-11.3c-3.7-0.5-6.5,1.3-8.5,5.6c-2.1,4.5-2.5,10.2-1.2,17.1c1.6,6.9,4.2,11.1,7.9,12.8
					C681.9-423.9,685.1-425.3,687.5-429.9z"/>
				<path id="path482_00000014607764036219377180000007466382612108648584_" class="st6" d="M628.6-455.3c0.8-5.8-1.2-11.4-6-16.8
					c-4.8-5.2-8.9-6.5-12.5-4c-3,2.5-4.7,6.3-5,11.8c-0.4,4.6,1,8.7,4.4,12.4c3.1,3.4,6.5,5.2,10.1,5.3
					C624.5-446.9,627.5-449.7,628.6-455.3z"/>
				<path id="path484_00000003804521395146201020000014900925767943550895_" class="st6" d="M495.3-491c5.4-5.3,8.4-11.3,9.1-17.9
					c0.9-6.9-1-12.3-5.8-16.1c-4.6-3.8-9.6-3.6-15.1,0.6c-5.4,3.9-8,8.5-8.1,13.9c0,5.3,2.4,10.7,7.1,16.2
					C487.4-488.4,491.6-487.3,495.3-491z"/>
				<path id="path486_00000132789258239261131330000015970692245015407766_" class="st6" d="M563.7-546.6c5.6,1.4,9.5-1.7,11.7-9.4
					c2.2-7.7,0.8-14.2-4.3-19.6c-4.8-5.5-10.1-7.9-15.9-7.3c-5.5,0.8-9.6,3.8-12.2,8.7c-2.1,4.5-0.3,10,5.5,16.5
					C553.6-551.5,558.7-547.7,563.7-546.6z"/>
				<path id="path488_00000158004907157202889240000008891847723937312191_" class="st6" d="M576.5-503c2.7-0.4,4.1-2.8,4-7
					c-0.3-4.2-1.6-6.9-3.8-8.3c-2.6-1.6-5.1-1.7-7.7-0.5c-2.9,1.3-4.6,3.5-4.9,6.7C563.8-504.7,567.9-501.6,576.5-503z"/>
				<path id="path490_00000060742616474401135900000003105092686061586817_" class="st6" d="M454.5-446.4c2.1-9.9,2.6-18.9,1.3-26.9
					c-1.5-8-5.7-11.4-12.6-10.3c-6.8,1.3-10.9,6.8-12.3,16.3c-1.5,8.7,0,17.2,4.7,25.5c4.3,7.5,8.1,11.2,11.4,10.9
					C450.2-431,452.7-436.2,454.5-446.4z"/>
				<path id="path492_00000022530404220552023790000008224900986748469411_" class="st6" d="M657-382c2.3-3.5,3.1-7.4,2.4-11.8
					c-0.4-4.5-2.1-7.5-5.2-9.3c-2.8-1.6-5.4-0.3-8,3.7c-2.7,4.1-3.7,8.3-3.1,12.7c0.7,4.4,2.4,7.3,5.1,8.5
					C651.4-376.6,654.3-377.9,657-382z"/>
				<path id="path494_00000170271031127575925450000004396011827071377028_" class="st6" d="M618.4-286.8c3.9-2,6.8-6.4,8.6-13.2
					c2-7.1,1.3-11.9-2.2-14.5c-3.5-2.3-6.9-0.5-10.2,5.3c-1.3,2.5-3.6,8-6.8,16.7c-1.6,4.2-1.2,6.8,1.2,7.9
					C611.2-283.7,614.3-284.5,618.4-286.8z"/>
				<path id="path496_00000105388407190250240430000007853468489817131428_" class="st6" d="M650.5-312.1c3-2.5,4.7-4,4.8-4.6
					c0.6-1.2,0.1-3.6-1.5-6.9c-1.9-5.1-5.6-1.9-10.9,9.3c0.2,1.1,0.9,2.1,2.2,3.1C647-310.1,648.8-310.4,650.5-312.1z"/>
				<path id="path498_00000081644861359466800730000007933925354199083179_" class="st6" d="M513.5-454c3.4-2.2,5.2-7.6,5.6-16.1
					c0.1-8.7-2.3-13.3-7.2-13.7c-4.6-0.5-7.8,2.3-9.8,8.2c-1.7,5.4-1.7,10.3-0.2,14.9C504.9-452.7,508.8-450.5,513.5-454z"/>
				<path id="path500_00000087380168236238890910000006712328391378098048_" class="st6" d="M609.6-358.2c4.1-2.3,6-6.8,5.5-13.6
					c-0.5-6.9-3.4-11.2-8.7-12.7c-4.7-1.5-8.6,1-11.5,7.7c-2.7,6.1-3.4,11.5-2.1,16.4c1.2,3.8,3,5.8,5.6,6
					C600.5-354.2,604.3-355.4,609.6-358.2z"/>
				<path id="path502_00000086669816285940164630000000574419284829456046_" class="st6" d="M534.5-376c5.9-1.8,8.4-4,7.4-6.6
					c-1-2.7-2.6-5-4.8-7c-2.9-1.8-5.5-1.8-8.1,0c-2.5,2.1-2.8,4.9-0.8,8.6C529.9-377,532-375.4,534.5-376z"/>
				<path id="path504_00000049941455392230877980000004081747346470471815_" class="st6" d="M482.1-374.7c0.1-4.8-0.8-8.2-2.8-10.2
					c-1.7-1.7-3.7-2.1-6.1-1.1c-2.6,1-4.5,2.9-5.5,6c-1,2.7-0.4,5.2,1.6,7.7c2.1,2.5,4.8,3.9,8.3,4.3
					C480.5-367.7,482-369.9,482.1-374.7z"/>
				<path id="path506_00000028310761012791234270000006824947516043999670_" class="st6" d="M439.4-401.5c1.5-4.4,1-8.6-1.5-12.4
					c-1.9-3.4-5.2-5.7-9.6-7c-3.8-1.1-5.8-0.4-6,2.2c0,1.7,1,5.4,2.9,11c1.6,4.6,4.2,7.4,7.7,8.5
					C436.5-398.3,438.6-399.1,439.4-401.5z"/>
				<path id="path508_00000146474149640015068820000007510653779223595948_" class="st6" d="M640.6-279.7c3.5-3.1,5.3-6.1,5.4-9.3
					c0.4-2.9-1-4.5-4.1-4.9c-2.6-0.4-5.2,1.1-7.7,4.6c-2.3,3.2-3.7,6.3-4.1,9.5c-0.4,2.7,0.7,3.9,3.6,3.8
					C636.1-276.4,638.4-277.6,640.6-279.7z"/>
				<path id="path598_00000005983054140812863990000010177137739449498268_" class="st7" d="M516-284.6c15,5.9,17.7-1.8,8-22.8
					c-10-20.7-19.7-27.9-29.2-21.3c-8.4,5.8-8.9,14.2-1.6,25.3C499.7-294.4,507.2-288.1,516-284.6z"/>
				<path id="path600_00000013152183167375576330000001982035880461465275_" class="st7" d="M483.9-333.5c3.6-2.3,4.1-5.8,1.3-10.8
					c-2.5-4.9-5.8-6.6-10.1-4.8c-3.7,1.7-3.9,5.1-0.5,10.3C478.3-333.4,481.4-331.7,483.9-333.5z"/>
			</g>
		</g>
		<g id="g10_00000100371125408947754240000014152157705457434532_" transform="matrix(1.25 0 0 -1.25 0 32.274)">
			<g id="g12_00000057837562253862746410000002656128646611047808_">
				<path id="path38_00000143581485260507141710000003971200334264577210_" class="st0" d="M49.6-453.1c-0.3-7.5-3-14.7-8-21.8
					c-4.4-6.8-7.7-8.4-10-4.7c-2.5,3.1-3.2,8.5-2.3,16.1c0.5,6,2.1,10.3,4.8,12.9c0.9,0.8,3.6,2.3,8.4,4.7
					C47.3-443.5,49.6-445.9,49.6-453.1z"/>
				<path id="path40_00000088100999759546564870000002160205949523539119_" class="st0" d="M34.6-344.6c3.6-5.8,4.4-12.7,2.5-20.8
					c-1.9-7.3-4.7-11.3-8.5-12.2c-3.9-0.8-6.9,0.9-9.2,5.3c-2.7,4.5-3.5,10.3-2.2,17.3c1.1,7.4,3.7,12.1,7.8,14.2
					C28.7-338.7,31.9-340,34.6-344.6z"/>
				<path id="path170_00000145026853999920557490000012250746577919019934_" class="st0" d="M251.7-253.3c-4.1-4.8-6.9-7.9-8.6-9.4
					c-2-1.5-4.2-2.1-6.7-1.6c-3.1,1-2.8,4.7,0.9,11.3c3.6,6.8,8,11.2,13.4,13.1c2.8,0.8,4.1-0.8,4.2-4.5
					C254.6-248.4,253.6-251.4,251.7-253.3z"/>
				<path id="path172_00000121958701077330892190000007650998461729389749_" class="st0" d="M290.4-283.5c-1-6.5-2.2-11-3.4-13.5
					c-2.7-4.5-6.6-6-11.9-4.4c-5.7,1.8-8.8,6-9.3,12.6c-0.7,6.2,0.6,11.6,4.1,16c6.3,8.5,11.6,10.3,15.9,5.6
					C290.2-271.4,291.7-276.8,290.4-283.5z"/>
				<path id="path174_00000075844231061969433500000015873911194655546529_" class="st0" d="M255.9-337.3c1.3-6.6,1.6-11.7,0.7-15.1
					c-0.7-3.8-2.8-4.3-6.3-1.5c-3.7,2.6-6.5,8.3-8.3,17.1c-1.6,9.2-1.3,15.6,0.9,19.3c2.4,3.3,5,2.5,7.9-2.3
					C253.2-324.3,254.8-330.1,255.9-337.3z"/>
				<path id="path176_00000112615309450790588710000005320264918723111052_" class="st0" d="M235.9-291.4c-2.4-6.7-4.8-8.5-6.9-5.2
					c-2.7,3.5-2.4,7.2,0.9,11.3c2.6,3.8,4.5,4.6,5.8,2.4C237.2-285.3,237.2-288.1,235.9-291.4z"/>
				<path id="path178_00000118368170229746455230000010480302756099260295_" class="st0" d="M271.2-402.5c1.8-12.2-1.5-14-9.8-5.2
					c-8.4,8.9-11.5,17.2-9.3,24.6c2.1,7,5.6,7.2,10.7,0.5C267.3-388.6,270.1-395.3,271.2-402.5z"/>
				<path id="path180_00000172430850228537658860000008183975316677995664_" class="st0" d="M325-427.8c4.1-4.3,5.4-8.8,3.9-13.2
					c-1.5-4.4-5.6-6-12.3-4.6c-7.6,1.7-13.2,4.9-16.6,9.5c-3.9,4.7-3.7,9.2,0.6,13.4C307.1-416.9,315.3-418.6,325-427.8z"/>
				<path id="path182_00000126304746507643010280000012434356169048066491_" class="st0" d="M394.6-418.8c-10.7-5.3-19.5-5-26.2,0.9
					c-5.9,5.9-7.3,11.8-4,17.8c5,8.9,14.2,11.1,27.5,6.5c5.9-2.1,9.6-5.8,11.1-11.3C404.4-410.8,401.6-415.5,394.6-418.8z"/>
				<path id="path184_00000173860958445199574330000014317701199921044669_" class="st0" d="M396.3-449.6c3.4-3.6,2-6.2-4.1-8
					c-6.2-2.3-13.2-2.6-20.9-0.8c-7.1,1.6-9.7,4.1-7.7,7.6c1.7,2.9,6,5.3,13,7.2c5.6,1.2,9.8,1.1,12.7-0.3
					C389.8-444.5,392.2-446.4,396.3-449.6z"/>
				<path id="path192_00000048474338167505163890000010078372736259144579_" class="st0" d="M331.4-345.3c3.3-4.3,2-8.9-4-13.7
					c-5.9-4.8-12.3-6.2-18.9-4c-6.3,2.3-10.4,6.1-12.2,11.4c-1.4,5.1-0.2,9.6,3.4,13.4c3.1,3.6,8.5,4.2,16.4,1.9
					C323.4-338.2,328.5-341.2,331.4-345.3z"/>
				<path id="path194_00000143601597643205515050000006643889113615008703_" class="st0" d="M374.8-340.3c0.7-2.7-0.8-4.9-4.7-6.6
					c-3.7-1.2-6.6-1-8.7,0.3c-2.4,1.3-3.6,3.5-3.3,6.7c-0.1,2.9,1.2,5.2,3.9,6.8C368.5-330.4,372.7-332.8,374.8-340.3z"/>
				<path id="path306_00000052088654136051866110000011488788819968451481_" class="st1" d="M278.6-237.4c2.4-3.2,2-6.7-1.4-10.4
					c-3.7-3.8-7.2-4.5-10.5-2.1c-3.3,2.4-2.6,5.6,2.3,9.6C273.3-236.3,276.5-235.3,278.6-237.4z"/>
				<path id="path360_00000084491104605399935530000012453436672393110932_" class="st0" d="M81.7-570.4c-1.4-4.8-3.9-8.1-7.3-10
					c-3.2-1.4-5.8-0.8-7.6,2c-1.8,2.2-1.3,5.6,1.6,9.7c2.3,3.7,5,6.5,8.3,8.7c2.5,1.5,4.3,0.8,5.3-1.7
					C83-563.9,82.8-566.8,81.7-570.4z"/>
				<path id="path454_00000086676194276576594340000007706426765418304645_" class="st2" d="M97.6-153.3c53.3,22.6,117,3.9,190.7-56
					c68.3-55.8,112.7-117,133.4-183.9c32.2-103.1,0.5-181-95.1-233.7c-4.6-3.4-8.3-5.7-10.8-6.8l-25.3-10.7
					c-3.2-1.4-7.4-2.4-12.4-3.1c-104-32.1-182.1-0.7-234.4,94.2C9.8-491.2-3.4-416.8,4-329.6C11.7-235.2,42.9-176.4,97.6-153.3z"/>
				<path id="path456_00000149355077279161430270000001912792033739911553_" class="st3" d="M113.7-148.1
					c53.6,12.8,114.7-10,182.9-68.5c64-54.9,105.7-113.7,125.1-176.5c32.2-103.1,0.5-181-95.1-233.7c-4.6-3.4-8.3-5.7-10.8-6.8
					l-25.3-10.7c-3.2-1.4-7.4-2.4-12.4-3.1c-99.6-30.6-175.5-3.1-227.8,82.7c5.3-8,14.7-15.4,28.1-21.9
					c13.3-6.2,27.3-10.3,42.4-12.3c33.3-4.2,64.3,2,92.8,18.7c26.8,16,47.9,39.2,63.2,69.6c34.9,68.9,32.4,141.8-7.7,218.2
					c-20.1,38.5-46.9,72.1-80.5,101C159.1-165.7,134.2-151.4,113.7-148.1z"/>
				<path id="path458_00000182505169642990624080000011402988451565096882_" class="st4" d="M131.4-145.3
					c53.2,4.2,111.3-22.2,174.2-79c59.4-53.8,98.1-110.1,116.2-168.9c32.2-103.1,0.5-181-95.1-233.7c-4.6-3.4-8.3-5.7-10.8-6.8
					l-25.3-10.7c-3.2-1.4-7.4-2.4-12.4-3.1c-27.8-8.3-53.6-12.3-77.4-12.1c29.5,11.7,57.7,25.7,84.6,42.1
					c75.7,44.6,98.1,119.7,67.2,225.3c-11.4,39.4-29.2,78.9-53.7,118.5c-21.4,34.4-42,60.6-61.9,78.6
					C202.1-163.9,167-147.4,131.4-145.3z"/>
				<path id="path460_00000143604040737569583580000016923162083732992129_" class="st5" d="M176.7-149.6
					c49.7-12.1,99.8-43.7,150-94.9c48.4-49.3,80-98.9,94.9-148.7c32.3-103.1,0.6-181-95-233.7c-4.6-3.4-8.3-5.8-10.9-6.9l-25.2-10.7
					c-3.2-1.4-7.4-2.3-12.5-3c-28-8.4-53-12.3-75.1-11.7l11.2,0.7c72.5,7,126.8,35.2,162.8,84.3c33.8,46.4,41.9,96.9,24.5,151.7
					c-22.8,70.1-55.2,130-97.2,179.7C264.4-195.4,221.8-164.4,176.7-149.6z"/>
				<path id="path462_00000034048450375875088290000014299111809943869856_" class="st6" d="M114.1-558.8c7.5-5.9,12.4-12.6,14.8-20
					c2.9-8.7,0.4-15.3-7.6-19.8c-8.7-4.8-17.9-3.4-27.6,4.3c-10.1,7.9-16.6,18.7-19.4,32.4c-2.2,12.4,1.5,18.2,11,17.3
					C93.4-545.8,103-550.5,114.1-558.8z"/>
				<path id="path464_00000041287718099127207110000004480674570369068476_" class="st6" d="M165.1-624.5c7-4.7,11.4-8,13.3-9.8
					c2.6-2.7,3.9-5.6,3.7-8.7c-0.4-3.5-5.2-3.9-14.5-0.9c-10.1,3-16.8,8-20.1,14.9c-1.5,3.6,0.4,5.8,5.8,6.6
					C158.5-622,162.4-622.7,165.1-624.5z"/>
				<path id="path466_00000020399919876003111990000008148874119441257149_" class="st6" d="M197.8-568.7c9.4-0.6,15.5-1.4,18.3-2.6
					c5.8-2.1,8.4-6.7,7.6-14c-0.8-8-5.6-13-14.2-15.2c-8.2-2.3-15.6-1.6-22.1,2.1c-12.2,7.1-15.6,14-10.5,20.8
					C181.6-571.4,188.5-568.4,197.8-568.7z"/>
				<path id="path468_00000093886453917797463510000013004225719087578532_" class="st6" d="M274.6-604.1c8.7,2.9,15.2,4.2,19.6,3.7
					c5.1-0.5,6.4-3,3.7-7.6c-2.7-5.3-9.8-10.1-21.4-14.2c-11.5-4.5-19.8-5.3-24.8-2.5c-4.9,2.5-4.4,5.9,1.4,10.3
					C258-610.3,265.1-607,274.6-604.1z"/>
				<path id="path470_00000180362411543083433040000005395760604925879740_" class="st6" d="M219.3-639c9.2-1.8,11.9-4.7,8.2-8.5
					c-4.1-3.7-9.3-4.1-15.4-1.4c-5.1,2.8-6.3,5.3-3.8,7.6C210.7-638.8,214.3-638.1,219.3-639z"/>
				<path id="path472_00000029738274190888890740000015320123633606312626_" class="st6" d="M358.2-572.8c16.1,5.3,19,1.4,8.9-11.7
					c-9.9-12.6-20.1-18-30.3-16.2c-9.3,1.3-10.3,5.7-2.7,13.1C341.3-580.3,349.4-575.4,358.2-572.8z"/>
				<path id="path474_00000181089143477606161370000006067674330922607258_" class="st6" d="M397.6-487.2c6.6-1,9.5-6.1,8.7-15.2
					c-1-10.3-4.1-18.3-9.4-23.9c-5.4-6.1-11.3-6.7-17.5-1.7c-4.6,3.8-6.6,8.9-5.9,15.3c0.5,5.9,3.2,11.8,7.9,17.7
					C386.1-489,391.5-486.3,397.6-487.2z"/>
				<path id="path476_00000096022891753208164730000016725472054429270689_" class="st6" d="M355.6-406.6c9-13.3,10.1-24.7,3-34.2
					c-5.9-8.6-13-11.4-21.4-8.6c-6.9,2.5-11.4,6.5-13.7,12c-2.2,5.2-2.4,12.7-0.5,22.7c1.5,8.2,5.9,13.7,13.1,16.5
					C343.2-395.3,349.7-398.1,355.6-406.6z"/>
				<path id="path478_00000023999355731006164930000006970134236386728329_" class="st6" d="M395.8-400.4c3.4,5.3,7.3,4.1,11.4-3.7
					c4.1-7.9,5.6-16.9,4.6-27.2c-0.6-9.4-3.4-13.2-8.5-11.1c-4.2,2-8.2,7.2-11.7,15.6c-2.8,6.5-3.4,12-1.9,16.4
					C390.4-409,392.4-405.7,395.8-400.4z"/>
				<path id="path480_00000073717134646489431740000004875272216715978403_" class="st6" d="M328-295.4c7.2-4.2,12-11.1,14.6-20.7
					c2.5-8.8,1.9-14.9-2.1-18.1c-3.6-3-7.9-2.9-12.8,0.4c-5.3,3.5-9.4,9.3-12.5,17.5c-2.9,8.4-2.8,14.7,0,18.9
					C318-292.7,322.4-292,328-295.4z"/>
				<path id="path482_00000018938132833792417290000003209534348889853612_" class="st6" d="M281.7-361.5c4.7-5.6,6.2-13,4.7-22
					c-1.7-8.7-5.2-12.9-10.7-12.5c-4.8,0.6-9.2,3.7-13.1,9.3c-3.5,4.6-4.7,10-3.5,16.2c1.1,5.8,3.5,9.9,7.4,12.3
					C271.8-355.3,276.8-356.3,281.7-361.5z"/>
				<path id="path484_00000083782769487897697560000001860191385714567823_" class="st6" d="M162.5-487.9
					c9.3-2.2,16.5-6.5,21.6-13.2c5.6-6.8,7-13.8,4.4-21c-2.4-7.1-7.9-10.2-16.6-9.3c-8.4,0.6-14.2,3.8-17.9,9.6
					c-3.5,5.7-4.5,13.1-3.1,22.1C152.3-490.3,156.1-486.4,162.5-487.9z"/>
				<path id="path486_00000132047544104194606490000015096192394833121180_" class="st6" d="M272.5-502.2c5.1,5.2,11.3,4.5,18.8-2.3
					c7.4-6.8,10.2-14.7,8.3-23.9c-1.5-9-5.6-15.2-12.2-18.4c-6.4-2.7-12.7-2.3-18.8,1.2c-5.3,3.5-7,10.6-5,21.3
					C264.9-514.1,267.9-506.7,272.5-502.2z"/>
				<path id="path488_00000068675602021083772300000000768626920336604293_" class="st6" d="M257.4-447c3.2,1.4,6.2-0.3,8.8-4.9
					c2.4-4.7,2.9-8.5,1.4-11.4c-1.7-3.4-4.3-5.2-7.9-5.7c-4-0.6-7.2,0.7-9.6,3.9C244.9-457.3,247.3-451.3,257.4-447z"/>
				<path id="path490_00000151515810360310936180000013779599930935384972_" class="st6" d="M89.3-467c8.8-9.2,15.2-18.5,19.2-27.9
					c3.7-9.5,1.4-16-6.7-19.4c-8.2-3.1-16.2,0-23.9,9.3c-7.3,8.3-11.3,18.4-11.8,30.5c-0.4,10.8,1.3,17.3,5.1,19.2
					C74.6-453.4,80.7-457.3,89.3-467z"/>
				<path id="path492_00000132065487904742256650000017065190580108851339_" class="st6" d="M263.7-264.2c4.7-2.2,8.2-5.9,10.4-11.1
					c2.5-5,2.7-9.5,0.6-13.4c-1.9-3.5-5.6-3.9-11-1.2c-5.6,2.6-9.5,6.5-11.7,11.6s-2.3,9.3-0.2,12.5
					C254.1-262.2,258-261.7,263.7-264.2z"/>
				<path id="path494_00000112598482856886955960000012970449542874103445_" class="st6" d="M159.5-187.8c5.5,0.4,11.5-2.3,17.9-8.4
					c6.9-6.3,9.2-11.9,7.2-16.9c-2.2-4.8-7-5.1-14.5-1c-3.1,1.8-9.1,6.2-18.3,13.5c-4.4,3.4-5.7,6.5-3.9,9.2
					C149.6-189.2,153.5-188,159.5-187.8z"/>
				<path id="path496_00000099634899365158259040000016783051096388317607_" class="st6" d="M210.4-193.7c4.9-0.6,7.6-1.2,8.2-1.7
					c1.5-0.9,2.5-3.8,3-8.4c1.3-6.7-4.7-5.8-17.8,2.8c-0.5,1.3-0.4,2.9,0.3,4.7C205.4-193.9,207.6-193,210.4-193.7z"/>
				<path id="path498_00000165940574820453312060000008457626325519185824_" class="st6" d="M157.6-436.2
					c5.1-0.2,10.6-4.7,16.6-13.6c5.8-9.3,6.3-15.8,1.3-19.4c-4.6-3.6-9.8-2.7-15.9,2.4c-5.3,4.6-8.7,9.9-10.1,15.8
					C147.4-440.5,150.1-435.5,157.6-436.2z"/>
				<path id="path500_00000125591680094472958070000005601076460916326295_" class="st6" d="M197.1-270.2c6,0.2,10.9-3.4,14.9-10.9
					c4-7.8,3.7-14.2-1-19.3c-4.1-4.7-9.9-4.6-17.5,0.6c-6.9,4.8-11.3,10.1-13.2,16.2c-1.2,4.8-0.6,8.2,2,10.1
					C184.8-271.8,189.6-270.7,197.1-270.2z"/>
				<path id="path502_00000023239586186256616450000005866781706804600482_" class="st6" d="M128.5-338.8c7.6,2,11.6,1.3,12.3-2.2
					c0.7-3.6,0.5-7.1-0.6-10.7c-1.9-3.8-4.7-5.6-8.6-5.3c-4,0.6-6.3,3.4-6.6,8.7C124.3-342.9,125.4-339.7,128.5-338.8z"/>
				<path id="path504_00000181084868161717622830000000637342324605760911_" class="st6" d="M71.5-372c3.4-5.1,4.6-9.4,3.7-12.8
					c-0.7-2.9-2.6-4.7-5.8-5.3c-3.5-0.7-6.7,0.1-9.8,2.8c-2.8,2.2-3.9,5.3-3.4,9.4c0.6,4,2.6,7.4,6,10.1
					C65.2-365.5,68.3-366.9,71.5-372z"/>
				<path id="path506_00000113322473929437777050000004753974947332010912_" class="st6" d="M43.4-428.9c4.6-3.7,6.8-8.5,6.7-14.3
					c0.2-4.9-1.8-9.5-5.6-13.9c-3.3-3.7-6-4.2-7.9-1.6c-1.1,1.8-2.5,6.4-4.1,13.7c-1.3,5.9-0.4,10.7,2.6,14.2
					C38.2-427.4,41-426.8,43.4-428.9z"/>
				<path id="path508_00000001632396141629725410000017381850815262754982_" class="st6" d="M178.5-165.5c5.8-0.9,9.7-3.1,11.9-6.4
					c2.3-2.8,1.9-5.5-1.2-8c-2.5-2.2-6.3-2.3-11.3-0.2c-4.6,1.9-8.1,4.4-10.7,7.5c-2.2,2.6-1.8,4.7,1.3,6.4
					C171.5-165,174.8-164.8,178.5-165.5z"/>
				<path id="path598_00000050632617060426765130000011000617459379656627_" class="st7" d="M48.3-253.1
					c12.2,16.3,20.1,9.8,23.6-19.2c3-28.8-2.6-42.9-17.1-42.1c-12.8,0.7-19,9.4-18.4,26C37.3-274.4,41.2-262.6,48.3-253.1z"/>
				<path id="path600_00000145034634532850352910000014165363424713097146_" class="st7" d="M46.2-326.7c5.3-0.1,8.2-3.5,8.5-10.7
					c0.6-6.9-1.9-10.9-7.6-11.8c-5-0.6-7.5,2.9-7.3,10.7C40.2-330.3,42.3-326.4,46.2-326.7z"/>
			</g>
		</g>
	</g>
</g>
</svg>
