<?xml version="1.0" encoding="utf-8"?>
<!-- Generator: Adobe Illustrator 26.2.0, SVG Export Plug-In . SVG Version: 6.00 Build 0)  -->
<svg version="1.1"
	 id="svg7325" xmlns:cc="http://creativecommons.org/ns#" xmlns:dc="http://purl.org/dc/elements/1.1/" xmlns:rdf="http://www.w3.org/1999/02/22-rdf-syntax-ns#" xmlns:svg="http://www.w3.org/2000/svg"
	 xmlns="http://www.w3.org/2000/svg" xmlns:xlink="http://www.w3.org/1999/xlink" x="0px" y="0px" viewBox="0 0 663 496"
	 style="enable-background:new 0 0 663 496;" xml:space="preserve">
<style type="text/css">
	.st0{fill:#D8C3A5;}
</style>
<g id="layer1" transform="translate(283.16917,-5.9918472)">
	<path class="st0" d="M-34.3,477.2c-1.9,1.2-0.3,4.6,2.6,5.7c3.7,1.4,13.2-2.1,11.3-4C-21.3,478-33.2,476.5-34.3,477.2z"/>
	<path class="st0" d="M362.7,197.8c1.8-0.7,1.6-2.3-0.4-3.8c-1.5-1.1-1.5-1.6-0.5-3.6c1.9-3.6,2.1-11.3,0.2-11.3
		c-1,0-1.6,1.2-1.8,3.4c-0.2,1.9-0.7,3.7-1.2,4s-1.1,1.5-1.3,2.6c-0.2,1.1-0.1,2.7,0.3,3.6s0.5,1.9,0.1,2.3
		C357.3,195.9,361.2,198.4,362.7,197.8z"/>
	<path class="st0" d="M349,174.3c-0.5-1.5-1.7-2.8-2.5-2.8c-2.1,0-1.9,4.2,0.3,7.1c1,1.3,2.1,3.2,2.5,4.1c0.7,1.9,3.7,2.4,3.7,0.7
		c0-0.6-0.7-2.3-1.5-3.7C350.7,178.2,349.5,175.8,349,174.3z"/>
	<path class="st0" d="M-183,100.7L-183,100.7c-4.3,7.7-5,11.8-2.6,13.8c1.2,1,1.9,0.5,4-2.9c1.4-2.2,2.6-4.4,2.6-4.8
		s1.2-2.5,2.6-4.6c3-4.4,2.9-8.1-0.2-8.5C-178.5,93.5-179.6,94.7-183,100.7z"/>
	<path class="st0" d="M-187.1,90c1.8,1.7,2.1,1.6,5.1-0.6c2.3-1.7,3.3-2,3.9-1.1c0.5,0.9,1.9,0.3,4.8-2.2c2.3-2,6.1-4,8.8-4.7
		l4.8-1.2l-2.3-1.9c-1.8-1.5-3.2-1.8-6.4-1.2c-5.7,0.9-15.5,5-18.3,7.6C-189.5,87.3-189.6,87.8-187.1,90z"/>
	<path class="st0" d="M-100.3,69.2c1-0.3,0.2-0.5-1.8-0.5c-1.9,0-2.7,0.2-1.8,0.5C-102.8,69.5-101.2,69.5-100.3,69.2z"/>
	<path class="st0" d="M-233.9,151c1.9,1.6,3.9,2.5,5,2.2c1.5-0.4,2,0.3,2.4,3.3c0.3,2.1,1.7,5,3.1,6.5c2.4,2.6,2.6,2.6,4.5,0.9
		c1.7-1.5,1.9-2.6,1.3-6.8l-0.7-5l3,3.2c3.3,3.6,10.2,6,11.4,4.1c0.5-0.8,1.4,0.1,2.5,2.3c2.1,4,9.6,11.5,13.6,13.6
		c3.8,2,3.4,0.6-1.4-4.1c-2.2-2.2-5.5-7-7.4-10.6c-3.1-6.1-5.8-15.9-5-18.4c0.2-0.6,0.6-3.8,0.9-7.1c0.3-3.3,0.8-7,1.2-8.3
		c0.9-3-1.2-3-6.8,0.1c-4.9,2.8-6.4,4.6-5.4,7.1c0.5,1.2,1.4,1.6,2.9,1.2c2.2-0.5,2.2-0.4,2.2,7.9v8.4l-2.2-2.4
		c-2.4-2.6-2.9-4.5-1.2-4.5c0.5,0,1-0.7,1-1.5c0-2.3-5-1.9-7.7,0.7c-2,1.9-2.7,2-5.8,1.1c-1.9-0.6-3.7-0.7-4-0.3s-2.3,0.8-4.6,0.9
		c-2.3,0.1-4.5,0.4-5,0.7l0,0C-237.7,147.1-237.1,148.3-233.9,151z M-210.8,152.2c1.2,1.1,3.3,2.4,4.5,2.7c1.2,0.4,2.2,1.1,2.2,1.6
		c0,1.7-2.8,0.9-5.9-1.7l0,0c-1.7-1.4-3.1-3.1-3.1-3.7S-212,151.1-210.8,152.2z"/>
	<path class="st0" d="M-205,116.5c1.3-2,1.3-3.3,0-2.5c-0.6,0.3-1,1.4-1,2.3C-206,117.8-205.9,117.8-205,116.5z"/>
	<path class="st0" d="M-207,120.5c0,0.5,0.2,1,0.4,1s0.7-0.5,1.1-1c0.3-0.6,0.1-1-0.4-1S-207,120-207,120.5z"/>
	<path class="st0" d="M-197,334c0.5-0.3,1-1,1-1.6s-0.5-0.9-1-0.9c-0.6,0-1,0.7-1,1.6C-198,333.9-197.6,334.4-197,334z"/>
	<path class="st0" d="M-81.1,458.5L-81.1,458.5L-81.1,458.5z"/>
	<path class="st0" d="M110.5,196.2c5.8,0.4,7.3,0.2,8.4-1.2c1-1.2,1.1-2.1,0.3-3.3c-1.4-2.2-24.2-4-25.4-2
		C91.8,193,97.8,195.3,110.5,196.2z"/>
	<path class="st0" d="M9,93.5c0-0.5-0.5-1-1-1s-1,0.5-1,1s0.5,1,1,1S9,94.1,9,93.5z"/>
	<path class="st0" d="M-75.8,87.7c4,0.1,3.8,0.2,6.3-0.6c1.4-0.5,1.6-0.4,0.7,0.3c-1.8,1.3,2.1,1.9,22.5,3.4
		c13.3,1,16.1,1.5,15.2,2.6c-1.9,2.3,0,2.6,5.6,0.8c3.3-1.1,6.4-1.4,7.8-1c4.1,1.3,9.2,0.5,11-1.9c1.9-2.4,2.3-5.3,0.9-6.1
		c-0.9-0.6-9.9,2.1-11.7,3.5c-0.6,0.5-2.2,0.6-3.5,0.4c-3.9-0.7-28.9-3.4-35.7-3.9c-3.4-0.2-9.3-0.8-13.2-1.1c-3.8-0.4-7.4-0.4-8,0
		l0,0C-80.3,85.4-79,87.5-75.8,87.7z"/>
	<path class="st0" d="M-114.8,103.2c0.7,0.4,3.3,0.6,5.8,0.4c12.6-0.9,12-0.9,12-2c0-0.5-1.1-2.2-2.5-3.7c-2.5-2.7-2.7-2.7-8.1-1.6
		c-3.1,0.6-6.2,1.7-7,2.3l0,0C-116.4,100-116.4,102.2-114.8,103.2z"/>
	<path class="st0" d="M254.6,408.8c-0.3,0.2-0.5,0.4-0.8,0.6C254.1,409.2,254.3,409,254.6,408.8z"/>
	<path class="st0" d="M204.6,476c0.3-0.9-1-3.3-3.3-6.1c-1.5-1.7-3.8-4.9-6.2-8.3c-1,0.8-1.9,1.5-2.9,2.3
		C202.4,478.4,203.4,479.1,204.6,476z"/>
	<path class="st0" d="M283.5,391.6c3.9-1.2,8.1-2.9,9.3-3.7c0.3-0.2,0.5-0.3,0.7-0.5c-4.4,1.4-8.7,3.1-12.9,5.1
		C281.7,392.2,282.7,391.9,283.5,391.6z"/>
	<path class="st0" d="M340,377.3c0-1.4-1.9-4.1-5.6-7.8c-0.1,3.1-0.2,6.3-0.2,9.4C339.8,379.6,340,379.5,340,377.3z"/>
	<path class="st0" d="M322,328.8c0-0.3-0.7-1.4-1.6-2.3c-1.6-1.7-4.4-1.6-4.4,0.3c0,1.3,8.1,13.5,12.4,18.7c2,2.4,3.6,4.5,3.6,4.7
		c0,0.4-0.7,0.1-9.8-3.5c-6.4-2.5-6.2-2.5-6.2-0.3c0,2,6.8,5.7,10,5.4c1.6-0.1,3.6,2.4,2.6,3.4c-0.2,0.2-2.1,0.7-4.1,1
		c-3.1,0.5-4.1,0.2-6.7-2.3c-1.7-1.6-4.9-6.7-7.1-11.4c-2.2-4.7-5.4-10.2-7-12.3c-2.6-3.3-3.4-3.8-6.6-3.5c-2.9,0.2-3.7,0.8-3.9,2.6
		c-0.2,1.2-1,2.2-1.8,2.2c-1.2,0-1.3-0.4-0.3-2.2c0.9-1.6,0.9-2.3,0.1-2.6c-0.6-0.2-0.1-1.5,1.4-3c1.4-1.5,2.5-3,2.5-3.3
		c0-0.4,1.3-1.2,3-1.9c3.1-1.3,4-3.5,1.8-4.3c-0.8-0.3-0.9-0.8-0.2-1.5c0.7-0.7,1.6-0.6,3,0.4s1.6,1.7,0.8,2.2
		c-1.5,0.9-3.6,6.3-2.8,7.1c0.3,0.3,1.2-0.3,2-1.3s1.4-1.4,1.4-0.7c0,2.4,2.9,1.1,5.9-2.7c1.7-2.1,3.1-4.2,3.1-4.6s1.8-3.4,4-6.6
		s4-6.3,4-6.9s0.5-1,1-1c1.4,0,1.3,0.5-1.1,5.8c-3.6,7.9-1.9,19.3,2.7,17.6c1.2-0.5,1.7,0.5,3,5.7s4.6,5.2,7.9,0
		c2.3-3.6,2.5-5,2.5-14.4c0-9.6,0.2-10.5,2-11.1c1.1-0.4,2.7-2,3.5-3.6s2-2.9,2.5-2.9s1-0.6,1-1.4s0.4-1.6,0.8-1.8
		c0.4-0.2,2-2.4,3.4-4.8c1.4-2.5,4.7-6.5,7.3-9c8.8-8.5,11.8-15.7,7.6-18c-1.1-0.6-2.3-1-2.8-1c-1.4,0-6.5,5.2-11.2,11.3
		c-2.4,3.2-4.7,5.5-5,5.2s-0.1-0.9,0.5-1.3s1.4-1.8,1.8-3.2c1.1-4,2.9-7.1,5.8-10.2c3.7-4,4.4-6.6,2.1-8.3c-1-0.8-2.1-1.4-2.5-1.4
		c-1.4-0.1-10.1,14.4-12.5,20.8c-2.4,6.5-4.8,10.2-6.5,10.2c-0.5,0-0.8-0.6-0.8-1.4s-0.7-1.7-1.7-2c-1.4-0.5-1.2-1.2,1.6-4
		c2.1-2.2,3.1-4,2.7-5c-1.2-3.1,7.9-18.8,21.2-36.5c4.3-5.7,6.3-9.9,4.2-8.5c-0.5,0.3-1-2-1-5.2c-0.1-3.2-0.3-7-0.5-8.6
		s0.3-4.7,1-6.9s1.2-4.3,1-4.5c-1.2-1.2-6.5-1-7.6,0.3c-0.9,1.1-0.9,1.5,0,1.5c0.6,0,0.9,0.5,0.5,1.1s-1.3,0.8-2.1,0.5
		c-0.8-0.3-1.2-0.2-0.9,0.3c0.3,0.5-0.3,1.9-1.3,3.2s-3.5,5.1-5.5,8.5c-3.9,6.5-12.2,16.3-13.8,16.3c-1.6,0-6.9,4.3-6.9,5.7
		c0,0.9-0.6,1-2.3,0.4c-1.8-0.7-2.8-0.4-4.4,1.3c-1.8,1.9-9.7,6.6-11,6.6c-0.2,0,4.4-4.8,10.4-10.8c12.2-12.1,15.5-15.9,18.5-20.9
		c1.3-2.2,2.6-3.3,3.5-2.9c1,0.4,1.9-0.7,2.9-3.2c0.8-2.1,2-4.6,2.6-5.7c2.1-3.7,0-25.5-3.2-33c-3.6-8.4-5.1-11.3-7-13.4
		c-1.1-1.3-2.3-2.2-2.5-2c-0.6,0.7,2.5,9.3,4,11c0.8,0.9,1.1,1.9,0.8,2.2s0,2.1,0.9,3.9c0.8,1.8,1.8,6.1,2.1,9.5
		c0.5,5.5,0.4,6.3-1.1,6.3c-1.6,0-6,6.3-10.2,14.5c-2.1,4.1-13.2,20.2-16.9,24.5c-1.7,1.9-4,4.8-5.3,6.3s-5.9,6-10.3,9.8
		c-4.4,3.9-9,7.9-10.1,8.9c-4.5,4-3.2,1.6,3.3-6.2c3.7-4.5,8-9.5,9.6-11.1c2.8-3.1,15.2-27.5,18.3-36c0.9-2.6,2-4.8,2.3-4.8
		s3-2.2,5.9-4.9c6.1-5.7,6.8-7.9,2.2-7.3c-2.1,0.3-2.9,0.9-2.5,1.9c0.3,0.8,0.1,1.2-0.4,0.9s-1.2-0.1-1.5,0.4s-1.1,1-1.6,1
		c-1.1,0-0.6-2.7,2.8-14c3.6-11.9,5.2-19.1,4.6-20.7c-0.9-2.2-3-1.5-3.7,1.2c-0.9,3.6-2.3,2.2-3.1-2.9c-0.5-3.4-0.2-5,1.4-7.7
		c2.5-4.1,2.8-8.4,0.6-7.5c-0.8,0.3-2.1,0.9-2.9,1.2c-1,0.4-1.6-0.6-2-3.2c-1.9-11.3-4.2-19.5-6.2-22c-3-3.8-3.9-2.4-2.5,3.9
		c3.7,16.9,5.2,26.1,4.7,27.5c-0.5,1.2-3-0.8-10.6-8.3c-5.5-5.4-10-10.4-10-11.1s-0.5-1.3-1.2-1.3c-1.7,0-7.8-4.9-7.8-6.3
		c0-0.7,1.1-2.5,2.4-4l2.3-2.8l5.4,2.8c8,4.2,8.9,4.5,8.9,3c0-1.3-10.1-8.6-12-8.6s-1.6-5.6,1.1-16.5c0.9-3.6,1.8-6.9,2.8-10
		c-1.9-1.5-3.9-2.9-5.9-4.2c0,0.1-0.1,0.2-0.1,0.3c-1.7,4.4-4.9,19.3-4.9,23.1c0,4.2-1.2,4.2-6.3-0.2c-2.2-1.9-4.5-3.5-5-3.5
		s0.5-1.2,2.2-2.6s3.1-3.2,3.1-3.8s0.9-2.1,2-3.1s2-2.5,2-3.3c0-1.5-0.9-1.5-11.3,0.3c-3.3,0.6-3.9,0.4-4.4-1.5
		c-0.9-3.3-6.3-2.4-6.3,1c0,1.3,1.4,2.6,4.4,3.9c3.5,1.6,4.3,2.3,3.9,3.9c-0.4,1.4-1.1,1.8-2.7,1.4l0,0c-1.2-0.3-4.2-0.9-6.7-1.2
		l-4.6-0.7l1.6-3.5c0.9-1.9,2.9-5.6,4.5-8.1l2.9-4.6l9.6-0.7c4.6-0.3,8-0.6,10.4-0.7c-0.5-0.3-1-0.6-1.5-0.8c-1.9-1-3.8-1.9-5.8-2.8
		c-0.7,0.1-1.5,0.1-2,0.2l0,0c-1.4,0.1-3.4,0-4.5-0.3l-2-0.6l1.1-2.3c-2-0.7-4-1.4-6-2.1c0,0.1,0.1,0.2,0.1,0.3
		c0.5,1.4-0.5,1.9-3.3,1.6c-1.5-0.2-2.8,3.3-1.4,3.7c1.7,0.6,1.3,2-1.8,6.5c-1.6,2.3-3.2,5.2-3.6,6.4c-0.4,1.2-1.1,2.2-1.6,2.2l0,0
		l0,0c-0.9,0-1-0.6-0.5-2.5c0.2-0.6,0.9-3,1.6-5.5c0.7-2.5,2.3-6.3,3.5-8.5c0.7-1.3,1.9-3.4,3.1-5.5c-1.6-0.5-3.1-0.9-4.7-1.3
		c-1.6,3.4-4,8.2-7.7,15.5c-0.7,1.5-1.3,3.3-1.3,4c0,1.8-5,1.5-10.9-0.7c-2.4-0.9-9.5-2.6-15.8-3.8c-7.8-1.5-11.3-2.6-11.3-3.5
		c0-2.4,3-11.8,4.3-13.4c0.7-0.9,3.6-1.8,7-2.2l5.8-0.6l-0.3,3.2c-0.2,2.4,0.2,3.3,1.5,3.6c1.1,0.2,1.8-0.2,1.8-1.1
		c0-0.7,1.3-3.8,2.9-7.1c-2.2-0.6-4.4-1.1-6.5-1.7c-3,0.7-8.7,0.7-9-0.3c-0.1-0.2,0.2-1,0.7-2.1c-2.3-0.7-4.5-1.4-6.7-2.2
		c-0.3,0.3-0.5,0.6-0.6,0.6c-0.5,0.2-1.9,1.4-3.2,2.7c-2.3,2.3-2.7,2.3-27.4,2.7l-25,0.4l-1.1-2.3c-0.6-1.3-2.3-2.6-3.8-3
		c-4.5-1.1-17.3-6.2-22.9-9c-4.8-2.5-8.4-2.7-8.4-0.4c0,0.6,1.2,1.3,2.7,1.7s3.9,1.8,5.2,3.1l2.5,2.4l-2.5-0.6
		c-1.4-0.3-4.1-0.8-6-1.1s-4.4-0.7-5.5-0.9s-3.6-0.4-5.5-0.5c-3.1-0.1-3.3-0.3-1.8-1.4c1-0.7,1.8-2.3,1.8-3.5c0-3-3-2.7-8.7,0.9
		c-4,2.5-5.7,3-11,3c-3.5,0-6.3,0.4-6.3,0.9c0,0.9,3.1,2.3,4.6,2c3.1-0.6,2.7,0.7-1.7,4.7l-5,4.7l-8.5-1.3c-7.8-1.2-8.5-1.4-8.5-3.5
		c0-3.6,2.2-4.6,9.5-4.4c3.9,0.1,7.1-0.3,7.8-0.9c1.8-1.8,0.3-2.3-7.1-2.3c-5,0-7.3-0.4-8.2-1.4c-1.6-1.9-2.9-1.9-5,0
		c-1.7,1.6-5.5,1.9-21.5,1.6c-5-0.1-10.1,0.1-11.5,0.4c-2.1,0.4-2.8,0-4.1-2.7c-3.6-7.1-4.9-10.8-5.5-15.1c-0.6-4.6-2.8-6.2-4-3
		c-0.9,2.2,1.3,12.4,3.7,17c1.1,2.1,1.8,4,1.6,4.2c-0.2,0.2-2.4,0.5-4.9,0.8c-4.5,0.5-4.7,0.3-9.2-4.7C3,34.4,1,31.7,1,31.3
		s-1.4-2.7-3-5.2c-1.7-2.4-3-5.3-3-6.3s-0.7-3.2-1.4-4.9l-1.4-3l-0.1,5c-0.1,5.9,2.4,12,6.2,15.6c1.4,1.3,2.6,2.8,2.6,3.2
		s1.2,2,2.6,3.6L6.2,42l-4.3,0.7c-8.6,1.5-6.7,4.1,2.5,3.4c4-0.3,5.5,0,8.1,2c3.9,3,4.9,3,3.4,0.3c-1.4-2.5-1.3-2.6,2.9-3.1
		c3-0.3,3.8,0.2,8.2,5.6c5,6.1,5.9,7.8,3.7,7c-0.7-0.2-4.9-0.7-9.2-1c-4.4-0.3-11.6-1-16-1.6C1.1,55-5.9,54.4-10,54.1
		c-4.1-0.2-8.9-0.8-10.5-1.2c-2.6-0.7-5.7-0.8-9.6-0.5c-0.6,0-0.9,0.6-0.7,1.3c0.8,2.5,10.7,3.9,44.3,6.3c3.9,0.3,8.1,0.7,9.5,0.9
		s3.7,0.4,5.2,0.5c1.5,0,2.8,0.5,2.8,1.1c0,0.5-1.2,0.8-2.8,0.5c-1.5-0.2-6.1-0.7-10.2-1S5.3,61-1,60.5s-16-1.2-21.5-1.5
		s-14-0.8-19-1.1c-21.1-1.4-91.6-2-94.7-0.8c-4.2,1.6-0.9,2.5,10,2.5c11.7,0,21.9,0.3,51.5,1.4c13.6,0.5,16,0.8,17.6,2.5
		c1,1,2.7,2.4,3.7,3c1.6,0.9,1.6,1.2,0.4,2.1c-1,0.6-1.7,0.6-2.1-0.1C-56,67-64.7,68.2-67.6,70c-1.4,0.9-2.4,1-3.1,0.3
		s-1.7-0.7-3.1,0.1c-1.1,0.6-3.3,1.1-4.7,1.1s-4.3,0.4-6.3,1c-9.3,2.5-19.8,5-20.4,5c-0.4,0-0.7-0.6-0.7-1.4c0-1.5-4.2-2.6-10.2-2.6
		c-3.5,0-3.9,0.2-3.6,2.2c0.2,1.2,1.4,2.8,2.8,3.5c2.1,1.1,0.8,1.2-9.4,0.7c-6.5-0.3-12.9-1-14.1-1.5c-2.6-1-7.4-7.3-10.3-13.5
		c-1.4-3.1-4.9-5.8-6.6-5.2c-3.3,1.3-0.8,7.7,5.7,14.5c4.3,4.5,4.5,5.1,1.8,5.1c-2.2,0-2.7,2.4-0.8,3.6c0.7,0.4,2.7,0.6,4.5,0.5
		s4.3,0.5,5.5,1.3c2.7,1.9,3.7,1.9,3.7,0.2c0-0.9,1.8-1.3,6.4-1.3l6.4,0.1l-2.1,2.2c-2.2,2.4-1.9,5.3,0.6,5.3c0.8,0,3.9-1.4,6.8-3.1
		c5.6-3.3,4.7-3.3,20.7-1.3c2.4,0.3,6.1,1.2,8.2,2.1s4.7,1.3,5.6,0.9c3-1.2-2.8-5.2-9.5-6.5c-8.2-1.6-8.2-1.6-3.9-2.4
		c2.4-0.5,4.3-0.3,5,0.3c1.5,1.5,3.7,1.3,3.7-0.4c0-0.9,2-1.8,5.8-2.6c3.2-0.7,7.1-1.5,8.8-2c1.6-0.4,3.7-0.8,4.5-0.7
		c0.8,0,4.1-0.5,7.3-1.2c3.4-0.7,7.9-0.9,10.8-0.6c3,0.4,4.9,0.3,4.9-0.3c0-1.8,2.9-2.1,6.7-0.8c9.2,3.2,18.5,2.6,13.8-0.9
		c-1.1-0.8-2.7-1.5-3.7-1.5s-3.8-0.9-6.3-2s-4.8-2-5.1-2c-1.3-0.1-7.7-3.1-7.3-3.5c0.6-0.6,8.5-0.7,19.8-0.1
		c5.2,0.3,14.7,0.7,21,1.1c6.3,0.3,14.7,1,18.5,1.5c6.4,0.9,12.9,1.6,24,2.5c2.2,0.2,4.5,0.4,5.1,0.4c1.5,0.1,5.9,4.2,6.7,6.3
		c0.6,1.5,0,1.7-4.1,1.8c-5.9,0.1-13.4,0.6-28.7,2c-6.6,1-12.7,1.5-13.5,1.5c-1.8,0-19.5,1.7-23,2.3c-1.4,0.2-2.8,0.4-3.2,0.5
		c-0.4,0-0.8,0.5-0.8,1.1s3.5,0.8,9.8,0.4c10.9-0.7,14.8-1,14.8-1.3c0-0.1,3.8-0.4,8.5-0.7c4.7-0.3,13.2-0.8,19-1.3
		c6.4-0.5,11-0.4,11.8,0.2s1.7,0.5,2.7-0.2c0.8-0.7,3.3-1,5.7-0.9c3.2,0.2,4.7,1,6.3,3.1c1.3,1.7,1.7,3.1,1.1,3.6
		c-0.5,0.5-7.9,1.2-16.4,1.5c-12.5,0.5-25.1,2-26.8,3.1c-0.2,0.1,0,0.9,0.3,1.8c0.5,1.3,1.9,1.5,7.8,1.2c26.5-1.5,34-1.6,34.8-0.3
		c0.7,1.1,1,1.1,1.7,0c0.6-1,1.1-1,1.6-0.2c0.5,0.9,1.1,0.9,2.2,0c0.8-0.7,4.8-1.4,8.9-1.7c4.7-0.3,7.9-1,8.6-1.9
		c2.3-2.8-0.6-3.7-10.5-3.5l-9.4,0.3l-1.1-3.2c-0.6-1.8-1.1-3.3-1.1-3.5s9.1-0.3,20.2-0.3c19.2,0,20.4,0.1,25.2,2.4
		c11,5.2,16.6,5.7,16.6,1.6c0-1.9-1.4-2.5-4.8-2.1c-0.7,0.1-2-0.2-2.9-0.7c-1.8-1,7.2-2,19.7-2.2c9.3-0.1,13.2-1,12.1-2.8
		c-0.6-1-3.9-1.3-12.9-1.3c-6.6,0-12.8,0.3-13.6,0.7c-0.9,0.3-1.6,0.2-1.6-0.2c0-1,5-2.8,13.4-5c5.4-1.4,6.4-1.3,10.5,0.1
		c2.5,0.9,5.8,1.9,7.3,2.2c1.5,0.3,2.8,0.9,2.8,1.4s0.9,0.9,1.9,0.9c1.1,0,2.2,0.5,2.6,1c0.7,1.2,4.5,1.4,4.5,0.2
		c0-1.5-3.5-3.7-9.5-6c-3.3-1.3-6.8-2.7-7.7-3.2s-2.4-0.9-3.1-0.9c-0.8,0-2.6-0.6-4.1-1.4l-2.7-1.4l2.4-1.3c1.3-0.7,2.6-1.2,2.9-1.2
		c0.3,0,1.6-0.4,2.9-0.9c1.3-0.5,2.9-0.7,3.5-0.5s4.8-0.2,9.4-0.9c7.8-1.2,8.6-1.2,12,0.6c4.4,2.4,6.6,2.5,5.8,0.4
		c-1-2.6,3.7-3.5,19.9-3.5h15.4l-3.4,5.7c-1.9,3.1-3.4,7-3.4,8.6c0,1.7-0.4,2.6-1,2.2c-0.5-0.3-1.5-0.3-2.2,0.1
		c-0.8,0.5-0.6,1.1,0.6,2c1.6,1.2,1.6,1.5-0.5,4.3c-1.3,1.7-2.6,3.1-2.9,3.1c-0.4,0-4-0.8-8.1-1.9c-9.6-2.4-18.9-3.6-18.9-2.3
		c0,1.2,2.4,2.2,5.3,2.2c1.2,0,3.5,0.4,5.2,0.9s5.9,1.7,9.3,2.7c3.5,1,6.1,2.2,5.9,2.8c-0.2,0.6-1.2,1-2.3,0.9
		c-1-0.1-5.5-0.5-9.9-0.8c-4.4-0.4-10.9-0.9-14.5-1.3c-8.5-0.9-23.7-0.8-24.6,0.1c-1.8,1.8,0.6,2.3,16.1,3.1
		c6.6,0.3,14.5,0.9,17.5,1.2c3,0.3,8.6,0.7,12.5,0.9c3.9,0.2,9,0.7,11.5,1.1s6.7,0.8,9.5,0.8s5.2,0.4,5.5,0.7s2.5,1,5,1.3
		s6.4,1.5,8.6,2.5c2.3,1,5.4,2.2,7,2.6s3.5,1.2,4.4,1.9c2.3,1.9,11.3,6.5,12.7,6.5c0.7,0,1.3,0.5,1.3,1s0.7,1,1.5,1s1.5,0.5,1.5,1
		s0.7,1,1.5,1s1.5,0.4,1.5,0.8s2.4,2.1,5.2,3.7c2.9,1.6,5.6,3.4,6,4.2c0.4,0.7,1.3,1.3,1.8,1.3s1.6,0.6,2.3,1.2
		c2.8,2.7,6.6,5.8,7.2,5.8c0.3,0,2.8,2.3,5.5,5.1c3.6,3.7,4.9,5.9,4.9,8c0,4.4-2.4,9.3-5.9,11.8l-3.1,2.2v-2.5c0-4-1.1-5.6-3.6-5.6
		c-2.1,0-2.4,0.5-2.4,3.9c0,2.4-0.8,4.9-2,6.4c-1.1,1.4-2,3.6-2,4.9c0,3.7-3.6,8.8-6.2,8.9c-2.2,0-2.2,0.1-0.4,1.5
		c1.4,1.1,1.6,1.8,0.8,2.7c-0.6,0.7-2.1,4.4-3.3,8.3c-2.9,9-4,10.3-6.6,7.6c-2.1-2.3-5.1-2.3-6.7,0c-0.6,0.8-4.3,2.5-8.2,3.7
		c-9.8,3-12.5,3.5-12.3,1.9c0.6-4.8-1.2-4.9-6.6-0.3c-2.2,1.9-4.3,3.5-4.7,3.5s-1.1,1.4-1.7,3c-0.7,2-1.7,3-3,3
		c-2.4,0-6.2,4.6-5.5,6.5s4.7,3.1,5.2,1.6c0.3-0.8,1.6-0.2,3.8,1.4c2.5,1.9,3.8,2.3,5.1,1.7c1.5-0.8,1.4-1.1-0.5-2.1
		c-3.2-1.7-2.9-5.9,0.6-6.7c1.5-0.4,4.1-1.5,5.8-2.4c5.3-3.1,21-7.9,27.3-8.3c4-0.3,4.1,0.8,0.7,7.4c-1.4,2.8-2.6,7.1-2.8,10
		c-0.3,4.5-0.6,5.2-3.7,7c-6.2,3.6-9.5,4.8-14.5,5.4c-2.7,0.3-8,1.1-11.7,1.8c-5.3,1-7.2,1-8.7,0c-2.4-1.5-5.8-1.5-13.1,0
		c-6.1,1.3-7.5,2.7-5.8,5.9c1.3,2.5,3.7,2.4,18.9-0.1c6.7-1.1,12.4-1.9,12.6-1.6c0.2,0.2-1.6,1.2-4.1,2.2c-2.5,0.9-4.5,2.1-4.5,2.6
		s-0.3,0.8-0.8,0.7c-0.7-0.2-7.6,2.1-13.8,4.7c-5.1,2.1-8.7,3.3-19.5,6.6c-5.8,1.7-11.6,3.5-13,4s-9.9,2.3-19,4.1
		c-15.5,3-17.9,3.2-40,3.3c-24.1,0.1-32.5-0.8-35.1-4c-2-2.5-1.9-2.5,21.6-4.3c7.1-0.6,14.3-1.3,16-1.7c1.6-0.4,3.2-0.7,3.5-0.8
		s3.5-0.5,7.2-0.9s7-1.2,7.3-1.7s1.6-0.9,3-0.9c1.3,0,2.7-0.5,3-1.1c0.4-0.6,1.3-0.8,2.2-0.5c0.8,0.3,3.3-0.4,5.4-1.6
		c3.3-1.9,3.9-2.6,3.7-5.2c-0.1-1.9-1.4-4.1-3.3-5.8c-2.9-2.7-3.2-2.8-11.5-2.2c-15.5,1-29.4,1.3-37.4,0.6l-7.9-0.7l-0.1-3
		c-0.1-1.7-0.5-4-0.9-5.2c-0.7-1.9-0.4-2.3,1.5-2.3c5.1-0.1,22.4-1.9,24.1-2.5c4-1.5,0-2.3-11.5-2.2c-6.7,0-14.7-0.1-17.7-0.2
		l-5.5-0.3l5-1c2.8-0.6,11.3-0.9,19-0.7s20.3,0.3,28,0.2c7.7,0,19.2-0.1,25.5-0.1c14.9-0.1,29-4,29-8c0-2.7-2.5-3.3-6.8-1.7
		c-2,0.8-5.5,1.9-7.7,2.4c-6,1.5-25.4,2.4-26.8,1.3c-0.7-0.5-3.1-1.3-5.5-1.7s-4.2-0.9-4-1.1s3.5-0.7,7.3-1
		c12.7-1.2,25.5-3.4,27.2-4.7c0.7-0.5,1.2-2.4,1.2-4.1c0-4.2-4-6.8-16.1-10.6c-12-3.7-22-5.8-38.9-8c-11.3-1.5-12.9-1.9-9.8-2.5
		c3.6-0.7,5.4-2.8,4.2-4.7c-0.7-1.1,25.9-0.3,37.6,1.1c4.1,0.5,9.9,0.9,12.9,1c5.1,0,7,0.5,6,1.5c-0.2,0.2-3.1,0.6-6.3,0.7
		c-5.7,0.3-7.9,1.2-5.4,2.1c0.7,0.3,3,0.3,5.2,0.2c10.2-0.7,24.9-0.4,25.9,0.5c0.6,0.6,0.8,1.1,0.6,1.1s-4.7,0.6-9.9,1.2
		c-8.9,1.1-12.5,2.8-8.2,3.9c2.9,0.7,23,0.3,27.1-0.7c7.8-1.8,9.3-5.2,3.8-8.6c-3.2-2-3.2-2-0.9-2.6c3.6-1,10.4-4.8,10.9-6.1
		c0.5-1.5-4.7-2.9-5.6-1.4c-1.7,2.8-10.8,5.4-19.6,5.8c-11.7,0.4-13.5,0-13.5-3.5c0-1.5-0.9-3.5-1.9-4.5
		c-2.9-2.6-26.9-8.5-49.6-12.3c-1.7-0.3-3.2-0.7-3.5-1c-0.8-0.8,14,0.4,19,1.6c12.5,2.9,22,4.1,37.2,4.6c14.3,0.5,16.8,0.3,16.8-0.9
		c0-2.8,2.9-3.2,11.9-1.6c4.9,0.9,9.2,1.9,9.6,2.3c0.4,0.4,1.7,0.7,3,0.7c1.2,0,3.9,0.7,5.9,1.5s4,1.3,4.5,1s1.4,0.1,2,0.9
		c1,1.2,0.7,2-1.4,4.2c-1.4,1.5-2.6,4-2.6,5.4c0,2-0.6,2.8-2.5,3.3c-1.4,0.4-2.3,1.1-1.9,1.7c0.7,1.2,4.3,0.8,13.4-1.7
		c5.1-1.4,7.1-1.5,9.6-0.6c4.1,1.5,5.5,1.4,5.5-0.1c0-0.7,1-1.9,2.2-2.6c6.3-3.9,11.7-8.6,10.7-9.5c-2.1-2.1-0.9-2.6,2-0.9
		c3.2,1.9,3.9,3.3,1.5,3.3c-2.2,0-1.9,2.7,0.4,3.3c3.9,1,6.7-3.3,4.4-6.9c-1.3-2-13.7-10.1-17.7-11.5c-3.4-1.2-3.9-1.2-4.8,0.2
		c-0.9,1.4-1.4,1.4-3.8,0.2c-1.5-0.8-4.9-1.6-7.4-1.8c-2.6-0.3-5-0.7-5.4-0.9s-3.4-0.7-6.7-1c-8.6-0.9-11.3-1.5-16-4
		c-2.3-1.2-7.4-3.3-11.3-4.6s-7-2.5-6.7-2.8c0.2-0.2,3.7,0.1,7.7,0.8s8.3,1.2,9.6,1.1s2.2,0.3,2.2,0.9c0,0.6,0.7,0.8,1.8,0.4
		c2.4-1,18.7-0.3,26.5,1.1c2.5,0.4,3.8,0.3,3.8-0.4c0-2.3-15.5-8.8-25.5-10.7c-2.2-0.4-4.7-0.9-5.5-1.1s-5.3-0.6-10-1
		c-5.3-0.4-9-1.2-9.9-2.1c-2.5-2.5-8.4-5.9-13.6-7.7c-2.8-1-6.4-2.4-8.2-3.2c-1.7-0.8-4.1-1.4-5.2-1.4c-1.1,0-2.3-0.3-2.5-0.8
		c-0.6-1,11.8-0.5,19.9,0.7c3.3,0.5,8,1.1,10.5,1.4s7,1.6,10,3s7.5,3,10,3.7s7.7,2.1,11.5,3.3c3.9,1.1,7.7,2.2,8.5,2.3
		c1.5,0.2,4,1,7.5,2.5c6.8,2.8,9.8,4,16.5,6c4.1,1.3,8,2.6,8.5,3s3.2,1.2,6,1.9s6.6,2.1,8.5,3.1c3.5,1.8,9.5,4,11.1,4
		c0.5,0,0.9-0.4,0.9-0.8c0-1.1-3.5-2.7-15.5-6.9c-5.5-1.9-11.8-4.3-14-5.4c-2.2-1-6.5-2.4-9.5-3s-6-1.5-6.5-1.9s-2.6-1.3-4.5-1.8
		c-6.9-2.1-17.3-6.1-18.3-7.1c-1.2-1.2,6.4-0.7,14.3,0.9c3,0.6,6.6,1.3,7.9,1.5c4.9,0.7,21.5,6.8,23.5,8.6c2.1,1.9,4.5,1.1,3.2-1.1
		c-1.2-2-8.1-5.8-12.6-7.1c-2.4-0.7-5.3-1.6-6.4-2.1c-1.9-0.8-10.8-2.8-21.7-4.9c-2.6-0.5-5.1-1.1-5.5-1.3c-0.4-0.3-3-0.6-5.8-0.7
		c-2.7-0.1-5.4-0.5-6-0.8c-1.1-0.6-0.9-0.6-8.9-1.6c-3.2-0.4-7-0.9-8.5-1.2c-1.5-0.3-4.4-0.6-6.6-0.8s-8-0.8-13-1.4
		s-14.6-1.1-21.5-1.2c-7.2-0.1-14.6-0.7-17.5-1.5c-2.8-0.8-6.9-1.9-9.3-2.4c-2.4-0.6-4-1.5-3.7-2s0.1-1-0.4-1s-1.3,0.5-1.7,1.1
		c-0.4,0.6-1.3,0.8-2,0.6c-1.8-0.7-17.5-2.9-19.9-2.8c-1.1,0-2.7-0.4-3.7-0.9s-1.8-0.6-1.8-0.1s-5,0.9-11.1,1
		c-8.1,0.1-11.4,0.4-12,1.4s-5,1.4-18.1,1.5c-13.5,0.1-18.1,0.5-21.1,1.8s-4.6,1.4-7,0.6c-6.6-2.3-32.4-3.8-45.4-3
		c-6.9,0.4-13,0.7-13.7,0.6c-1.7-0.3-31,3.7-35.2,4.8c-2,0.5-5.1,1.1-6.9,1.4s-3.8,0.9-4.5,1.4s-2.5,1.2-4.2,1.5
		c-9.6,1.8-13,3.4-14,6.4c-0.6,1.7-3.2,4.9-5.9,7.1l-4.9,4l-2.5-2c-3-2.3-4.2-1.7-1.8,0.9c2.5,2.7,2.1,3.7-2.1,5
		c-5.2,1.5-14.7,9-16.6,13c-0.9,1.8-1.6,4.5-1.6,6s-0.4,3.4-0.9,4.1c-0.8,1.2-1.3,1.2-3.5-0.3c-3.7-2.4-3.4-8.5,0.6-12.3
		c1.6-1.5,2.8-3.3,2.8-3.9c0-0.7,0.7-1.5,1.5-1.8s1.5-1.2,1.5-1.9s1.4-2.4,3.2-3.8c1.7-1.4,4.6-3.8,6.4-5.3c1.8-1.5,3.6-2.8,3.9-2.7
		c1.7,0.3,3.8-1.9,3.2-3.4c-0.6-1.6-4.2-2.3-4.9-0.9c-0.2,0.4-2.7,2-5.6,3.5c-6.9,3.5-11.6,6.1-12.2,6.8c-0.3,0.3-2.2,1.8-4.3,3.3
		c-7.3,5.4-9,7.6-10.1,12.6l-1.1,5l-6.4-5.8l-6.4-5.8l2.3-6.4c1.2-3.5,2.8-8.2,3.5-10.4c0.7-2.2,2-5.1,2.9-6.5
		c2.2-3.3,9.6-5.8,17.7-5.9c7.2-0.1,11.2-1.6,7.3-2.6c-1.2-0.3-2.2-1.1-2.2-1.6s-3.6-0.8-8.2-0.6c-5.9,0.2-8.3-0.1-8.6-1
		c-0.7-2.1-3-1.4-5.7,1.9c-3.6,4.3-6.4,10.4-9.5,21.1l-2.6,8.9l-9.2-9.5c-10.3-10.7-11.7-13.5-8.1-16.5l2.4-2h-3.2
		c-3.2,0-3.2-0.1-3.2-4.5c0-3.6,0.3-4.5,1.8-4.5c1,0,2.8-0.8,4-1.8c2.7-2.1,2.1-4.9-1.1-5.4c-2-0.3-1.7-0.8,2.5-4.9l-21.3,13.5
		c1.7,2.3,4,5.3,5.1,6.6c2.7,3.1,2.6,3.7-0.4,5.3c-4.7,2.5-12.5,10.9-13.6,14.9c-0.6,2.1-1.5,3.9-1.9,3.9c-1.9,0-5.2,4.2-5.7,7.3
		c-1.1,6.8,5.2,11.4,11.9,8.8c2.5-0.9,2.6-1.3,1.5-3.1c-0.7-1.1-2.3-2-3.5-2c-1.6,0-2.3-0.6-2.3-2c0-1.1,0.4-2,0.8-2
		s1.5-1.2,2.2-2.8c1.4-2.8,1.6-3.6,1.8-6.3c0.1-1.9,6.5-8.8,11.3-12.4l3.6-2.7l1.9,2.5c1,1.4,3.4,5.3,5.4,8.8
		c3.6,6.5,14.7,18.3,20.9,22.3c2,1.2,4.2,3,4.9,3.9s2.2,1.6,3.2,1.6s1.9,0.3,2.1,0.8c0.6,1.4,6.3,4.9,14,8.6c4.2,2,8,4.1,8.3,4.7
		c0.9,1.5-3.5,1.2-5-0.4c-1.8-1.8-8.5-3-9.7-1.8c-1.9,1.9,0.3,5,4.8,6.7c3,1.1,4.9,2.7,5.9,4.7c1.4,2.9,1.4,3-0.7,2.3
		c-1.2-0.4-4.6-1.3-7.6-2.2c-10.2-2.8-16.2-8.9-14.8-14.7c0.9-3.4-2-5.8-3.9-3.3c-3.4,4.6,2,14.9,9.1,17.3c2.2,0.7,5.9,2.2,8.2,3.3
		s4.7,2,5.2,2s2.1,0.5,3.5,1.2c2,0.9,2.3,1.4,1.4,2.6c-0.9,1.1-0.9,1.6,0.3,2.4c2,1.4,0.5,0.8-7.3-2.9c-8.8-4.2-14.3-5.5-15.8-3.7
		c-0.6,0.7-0.9,1.7-0.6,2.2c0.3,0.5,5.4,2.6,11.3,4.7c12.1,4.3,12.2,4.3,10.5,5.4c-1.9,1.2-0.3,8.8,2.4,11.8
		c3,3.2,12.8,6.1,14.9,4.4c1.9-1.6,1-3.7-2-4.5c-1.4-0.4-2.4-1.3-2.4-2.4c0-1-0.5-2.3-1.2-3c-1.7-1.7-4.8-1.5-4.8,0.3s-2,2-2.1,0.2
		c0-0.7-0.3-2.3-0.5-3.5c-0.4-2.3,1.8-3.3,3-1.3c0.7,1.2,12.4,5.1,16.7,5.6c1.8,0.2,3.7,0.9,4.2,1.4s1.7,1,2.4,1
		c1.5,0,22,9.5,29.9,13.9c1,0.6,4.5,2.2,7.8,3.7s9.2,4.2,13.1,6c3.9,1.9,7.6,3.4,8.2,3.4c0.6,0,1.2,0.4,1.2,1c0,0.5,0.5,1,1.1,1
		s2.4,0.9,4,2.1c3.1,2.2,6.4,2.3,6.4,0.1c0-0.7-1.8-2.3-4-3.5c-5.3-2.9-5.6-3.6-3.3-5.9c2.9-2.9,2-5.3-2.1-5.6
		c-3.1-0.3-9.8-4.1-13.2-7.5c-0.7-0.7-4.5-3.5-8.3-6.2s-8.6-6.4-10.5-8.4L-88,188l5.9,0.7c3.3,0.4,6.1,0.9,6.3,1.1
		c0.2,0.2-0.1,1.2-0.6,2.3c-1.5,2.8,3.5,8.5,9,10.3c2.6,0.9,4.8,2.4,5.8,4c0.8,1.4,2.9,3.2,4.6,3.9c4.4,1.8,22.8,6,23.7,5.5
		c0.4-0.3,2.7,0,5.1,0.6C-18,219.3-7.3,221.7-5,222c1.4,0.2,3.6,0.7,5,1.3s4.3,1.4,6.5,1.8c12.4,2.6-17.5,0.1-36-3
		c-5.8-1-12.3-2.5-14.9-3.5c-1.6-0.6-3.3-0.8-3.7-0.3c-1.5,1.5,2.9,5.3,7.3,6.2c2.4,0.5,6.8,1.4,9.8,2c7.6,1.6,13.1,2.3,33.5,4
		c12,1,16.5,0.7,16.5-1.2c0-1,9.7-0.6,17,0.6c3.3,0.6,8.6,1.3,15.5,2.1c1.7,0.2,7.8,0.7,13.7,1.1c5.9,0.4,10.5,1,10.3,1.5
		c-0.8,1.3-13.6,4.8-23.5,6.3c-5.2,0.8-13.9,1.5-19.3,1.5s-10.1,0.2-10.4,0.6s-1.1,0.2-1.7-0.4c-0.6-0.5-5-1-9.8-1.1
		s-10.9-0.5-13.5-0.9s-8.6-1.3-13.3-1.9c-10.8-1.5-29.7-5.6-37.6-8.1c-3.3-1.1-6.9-2.2-8-2.4c-2.6-0.6-12.5-3.9-26.4-8.7
		c-13.3-4.6-20.6-7.9-27.4-12.5c-5.5-3.7-5.6-3.8-5.6-1.8c0,0.8,1.3,2.2,3,3.2c1.6,1,3,2.1,3,2.5s0.7,0.5,1.5,0.2s1.5-0.1,1.5,0.5
		c0,1.6,15.7,8.7,22.5,10.2c3.3,0.7,6.7,1.9,7.5,2.6c0.8,0.7,4.2,2,7.4,2.8s6.4,2,7,2.7c0.8,0.8,0.5,1-0.9,0.6
		c-1.1-0.3-6.5-0.8-12-1.1c-14-0.8-25.6-3.3-45.5-9.7c-21.7-7-34.8-15.6-41.5-27.3c-2.8-4.9-4.2-6.5-5.7-6.5c-1.4,0-0.8,2.9,1.9,8.5
		c2.4,5,13,16.5,15.3,16.5c0.4,0,0.6,1.1,0.3,2.4c-0.3,1.8,0.2,2.9,2.3,4.2c1.5,1,4.3,3.3,6.2,5.1s3.9,3.2,4.3,3.2s0.9,0.4,0.9,0.9
		c0,0.7,7,6,12.9,9.6c7,4.4,20.4,11.5,21.6,11.5c0.8,0,1.5,0.4,1.5,0.9s1.4,1.2,3,1.6c1.6,0.4,3,1,3,1.5c0,1,7.9,2.5,8.7,1.6
		c0.8-0.8-2.7-4.6-5.2-5.7c-1.1-0.5-2.7-1.3-3.5-1.8s-6.5-3.3-12.5-6.2c-10.3-5-20.1-10.8-24.9-15c-1.1-1-3.2-2.7-4.5-3.9
		c-1.4-1.2-3.9-3-5.8-4.1c-4.5-2.8-4.2-3.4,0.5-1c6.9,3.6,16.5,7.3,18.9,7.3c1.3,0,2.6,0.4,2.9,0.9s1.7,0.9,3,0.9s3.5,0.6,4.7,1.4
		s4,1.7,6.2,2c7,1,11,1.8,12,2.6c1.8,1.4,12.4,2.3,13.8,1.1c0.8-0.7,1.8-0.7,2.7-0.1c2,1.2,16.3,1.2,17.6,0c0.7-0.7,3.4-0.3,8,1
		c7.2,2.1,19.6,4.9,32.5,7.4c7.4,1.4,15.3,2.3,28,3c3.6,0.2,7.4,0.6,8.5,0.9c2,0.5,12.1,0.7,27.8,0.7c17.3-0.1,33.1-3.6,40.9-9.1
		c2.1-1.5,3.8-1.9,5.6-1.5c1.4,0.4,6.9,0.8,12.1,1.1c8.7,0.4,9.7,0.6,11.9,3c1.7,1.8,3.1,2.5,4.6,2.1c1.2-0.3,5.1-0.6,8.7-0.7
		c11-0.2,10.8-0.3,10.2,2.5c-0.3,1.4-1.2,2.5-2.1,2.6c-1.7,0.1-2.7,0.3-7.1,1.5c-5.9,1.6-25.2,4.1-38.1,5c-5.2,0.4-10.1,0.8-10.9,1
		s-2.2,0-3-0.5s-1.9-0.6-2.5-0.1c-3.1,2.4-82.3,4.8-95.3,2.8c-2.3-0.4-4.2-0.3-4.2,0.1c0,0.4-2.8,0.6-6.3,0.3
		c-4.7-0.3-6.6,0-7.5,1.1c-0.9,1.1-2.1,1.3-5,0.7c-3.7-0.8-9.9-1.3-13.7-1c-3.9,0.3,1.4,3,5.9,3c2.3,0,4.8,0.2,5.6,0.4
		c0.8,0.2,3.3,0.8,5.5,1.3l4,0.9l-5,0.6c-9.8,1.2-24.7,0.4-28.8-1.5c-3.6-1.7-3.7-2-3.7-6.7c0-2.7,0.4-5.8,1-6.8
		c1.5-2.8-2.6-3.9-5-1.3c-4.3,4.6-5.1,9.3-2.5,14.3c0.8,1.6,1.3,3,1.1,3c-0.6,0-9.6-4.8-11-5.9c-0.6-0.5-4.2-2.5-7.9-4.5
		c-10.5-5.7-14.1-7.8-15.2-8.6c-3-2.4-21.7-11-23.9-11c-4.8,0-2.6,1.9,8.2,7.1c5.9,2.9,10.2,5.4,9.5,5.6c-2.2,0.8-1.3,2.7,3.5,7.7
		c2.6,2.7,4.1,4.5,3.2,4c-3.7-2.1-19.6-12.9-20.5-13.9c-0.6-0.6-3-2.6-5.5-4.4c-6.1-4.4-13.8-12-21.3-20.8c-3.4-4.1-7-7.4-8-7.4
		c-2.5,0-2.2,2.2,0.7,5.4c1.3,1.5,2.4,2.7,2.2,2.7c-0.1,0-1.2,0.2-2.4,0.3c-2.3,0.3-2.3,0.3-3.7-9.8c-0.6-4.7-2.1-6.6-4.6-5.9
		c-1.8,0.5-1.9,1.3-1.6,8.6c0.4,8.6,0.9,10.2,5.4,18c3.1,5.3,8.4,8.8,10.4,6.8c0.8-0.8,0.4-1.8-1.6-3.6c-1.5-1.4-2.7-2.6-2.7-2.8
		s1.8-0.2,4,0.1c2.9,0.3,4,0,4-1c0-0.9,0.6-0.7,1.8,0.6c0.9,1.1,3.3,3.2,5.2,4.7s5.3,4.3,7.5,6.3s5.2,4.4,6.8,5.3
		c1.5,0.9,2.8,2,2.8,2.4s0.6,0.8,1.4,0.8s1.6,0.4,1.8,0.8c0.5,1.2,12.5,9.2,13.8,9.2c0.6,0,1.1,0.4,1.1,0.9c0,1.5-28.2,0.2-30.8-1.5
		c-3.1-2.1-3.2-7.1,0-7c1.5,0.1,2.7-0.9,3.6-2.7c1.9-3.8,0.9-6.1-2.3-5.3c-1.4,0.4-2.5,0.2-2.5-0.4c0-0.6,0.5-1,1-1
		c1.3,0,1.3-2.7-0.1-3.5c-2.5-1.6-5.7,0.6-7.7,5.3c-1.1,2.6-2.2,5.6-2.4,6.7c-0.3,1.6-2.3,0.4-11.9-7.4
		c-6.3-5.1-13.2-10.1-15.2-11.2c-2.1-1.1-3.8-2.6-3.8-3.4c0-1.9-3.6-8.5-6.1-11c-1.7-1.7-2.2-1.8-4-0.7c-1.9,1.2-2.4,0.9-5.7-2.9
		c-4.6-5.3-5.6-7-3.9-6.5c0.7,0.2,2.4,0.6,3.8,0.9c1.4,0.3,4.3,2.2,6.5,4.2s5.9,4.7,8.2,6.1c3.5,2,4.6,2.3,6.3,1.3
		c3.1-1.6,2.1-3.1-4.2-6.3c-4-2-6-3.8-7.2-6.4c-0.9-2-1.6-3.7-1.4-3.8c0.2-0.1,2.5-1,5.1-2c5.8-2.1,5-3.5-2.1-3.8
		c-5.8-0.2-9.3,2-9.3,5.9c0,2.9-1.2,2.9-7,0.1c-4.3-2.1-9.5-8.1-8.5-9.7c0.3-0.4,2.2-0.6,4.3-0.3c3.7,0.5,10.1-1.7,10.2-3.5
		c0-0.4,0.7-1.6,1.5-2.6c1.4-1.9,1.5-1.8,5.2,0.6c2.1,1.4,4.8,2.8,6,3.2c4.2,1.3,2.3-1.2-3.8-5c-9.1-5.8-16-15.7-13.1-18.7
		c1.9-1.9,1.3-3.7-1.3-3.7c-5.9,0-5.9,6.8,0,14.5l3.6,4.7l-2,2.7c-1.4,1.9-3.1,2.7-5.7,3c-3.2,0.3-4.2-0.2-7.4-3.5
		c-2.4-2.5-4.3-5.9-5.6-9.8c-1-3.3-2.3-6.9-2.9-8c-1.5-2.9-3.7-11.6-3.7-14.7c0-1.8-0.8-3.1-2.3-3.9c-1.2-0.6-2.6-1.8-3-2.5
		c-1-1.7-3.7-1.8-3.7-0.1c0,0.7,0.4,4.1,0.9,7.7c0.9,6.4,0.3,20-0.9,18.3c-1.2-1.8-4.6-2.9-7.1-2.3c-5.1,1.3-6.5,8.9-2.7,15.5
		c2,3.5,2.7,4,5.7,3.9c1.9,0,4.1-0.3,4.9-0.5c1-0.3,2.1,1.7,3.7,6.9c2.8,8.9,4.8,11.5,8.5,10.8c2-0.4,2.9,0,3.7,1.7
		c0.6,1.2,2.1,3.7,3.3,5.6l2.3,3.4l-2.9-0.7c-4.1-1-6.2-3.2-4.7-4.8c2-2,1.4-2.8-2.2-2.8c-2.7,0-3.6,0.5-4.1,2.2s0,2.7,2.2,4.5
		c3.7,3,3.2,2.9-5.1-0.6c-3.8-1.6-8.7-4.6-10.9-6.6l-4-3.7l2.4-1.3c2.7-1.4,1.8-2.4-3.5-3.6c-2.2-0.5-3.9-0.3-5.1,0.5
		c-1.6,1.2-1.4,1.7,2.8,5.9c2.5,2.5,4.3,4.8,4.1,5.1c-1.5,1.5-4.3,0.2-5.8-2.7c-0.7-1.4-2-3.5-3.4-5.5c0.1,4.2,0.1,8.4-0.2,12.5
		c0.6,1.1,1.1,2.2,1.7,3.3c1.5,3,3.1,5.7,3.5,6s2.3,3.9,4.2,8c2,4.1,5.6,11.9,8.2,17.3c4.7,9.9,5,11.9,1.7,11.1
		c-2.9-0.8-4.7,2.2-3.5,6c0.9,2.9,0.7,3.5-1.4,5c-1.3,1-3.1,1.5-3.9,1.2c-1.4-0.5-12.9,1.5-16.8,3c-0.6,0.2-1,0.4-1.2,0.4
		c-0.2,2.2-0.4,4.4-0.5,6.7c1.7-0.8,3.3-1.6,4.1-2c2.9-1.5,7.3-2.7,11.2-3.1l2.7-0.3l-2.7,4.1c-1.5,2.3-4.7,6.8-7.2,10.1
		c-2.5,3.3-6.5,9-9,12.8c-0.3,0.5-0.6,0.9-0.9,1.4c-0.6,7.1-1.3,14.2-2.2,21.4c0,0.4,0,0.8-0.1,1.2c0.9,1.4,2,3.2,3.1,5
		c3.5,5.4,5.9,8.2,8.5,9.4c2.3,1.1,3.6,2.4,3.6,3.7c0,1.2,0.5,1.8,1.3,1.5c0.7-0.3,2.6,0.5,4.2,1.8c1.7,1.2,5.8,3.7,9.2,5.5
		s6.6,4.3,7.2,5.6c0.7,1.5,1.6,2.1,2.6,1.8c0.8-0.3,2.8-0.1,4.4,0.4c3.3,1.1,13.5,8.2,12.8,8.9c-1.1,1.1-23.1-6.9-25.7-9.3
		c-1-0.9-2.5-1.4-3.4-1.1c-3.8,1.5,4.5,7.4,14.7,10.6c3.4,1,5.2,3,2.8,3c-0.5,0-1.2,0.9-1.6,2c-0.6,2,2,7,3.6,7
		c0.5,0,1.8,0.8,2.9,1.9c2.2,2.1,12.2,5.5,14.1,4.9c0.7-0.2-1.8-1.9-5.5-3.7c-6.8-3.3-10-6.7-7.7-8.1c1-0.6,20.1-0.3,20.7,0.3
		c0.1,0.1,0,1.2-0.3,2.4c-0.5,2.1-0.7,2.1-4.1,0.7c-4.4-1.8-7.3-1.9-7.3-0.1c0,2.3,12.8,7.6,18.3,7.6c4.6,0,2,1.9-3.9,2.9
		c-13.8,2.4-27.8,8-27.2,10.8c0.5,2.6,4.3,2.7,9.8,0.4c4.7-2,12.1-4.3,20.8-6.3c5.9-1.4,10.3,0.6,17.5,7.6c3.1,3.1,5.7,5.8,5.7,6
		s-1.9,0.6-4.1,1c-5,0.8-8.1,2.4-7.3,3.6c0.9,1.4,6.6,1.1,11.8-0.6c4.3-1.5,4.8-1.5,6.3,0.1c0.9,0.9,2.7,2.4,4.1,3.2
		c1.7,1.1,2.1,1.9,1.4,2.6c-2.1,2.1-0.9,2.7,4.5,2.2c4.4-0.4,5.9-0.1,7.3,1.3c1,1,2.7,2.4,3.9,3.3c2.1,1.4,1.5,1.6-9.6,3
		c-12.9,1.6-16.1,1.3-19.4-1.5c-2.1-1.8-2.1-1.9-0.3-2.9c5.1-2.8,3.5-5.1-2.9-4.2c-5.5,0.8-6.4,2.6-3.7,7l2.1,3.3l-3.8,0.6
		c-12.4,2-16,2.4-18.2,2.2c-3.4-0.3-3.8,2-0.6,3.5c2,0.9,5.2,0.9,14.5-0.1c13-1.4,13.1-1.4,24,3.6c19.1,8.7,23.8,11.7,21.9,13.9
		c-0.6,0.8-1.6,1.4-2.1,1.4c-2,0-22.7,10.5-30.1,15.2c-8.3,5.3-10.4,7.7-8.5,9.6c2.9,2.9,12.2-0.8,13.3-5.3c0.4-1.4,2.9-3.6,6.9-6
		c3.5-2,6.5-4.1,6.7-4.6s1.8-1.1,3.6-1.5c1.8-0.3,5.6-1.7,8.5-3.1c6.5-3.1,8.2-2.7,6.1,1.5c-1.2,2.4-1.3,3.4-0.3,4.6
		c1.5,1.8,2.7,1.8,6,0.2c2.3-1.2,2.6-1,4.4,2.5c1.7,3.4,2.2,3.8,5.8,3.8c5.7,0,10.9-2.4,10.9-5.1c0-2-0.3-2.1-5.5-1.5
		c-5.1,0.6-5.5,0.5-5.5-1.3c0-3-1.1-5.2-2.6-5.2c-0.8,0-1.4-0.4-1.4-0.9s-1.4-1.2-3-1.6c-1.7-0.4-3-1-3-1.3c0-0.9,12.2-7.2,14.1-7.2
		c0.8,0,3.3-0.9,5.5-2c3.3-1.7,4.4-1.8,6.7-0.9c3.2,1.3,3.1,0.9,1.3,4.5c-2.7,5.2-1.3,8.5,3.2,7.7c1.2-0.2,2.2,0,2.2,0.5
		c0,1.1,5.9,2.3,7.2,1.5c0.6-0.3,0.5-1.2-0.3-2c-1-1.2-0.8-1.8,1-3c1.2-0.8,3.1-2.5,4.2-3.7c3.3-3.6,0-4.3-6-1.2
		c-2.8,1.4-5,2.2-5,1.8c0-0.4,1.6-2.5,3.4-4.6c3.1-3.6,3.8-3.9,10.1-4.3l6.8-0.5l-2.5,3.3c-3.4,4.5-5.8,9.3-5.8,11.7
		c0,2.7,2.5,4.5,5.4,3.8c3.1-0.8,5.4-3,14.3-13.2l7-8.1l3.1,3.4c1.9,2.1,4.1,3.4,5.6,3.4c1.3,0,2.6,0.6,2.9,1.2c0.3,1,0.7,1,1.9,0
		c0.8-0.7,1.8-1,2.1-0.6c0.8,0.8,13.7-2.9,13.7-3.9c0-0.4,0.8-0.8,1.8-0.8s3.5-0.9,5.6-2c4.1-2.2,6.6-1.5,6.7,1.9
		c0.1,2.7,3.6,6.1,7.1,6.8c2.8,0.6,3,0.8,1.3,1.4c-1.1,0.4-2.4,0.3-2.9-0.2c-1.4-1.3-6.4-1.1-12.6,0.6c-3,0.8-12,2-20,2.6
		c-15.4,1.2-19.8,2.7-14.7,4.9c3.2,1.5,13.1,0.4,14.8-1.6c0.9-1.1,1.7-1.2,3.1-0.4c1.1,0.6,3.4,1,5.1,0.9c5.5-0.3,6.3,0,7.5,2.4
		c1.4,3.1-0.1,3.8-5.4,2.6c-4.4-1-4.7-0.9-3.8,1.3c0.8,2.2,2.9,2.8,10.4,3.3c8.5,0.5,9,0.7,19,5c9.9,4.3,22.3,8.5,25,8.5
		c1,0,2.2,0.5,2.5,1c0.3,0.6,1,0.8,1.6,0.4c0.5-0.3,0.9-0.2,0.9,0.3s2.3,1.5,5.1,2.2c3.4,0.9,4.9,1.7,4.6,2.6
		c-0.3,0.7,0.3,2,1.2,2.9c1.5,1.4,2.3,1.4,6.2,0.2c4.8-1.4,5.3-1.4,11.5,0.2c2.2,0.6,6.1,1.3,8.8,1.7c3.9,0.5,4.8,0.3,4.8-1
		c0-1-0.9-1.5-2.5-1.5c-1.4,0-3.3-0.4-4.2-0.9c-1-0.5-3.1-1.2-4.7-1.6c-2.7-0.6-2.4-0.8,4-2.6c14-3.9,39.9-9.9,42.5-9.9
		c5.1,0,12.3-4,10.5-5.8c-1.7-1.7-14.6-0.2-23.6,2.7c-10.7,3.4-13,4.1-25,7.1c-4.7,1.2-11.1,3-14.2,4l-5.7,1.8l-9.1-2.9
		c-5-1.6-9.7-2.9-10.5-2.9c-1.4,0-17.6-6.2-26.9-10.3c-3.9-1.7-4.5-2.3-3-2.8c1-0.4,3.2-0.8,4.9-0.8s3.9-0.7,5-1.5
		c1-0.8,2.4-1.2,3-1s3.2-0.6,5.8-1.9s6.7-2.5,9.1-2.6c2.5-0.1,5.7-0.9,7.3-1.7s3.7-1.5,4.9-1.5s2.8-0.8,3.8-1.8
		c0.9-1,4.6-2.7,8.2-3.7c3.6-1,6.5-2.2,6.5-2.7c0-1.3,2.7-3.7,4.2-3.7c0.7,0,2.3-0.7,3.5-1.5s3.9-1.4,6-1.3s5.4-0.2,7.2-0.6
		c3.2-0.8,3.3-0.7,2.2,1.3c-0.6,1.2-1.8,2.1-2.6,2.1s-2.4,0.9-3.4,2c-1.6,1.6-1.8,2.5-1,4.6c0.6,1.5,0.9,2.8,0.7,2.9
		c-0.2,0.1-3.5,0.9-7.5,1.7c-6.1,1.2-7.2,1.3-7.2,0.1c0-0.8,0.5-1.4,1-1.4c1.5,0,1.2-2.7-0.4-3.3c-1.4-0.5-8.5,3.7-9.8,5.9
		c-0.4,0.7-3.5,1.5-6.8,1.9c-3.7,0.4-6.3,1.2-6.6,2.1c-0.7,1.8,2.4,6.5,4.3,6.5c0.8,0,1.1,0.5,0.8,1.1c-0.4,0.6-1.9,0.8-3.5,0.4
		c-3.5-0.8-4.8,1-2.6,3.4c0.9,1,1.6,2.7,1.6,3.9c0,1.2,0.5,2.4,1.1,2.8c1.7,1.1,6.8,0.7,8.4-0.6c0.8-0.7,6.5-1.3,14-1.5
		c11.8-0.4,16.2-1.4,14.9-3.5c-0.3-0.4-4.6-0.8-9.6-0.7c-6.6,0.1-9.3-0.3-9.9-1.3c-0.7-1.1-1.5-1.1-4.9,0c-2.2,0.7-4.4,1.1-4.7,0.7
		c-0.9-0.9,5.5-6.6,8-7.2c1.2-0.2,5.9-1.3,10.6-2.4c7.8-1.8,8.6-1.9,10.2-0.4c1,0.9,1.8,2.2,1.8,2.9c0,2,5.9,6.4,8.7,6.4
		c3.1,0,9.3-6.4,9.3-9.5c0-4,2.2-5.6,8.5-6.2c3.3-0.3,7-0.9,8.3-1.4c2.6-1,2.4-3.5-0.2-3.1c-2.8,0.5-1.8-1.5,1.1-2.2
		c4.4-1.1,17.1-7.6,17.6-9.1c0.3-0.8-0.2-1.8-1.2-2.4c-0.9-0.5-1.5-1-1.2-1.1s7.9-0.3,16.9-0.6c11.8-0.4,16.2-0.2,15.7,0.6
		c-0.4,0.6-1.7,1.1-2.9,1.1c-3.3,0-20.9,4.5-23.7,6.1c-5.8,3.3-8.4,8.2-6.2,11.5c1,1.6,7.1,2.7,8.5,1.6c0.7-0.5,3-1.5,5.2-2.2
		c4.8-1.5,13.8-5.4,18-7.7c10.4-5.7,13.1-6.4,9.8-2.6c-1.7,1.9-4.8,3.3-18.8,8.3c-3.3,1.2-7.5,3.4-9.3,5c-3,2.6-3.2,3-2,4.9
		c1.8,2.8,3,2.7,6.2-0.9c2.5-2.8,6.7-4.1,6.7-2.1c0,1-8.7,10-13.5,14c-4.6,3.8-12.8,9-14.2,9c-1.4,0-10.3,6.1-10.3,7
		c0,0.4,0.9,1.5,2,2.4c1.9,1.7,2.1,1.7,5.2-0.9c1.8-1.5,6.7-4.8,10.8-7.5c4.1-2.6,10.8-7.5,14.8-10.9c6.8-5.7,7.5-6,10.2-5.1
		c5.1,1.8,15.8,0.2,22.7-3.3c3.1-1.6,5.3-6.8,5.3-12.4c0-3.7,0.3-4.5,1.2-3.6c0.7,0.7,1.9,1.2,2.8,1.2c0.9,0,4.3,3.8,7.5,8.5
		c1,1.4,1.9,2.7,2.7,3.9c1-0.8,1.9-1.5,2.9-2.3c-3.4-4.9-6.9-10.2-7.8-12c-0.4-0.8,0.1-1.8,1-2.3s1.7-1.9,1.7-3
		c0-1.7-0.2-1.9-1.5-0.8c-1.1,0.9-1.5,0.9-1.5,0.1c0-0.6,0.7-1.4,1.7-1.8c0.9-0.4,4.4-3.3,7.7-6.5c5.1-4.9,6.5-5.8,8.6-5.3
		c1.4,0.3,2.7,0.8,2.9,1s-2.8,3.4-6.6,7.2c-6.8,6.7-10.7,12.4-10,14.5c0.6,1.9,5.1,1.6,8-0.4c2.4-1.7,2.9-1.8,4.2-0.4
		c0.5,0.5,0.9,1.1,1.2,1.7c1.3-1.1,2.6-2.3,3.8-3.4c-2-3.1-3.8-6.2-4.1-7c-0.5-1.3,7.9-10.6,9.5-10.6c0.3,0,1.1,0.8,1.7,1.8
		c0.6,1,2,3.3,3.2,5.3l0.4,0.7c0.9-0.9,1.8-1.7,2.8-2.6l-0.1-0.1c-1.9-3.1-2.3-5-1.2-5c1,0,3.3,0.7,5.2,1.4c0.8-0.7,1.6-1.5,2.4-2.2
		c-0.4-0.1-0.8-0.1-1.3-0.2l0,0c-3.8-0.6-6.9-1.5-6.8-1.8c0-0.4,1-1.5,2.1-2.5c1.9-1.8,2.2-1.8,8.9,0.3c0.4,0.1,0.9,0.3,1.3,0.4
		c1-0.9,2-1.8,3-2.8l-6.2-1.9l4-3.3c2.2-1.8,4.6-3.3,5.4-3.3c0.8,0,2.9-0.9,4.7-2s3.8-2,4.5-2c1.2,0,3.9-1.6,6-3.1
		c0.3-0.2,0.5-0.4,0.8-0.6c1.3-1,2.1-2,1.9-2.3c-1.7-2.8-11.1,0.9-24.8,9.7c-6.1,3.9-11.7,5.7-11.7,3.6c0-1.2,3.5-3.9,8-6.2
		c3.1-1.6,3.9-2.5,3.5-3.9c-0.5-1.5,0.1-2,3.5-2.5c5-0.8,7.3-4.1,4.5-6.2c-2.1-1.6-3.4-1.7-3.4-0.4c0,1.2-6.4,3.3-9.1,2.9
		c-1.8-0.3-1.6-0.6,1.2-1.9c1.8-0.9,5-2.2,7.2-2.8c3.5-1.1,4-1.1,5.8,0.9c1.1,1.2,2.3,2.1,2.7,2.1c3.2,0,20.1-3.6,25.7-5.4
		c3-1,7.5-2.4,11.2-3.6c4.2-2,8.5-3.7,12.9-5.1c0.8-0.5,1.3-0.7,1.7-0.5c1.7-0.5,3.4-1,5.1-1.4c-0.6-0.8-1.2-1.5-1.7-2.3
		c-4.9-7.4-8.5-8.9-6.7-2.8l0.8,2.8l-7.6,0.5c-4.2,0.3-7.8,0.3-8.1,0.1c-0.2-0.2,0.3-1.7,1.2-3.3c2.3-3.9,2.2-4.4-1.3-3.7
		c-2.9,0.6-4,1.3-8.1,4.9c-1.1,1-2.6,1.8-3.5,1.8s-2.9,0.7-4.6,1.6s-3.6,1.3-4.2,1.1c-0.7-0.3-0.6-0.5,0.4-0.6c1.3-0.1,8-9.5,8-11.4
		c0-1,2.9-3.8,6.8-6.6c3.5-2.5,3.8-2.5,9.1,2.6c3.7,3.5,9.6,3.1,13.8-0.9c1.8-1.8,3.3-3.8,3.3-4.6c0-1.2,0.3-1.2,1.5-0.2
		c0.8,0.7,1.5,1.7,1.5,2.2s1.3,2.7,3,4.7c3.7,4.7,12,8.5,16.4,7.6c4.7-1,6.5-1,13.4-0.2c0.2,0,0.3,0,0.4,0.1c0-3.1,0.1-6.3,0.2-9.4
		c-0.3-0.3-0.6-0.6-0.9-0.9c-3.6-3.5-6.5-6.7-6.5-7s2.8-1.2,6.2-1.8c0.6-0.1,1.1-0.2,1.5-0.3c0.2-4.2,0.3-8.4,0.3-12.6
		C329.2,340,322,330.2,322,328.8z M356.7,229.5c-0.7,0-2.4,1.4-3.8,3.1c-2.1,2.6-2.7,2.9-3.7,1.7c-0.9-1.1-0.6-1.8,1.8-3.1
		c1.6-1,3.5-2.7,4.1-3.8c0.9-1.7,1.3-1.8,2-0.7C358.3,228.6,358.2,229.5,356.7,229.5z M346.6,222c1.9-2.8,4.5-7,5.6-9.5l2.1-4.5
		l0.7,4.5c0.4,2.5,1,6.3,1.4,8.5c0.6,3.3,0.6,3.8-0.5,2.7c-2.2-2-4.3-1.4-8,2.2c-1.9,1.9-3.8,3.5-4.2,3.5l0,0
		C342.1,229.6,343.2,226.8,346.6,222z M338,252.5c0.6,0,0.8,0.5,0.4,1c-0.3,0.5-0.8,1-1.1,1c-0.2,0-0.4-0.5-0.4-1
		S337.4,252.5,338,252.5z M339.1,196c2.4-4.7,2.7-5,3.3-4.3c0.6,0.6-3.2,8.5-4.5,9.3l0,0C336.5,202,336.8,200.5,339.1,196z
		 M130.7,43.2c0.5-0.3,1.5,0.1,2.2,0.9c0.7,0.8,0.8,1.5,0.4,1.5C131.6,45.5,129.7,43.8,130.7,43.2z M35.5,63.9
		c-0.8-0.3-1.5-0.8-1.5-1s0.7-0.4,1.5-0.4s1.5,0.4,1.5,1C37,64,36.3,64.2,35.5,63.9z M57,75.6c-0.5-0.9-1-0.9-1.4-0.1
		c-0.4,0.5-1.6,1-2.6,1l0,0c-1,0-2.9-1.4-4.1-3.1l-2.2-3.1l4.8,0.7c4.7,0.7,8.5,2.4,8.5,3.7C60,76.1,57.7,76.8,57,75.6z M81.8,76
		c-0.6-0.4-4.2-0.6-7.9-0.5c-6.2,0.2-6.7,0-6.3-1.7c0.8-3-4-5.3-14.8-7c-5.4-0.9-9.9-2-9.9-2.5c0-1.6,10.5,0.2,25.5,4.5
		c6.3,1.8,14.5,5.7,14.5,6.8C83,76.2,82.5,76.3,81.8,76z M120.7,68.5c-3.1,0-7.4,0.7-9.5,1.5s-6.9,2.2-10.7,3l-6.9,1.6l-9.2-4
		c-9.5-4.2-30.1-9.6-40.5-10.7c-3.7-0.4-6-1.1-6-1.9c0-0.7-0.6-1.7-1.3-2.3l0,0c-0.7-0.6-2.7-3.1-4.5-5.6c-3-4.3-3.1-4.4-1.1-5.1
		c1.1-0.4,7.8-0.8,14.9-0.9l12.8-0.3l-0.3,3.1c-0.2,1.7-0.8,3-1.4,2.8c-2.6-0.6-13.1-0.5-13.7,0.1c-1.4,1.4,1.4,2.6,8.7,3.7
		c4.1,0.6,8.8,1.5,10.5,2c1.7,0.5,4.8,0.9,7,0.9C77.6,56.2,81,56.7,81,58c0,1.5,2.7,4.5,4,4.5c0.4,0,1.1-1,1.4-2.1
		c0.5-1.9,1-2.1,4.4-1.4c2.1,0.4,4.9,0.9,6.3,1c1.4,0.2,5,1,8,1.9s8.6,2.3,12.5,3.1C126.7,67.1,128,68.5,120.7,68.5z M139.2,54
		c-3.7,0.4-8.7,1-11.1,1.2s-7.4,1.3-11.1,2.2c-6.3,1.6-7.1,1.6-13.6,0c-3.8-0.9-8.6-2-10.7-2.3l0,0c-2.1-0.3-3.8-1-3.8-1.5
		c0-1.4,8.2-8.1,10.7-8.7c1.3-0.3,5.3-0.2,9,0.2s7.1,0.7,7.5,0.6c0.4-0.1,2.9,0.3,5.5,0.8s5.9,1.2,7.3,1.4c6,1,17,4,17,4.6
		C146,52.9,142.9,53.6,139.2,54z M243,149c0.5-0.3,1,0.1,1,0.9c0,0.9-0.5,1.6-1,1.6s-1-0.4-1-0.9S242.4,149.4,243,149z M237,159
		c0.5-1.1,0.9-3.5,0.9-5.2c0-1.8,0.4-3.2,0.8-3.2c1.5,0.1,5.2,3.8,5.2,5.2c0,1.6-3.6,5.2-6.2,6.1l0,0C235.8,162.5,235.7,162,237,159
		z M218.7,146.3c0.4-0.2,3.8,0,7.5,0.6c6.5,1,6.7,1.1,7,4.4c0.2,1.8,0,3.3-0.4,3.3s-0.8,0.8-0.8,1.7c0,1.4-0.6,1.1-2.6-1.1
		c-1.5-1.6-4.6-4.1-7.1-5.6S218.2,146.5,218.7,146.3z M188.7,126.1c2.6,0.4,6.7,0.7,9,0.6s4.2,0.2,4.2,0.6s1,0.8,2.2,0.9
		c12.1,0.8,16,1.5,14.7,2.8c-0.2,0.2-2.9,0-5.9-0.5s-8.9-1.2-13-1.5c-7.2-0.6-10.5-0.9-14.2-1.2l0,0c-1-0.1-1.8-0.7-1.8-1.3
		C184,125.6,185.4,125.5,188.7,126.1z M207.3,112c1,0.3,2.8,0.6,4,0.6c1.5,0,1.8,0.3,1,1.1c-0.8,0.8-1.9,0.6-4-0.6
		C206.8,112.1,206.3,111.7,207.3,112z M201.3,110.2c0.7-0.3,2-0.1,2.8,0.4c1,0.6,0.7,0.9-1.3,0.9C199.7,111.5,199.2,111,201.3,110.2
		z M-204.1,99.5L-204.1,99.5c-3.9-4.9-4-5.6-1.3-6.9c1.4-0.6,2.6-1.1,2.7-1.1c0.1,0,0.3,2.4,0.4,5.2l0.2,5.2L-204.1,99.5z
		 M-174.8,137.4c-1-0.8-2.2-1.8-2.8-2.4c-3.4-3.4-3.2-4.3,0.3-1C-173,138-171.6,139.9-174.8,137.4z M-167,143.5L-167,143.5
		c-3.9-2.7-3.9-3.4,0-1.2c1.6,0.9,3,2.1,3,2.5C-164,145.3-165.4,144.7-167,143.5z M81.1,206.3c-3.6,0.2-6.9-0.2-7.4-0.7
		c-1.4-1.4-4.7-1.4-4.7,0c0,1.5-23.3,0.7-25.1-0.8l0,0c-0.7-0.6-2.7-1.3-4.4-1.5c-2.8-0.3-2.7-0.4,1.7-1.7c3.3-1,6.4-1.1,10.5-0.6
		c3.2,0.4,9.8,0.9,14.8,0.9c5.9,0.1,11.1,0.8,15,2.1l6,1.9L81.1,206.3z M64.3,210.5c-0.9,0.8-7.6,1.2-18.6,1.1
		c-3.2,0-5.8-0.5-5.8-1.1s4.6-1,12.6-0.9C59.5,209.7,64.8,210.1,64.3,210.5z M118.1,208.2c-3.5-0.4-9.4-0.6-13.1-0.6l0,0
		c-5.4,0-7.2-0.4-9.1-2l-2.4-2l3.2,0.6c1.8,0.3,8.4,1.2,14.7,1.9c6.3,0.7,11.8,1.6,12.3,2.1C124.1,208.4,121.6,208.5,118.1,208.2z
		 M128.5,183.5c1.7,0.5,5,1.2,7.5,1.6c2.5,0.4,5.2,1.1,6,1.5c2.4,1.3,11.2,3.9,13.1,3.9c2.1,0,5.4,3.5,4.5,4.9
		c-1,1.6-2.4,1.3-5.2-0.9c-2-1.6-2.9-1.8-4.7-0.9c-1.2,0.6-2.4,1.5-2.7,2c-1.1,1.6-13.6,2.6-32.4,2.6c-23.1,0-34.2-1-42.6-3.8
		c-3.5-1.2-7.3-2.2-8.4-2.2c-1.1-0.1-2.9-0.7-4-1.4c-3.1-2.1-5.8-1.7-5,0.7s0.1,2.5-8.4,0.5c-15-3.5-19.8-4.9-23.3-6.6l0,0
		c-2.1-1-3.7-2.3-3.7-2.9s1.7-1,3.7-1c3.5,0,6.7-0.2,28.1-1.5c4.6-0.3,9.5-0.8,10.8-1.1c3.8-1,11.1-1.1,19.3-0.2
		c4.1,0.4,12.1,1,17.7,1.3C111,180.7,124.4,182.3,128.5,183.5z M29.1,201.7c2.1,2.1,2.1,2.2,0.2,3.2c-3.2,1.8-13.4,0.6-25.4-3
		c-6.3-1.9-12.8-3.7-14.5-4l0,0c-1.6-0.3-3.4-0.9-3.9-1.4s0.1-0.6,1.3-0.3s3.9,0,6-0.7c3.2-1.1,4.2-1,6.9,0.4
		c1.7,0.9,4.1,1.6,5.2,1.6c1.2,0,3.5,0.7,5.3,1.7c7.7,4,13.3,3.2,10.7-1.6c-1.4-2.6-6.5-5.2-16.8-8.6c-4.5-1.5-8.2-3-8.2-3.5
		c0-1.6,2.9-2.4,11.1-3.4l5.6-0.6l3.3,4.1c3.2,4,4.2,4.6,13.3,7.9c5.8,2.1,6.3,2.5,3.2,2.7C26.6,196.5,25.6,198.2,29.1,201.7z
		 M-31.6,173.5c1.5,0,2.6-0.7,2.9-2c0.4-1.4,1.4-2,3.4-2.1c1.6-0.1,4.4-0.3,6.2-0.5c2.8-0.3,3.9,0.2,6.5,2.9c1.7,1.8,4,3.9,5.1,4.6
		c1.6,1-0.4,1.1-11,0.6c-7.2-0.3-13.6-0.7-14.2-0.7l0,0C-35.1,176.1-34.1,173.5-31.6,173.5z M-49,159.1c0-2,4.3-3,6.9-1.6
		c1.2,0.6,3.4,1,4.8,0.9c4.7-0.4,5.7,0,7.4,3.1c1.6,2.9,1.6,3-0.2,3c-1,0-2.1-0.6-2.5-1.2c-0.5-1-0.7-1-1.2,0.1c-0.5,1-1,0.8-2-0.7
		c-1.2-1.7-1.9-1.8-4.6-1c-2.2,0.7-4.1,0.6-6-0.1l0,0C-47.8,161.1-49,159.9-49,159.1z M-58.3,144.8c1.2-1.7,1.3-2.9,0.4-5.2
		c-1.2-3.5-1.2-3.5,6.9-6.1s8.6-2.5,4.7,0.9c-2,1.8-3.5,2.5-3.9,1.9s-1,0-1.4,1.3s-1.4,3-2.1,3.7s-1.4,1.9-1.4,2.6
		c0,0.7-0.9,2-1.9,3C-59.4,149.1-60.3,147.7-58.3,144.8z M-58,154.5c0,0.5-0.5,1-1,1s-1-0.5-1-1s0.5-1,1-1S-58,154-58,154.5z
		 M-22,113.5c0-0.5,0.6-1,1.2-1c0.7,0,4-0.3,7.2-0.5l6-0.5l-2.5,2.1c-1.8,1.5-3.3,1.9-5.5,1.4c-1.6-0.3-3.8-0.6-4.8-0.6l0,0
		C-21.2,114.4-22,114-22,113.5z M-19.2,125.8c4-3.6,5.2-4,5.2-1.9c0,0.8,1.2,2.1,2.6,3.1c2.9,1.9,2.8,2.4-0.6,3
		c-1.3,0.2-5.9,1.6-10.2,3.1l0,0c-4.3,1.4-8.1,2.4-8.3,2.2s1.4-1.7,3.6-3.4S-21.2,127.6-19.2,125.8z M-26,139.8
		c1.9-0.6,7.3-2.5,11.9-4.1c6.7-2.4,8.8-2.7,10.2-1.8c2.7,1.7,2.3,2.4-1.9,3.1c-2.1,0.4-4.2,1-4.8,1.5c-0.5,0.4-2.2,1.1-3.7,1.4
		c-1.5,0.4-4.3,2-6.1,3.6s-4.1,3-4.9,3s-5.7,1.1-10.8,2.5s-9.4,2.3-9.5,2.2c-0.8-0.8,3-4.7,4.7-4.7c1,0,4.1-1.3,6.7-2.8
		C-31.7,142.2-28,140.4-26,139.8z M-5.9,126c0.6-0.4,1.6-0.2,2.2,0.4c0.8,0.8,0.5,1.1-1.1,1.1l0,0C-7.2,127.5-7.6,127-5.9,126z
		 M5.5,141.9c-0.8,0.3-1.7,0.2-2-0.3c-0.4-0.7,1.6-2.1,3-2.1C7.6,139.5,6.8,141.4,5.5,141.9L5.5,141.9z M1.9,112.8L1.9,112.8
		c-3,0.4-4.5-0.3-3.3-1.6c1-1,6.3-0.8,6.3,0.2C5,111.9,3.6,112.5,1.9,112.8z M0,131.2c1.1-0.3,2.3-0.1,2.6,0.4s-0.6,0.9-2,0.9
		C-2.5,132.5-2.8,132,0,131.2z M15.1,146.6c1.2,0.7,4.6,0.8,8.8,0.4c6.7-0.7,6.9-0.7,8.7-4.5c1-2.1,2.4-3.9,3.2-3.9
		c0.7,0,1-0.5,0.7-1c-0.3-0.6,0.1-1.3,1-1.6c1-0.4,2.3,0.4,3.6,2c3.2,4,7.9,3,7.9-1.8c0-1.7,0.4-1.5,2.1,1.2c1.1,1.8,2.5,3.2,3,3.2
		s0.9,0.5,0.9,1c0,0.6-0.9,1-1.9,1c-1.2,0-2,0.8-2.2,2.2c-0.3,2.4-1.8,2.7-25.8,4.2c-5.2,0.3-10.3,0.9-11.3,1.2s-4.2,0.7-7,0.9
		s-8.6,0.7-12.9,1l0,0c-4.3,0.4-7.7,0.5-7.7,0.3c0-0.7,6.4-3.7,11.3-5.3C2.7,145.3,12.2,145,15.1,146.6z M9.1,123.6
		c-1.3-0.7-0.7-1,2.3-0.9c3.5,0,3.7,0.2,1.7,1l0,0C11.7,124.2,10.2,124.2,9.1,123.6z M19.7,130.9c-2.1,0.4-3.7,0.6-3.7,0.4
		c0-0.2,0.5-1.1,1-2c0.8-1.4,2.4-1.8,7.5-1.8c3.6,0,6.5,0.4,6.5,1c0,0.5-0.8,1-1.8,1.1C26.6,129.7,23.9,130.1,19.7,130.9z
		 M23.3,138.1c-0.3,0.9-1.5,1.4-2.6,1.2l0,0c-3.4-0.5-3.3-2.8,0.2-2.8C23.2,136.5,23.8,136.9,23.3,138.1z M39.2,124.6
		c3.7,0.1,3.9,0.2,1.5,0.9c-1.5,0.4-3.1,1.1-3.6,1.4s-1.2-0.1-1.5-0.9C35.1,124.8,35.9,124.6,39.2,124.6z M47.8,124.9
		c1.9,0.3,3.8,0.6,4.2,0.6c0.5,0,0.9,0.5,0.9,1.1c0,0.7-1.1,0.9-3.2,0.5c-1.8-0.4-3.7-1.1-4.2-1.8C44.7,124.6,45.4,124.4,47.8,124.9
		z M18.3,173.2c1.1-0.3,1.5-0.1,1,0.3c-1.3,1.1-10.9,4.1-13.3,4.1c-2.8,0-2.6-1.6,0.3-2.4c2.4-0.6,4.2-3.3,3-4.5
		c-0.3-0.3-3.5-0.5-7-0.4l0,0c-3.5,0.1-6.4-0.1-6.4-0.5c0-1.5,3.6-2.9,7.8-3.1c2.4-0.1,4.7-0.4,5.1-0.6c0.4-0.2,4.1-0.7,8.2-1
		c7.3-0.5,7.3-0.5,2.1,0.5c-2.9,0.6-5.6,1.7-5.9,2.5C12.5,170.3,16,173.8,18.3,173.2z M22.3,159.6c-8.2,0.9-10,0.8-12.9-0.5l0,0
		c-4.8-2.3-5.2-3.5-1.1-3.5c1.9,0,3.8-0.4,4.1-1c0.3-0.5,1.2-0.7,2-0.4s1.9,0.2,2.6-0.2c2-1.2,20.2-1.4,19-0.1
		c-0.6,0.6-1.1,1.9-1.1,2.9s-0.7,1.8-1.5,1.8S27.6,159,22.3,159.6z M41,171.1c16.1-2.1,50.4-2.7,48.6-0.9c-0.8,0.8-0.3,0.7-13.6,2.2
		c-17.1,1.9-26.2,2.7-42.2,3.6l0,0c-4.8,0.3-8.8,0.4-8.8,0.2C25,175.5,37,171.6,41,171.1z M-25.5,190.1c4.1-0.6,12.4,0.9,11.2,2.1
		c-0.8,0.8-6.1,1.7-9,1.6c-1.5-0.1-3.7-0.8-4.8-1.5C-30,190.9-29.9,190.7-25.5,190.1z M91.2,170.1c-0.3-0.3,0.3-0.6,1.3-0.5
		c1.2,0,1.4,0.3,0.6,0.6l0,0C92.4,170.5,91.6,170.5,91.2,170.1z M117,157.4c-1.2-0.8-1.1-0.9,0.5-0.5c1.1,0.3,3.9,0.9,6.2,1.4
		c2.3,0.5,5.4,1.9,6.9,3c1.5,1.2,3.3,2.1,4.1,2.1s1.4,0.4,1.4,0.9s-7.6,0.7-18.8,0.4l0,0c-10.3-0.3-18.9-0.7-19.2-0.9
		c-0.2-0.2,0.7-0.4,2-0.5c5.7-0.2,15.9-2.5,17.2-3.8C118.2,158.7,118.1,158.2,117,157.4z M110.4,156.9c-0.9,0.3-5.5,0.9-10.3,1.2
		s-12.2,0.9-16.6,1.4c-19.2,2.2-20.2,2.2-18.1,0.5c2.4-1.9,1.8-2.5-2.3-2.8l0,0c-1.7-0.1-3.1-0.5-3.1-0.9s5.5-0.5,12.2-0.2
		c6.7,0.3,13.7,0.2,15.5-0.1c3.2-0.6,4.4-2.9,2-3.9c-2.1-0.9,8.5,0.5,11.8,1.5c1.7,0.5,3.8,0.7,4.7,0.3c0.9-0.3,2.5,0,3.7,0.8
		C111.8,156.1,111.9,156.4,110.4,156.9z M80,150.6c1.7,0.6-0.5,0.8-6.3,0.6c-4.8-0.2-9.1-0.6-9.4-1C63.3,149.2,77,149.6,80,150.6z
		 M104,143.7c-23.7,0.6-45-0.7-45-2.8c0-0.7,0.4-1.3,1-1.3c0.5,0,1-0.7,1-1.6l0,0c0-0.9-0.8-2.3-1.8-3.1c-1.5-1.2,0.4-1.3,14.7-0.8
		c14.6,0.6,19.9,0.9,22.1,1.3c0.3,0.1,0.9,1,1.2,2.2c0.3,1.1,0.9,1.9,1.4,1.8c0.5-0.1,2.1,0.3,3.7,1s4.2,1.2,6,1.2s4.1,0.5,5.2,0.9
		C114.8,143.1,111.5,143.5,104,143.7z M68.5,124.9c2.2,0.3,5.2,0.6,6.8,0.6c1.5,0,2.8,0.5,2.8,1c0,0.7-2.1,0.8-5.8,0.4
		c-3.2-0.3-6.2-1.1-6.8-1.7C64.8,124.6,65.7,124.5,68.5,124.9z M83,126.7c1.4,0,1.9,0.2,1.3,0.5s-1.8,0.3-2.5,0
		C81,126.9,81.6,126.7,83,126.7z M107,117c0-0.5,6.6,0.2,13.5,1.5c2.8,0.5,7.2,1.2,10,1.5c6.9,0.9,8.5,1.4,8.5,3
		c0,0.7,1,1.6,2.2,1.8c2.1,0.4,2.1,0.4-0.2,0.6c-1.4,0.1-6.3-0.6-11-1.4s-10.4-1.7-12.7-1.9c-2.3-0.2-5.6-1.4-7.2-2.5l0,0
		C108.3,118.4,107,117.2,107,117z M157,148.2c-9.4-0.4-11.4-0.7-12.5-2.3l0,0c-1-1.4-3.1-2-8.2-2.4c-5.1-0.4-6.3-0.7-4.8-1.4
		c3.2-1.4,10.5-2.4,11.1-1.5c0.3,0.5,1.7,0.8,3.2,0.8s3.8,0.7,5.1,1.7c1.3,0.9,3.5,1.8,5,1.9c7.2,0.8,11.1,1.6,11.7,2.6
		C168,148.4,164.5,148.6,157,148.2z M188.7,144.1c8.4,0.1,10.1,0.5,18,4c2.9,1.3,5.9,2.4,6.7,2.4s1.7,0.5,2,1c0.4,0.6-0.5,1-1.9,1
		s-2.6-0.5-2.6-1s-1.6-1-3.5-1s-6.8-0.9-10.9-2c-4.1-1.1-7.8-2-8.3-1.9s-2.3-0.2-4.1-0.6C178.8,144.8,180.5,144,188.7,144.1z
		 M180,138.3c0,1.7-18.4,0.5-24.3-1.6c-3.2-1.2-9.4-2.8-13.8-3.6s-8.3-1.7-8.7-2c-1-0.6-14.4-3.4-19.5-4c-4.7-0.6-5.9-1.5-2.3-1.7
		c1.5-0.1,3.2-0.2,3.9-0.3c0.7-0.1,1.7,0.1,2.2,0.5s3,1,5.5,1.4s5.4,0.9,6.5,1.1s4.5,0.6,7.5,0.9c6.8,0.7,16.6,2.8,17.6,3.8
		c0.4,0.4,2.9,0.7,5.4,0.7s7.5,0.9,11,2c3.4,1.1,6.9,2,7.6,2S180,137.9,180,138.3z M156.7,111.5c1.1,0,3.7,0.8,5.9,1.9
		c2.2,1,6.5,3.1,9.7,4.6c8,3.7,7.8,5-0.7,4.6c-4.5-0.2-7.8-1.7-11.6-5.2l0,0c-1.4-1.3-3.1-3.1-3.9-4.1
		C154.9,111.8,155,111.5,156.7,111.5z M101.7,105.9c5.4,1,12.2,1.8,19.6,2.1c4.3,0.2,8.9,1.1,10.7,2c1.9,1,3.5,1.3,3.8,0.7
		c2.1-3.3,10.5-0.4,17.1,5.9c1.4,1.3,4.2,3.8,6.3,5.6c4.3,3.6,3.1,4.3-2.5,1.3c-7.4-4-22.9-8.1-35.9-9.6c-3-0.3-6.9-0.8-8.5-1
		c-1.7-0.2-4.6-0.4-6.5-0.5c-1.9,0-4-0.4-4.6-0.8s-1.4-2-1.8-3.6C98.9,105.5,99,105.4,101.7,105.9z M93.3,118
		c3.2,0.8,6.5,1.5,7.5,1.5c2.4,0,4,1.8,3.5,3.9c-0.4,1.6-1.2,1.6-10.1,0.3c-5.3-0.8-9.9-1.7-10.3-2c-0.8-0.9,1.3-5.2,2.6-5.2
		C87.1,116.5,90.1,117.2,93.3,118z M82.5,103.5c6.4,1,8.2,2,3.8,2c-1.6,0-4.5,0.4-6.3,1c-2.6,0.7-3.7,0.7-4.5-0.4
		c-0.6-0.8-2-1.6-3.1-1.8C67.7,103.4,77.2,102.7,82.5,103.5z M62.4,102.5c5,0.3,8.7,1.6,6.6,2.3c-8.6,2.7-19.3,3.6-20.5,1.8
		c-0.3-0.5-3-1.2-6.1-1.6c-3-0.4-5.5-1.1-5.5-1.6C37,102.6,53.9,102,62.4,102.5z M21.2,114.9c2.1,0.8,3.6,0.7,6-0.3
		c1.8-0.8,4.7-1.4,6.5-1.4s3.2-0.4,3.2-0.8c0-0.5,4.1-0.8,9-0.8c5,0,9,0.4,9,0.9c0,1,5.1,2.2,9.2,2.2c1.8,0,2.9,0.6,3.3,1.9
		c0.3,1.1,1,2,1.6,2s0.9,0.5,0.9,1.1s-1.1,0.9-2.8,0.5c-5.7-1.1-19.5-1.8-40-1.8l0,0C15.5,118.3,6,118.2,6,118
		C6,116,17.8,113.6,21.2,114.9z M-32,105.4c0-0.5,0.6-0.9,1.4-0.9c0.7,0,3-1.1,4.9-2.4c3.2-2.2,4.4-2.4,11.9-2
		C6,101,19,102.7,19,104.4c0,0.4-6,0.8-13.2,1c-7.3,0.1-15.3,0.5-17.8,0.8c-18.8,2.4-23,2.9-23.9,2.5c-0.6-0.2-1.1-1.1-1.1-1.9
		c0-1.1,0.7-1.4,2.5-1.1C-33.2,106-32,105.9-32,105.4z M-35.4,100.5c4.3,0,4.1,0.6-0.4,1.3l0,0c-1.8,0.3-3.2,0.1-3.2-0.4
		C-39,100.9-37.4,100.5-35.4,100.5z M-23.6,113.6c-0.3,0.4-1.8,1.1-3.5,1.5c-1.6,0.4-3.3,1.1-3.6,1.6c-1.1,1.7-6.1,3.3-20.3,6.4
		c-1.3,0.3-2.8,0.8-3.2,1c-0.5,0.3-0.8,0.1-0.8-0.3c0.1-1.5,10.4-8.8,13.4-9.6C-37.2,113.2-23,112.6-23.6,113.6z M-66.9,104.8
		c11.4-2.1,12.3-2.3,19.8-2.9c8.6-0.7,9.3,1,0.9,2.1c-5,0.6-7,1.1-16.7,3.6l0,0c-2.9,0.8-4.8,0.7-7.2-0.3l-3.2-1.3L-66.9,104.8z
		 M-74,113.2c1.4-0.2,3.9-0.8,5.5-1.2c2-0.5,2.7-0.4,2,0.3c-0.6,0.5-3.7,1.5-6.9,2.1l0,0c-3.3,0.6-6.1,1-6.3,0.7
		C-80.2,114.7-77.8,113.8-74,113.2z M-89.9,132.8c6-5.1,15-10.4,26.6-15.6c3.3-1.5,3.9-0.1,0.8,1.9c-1.4,0.9-3.7,3.6-5.1,6
		c-2,3.4-3.2,4.4-6.1,4.9c-2,0.4-7.9,2.7-13.1,5.2s-9.7,4.3-9.9,4.1C-96.8,139.1-93.8,136.1-89.9,132.8z M-68.9,148
		c-2,0.8-2.2,0.3-0.8-2.4c1.4-2.7,4.3-4.8,5.3-3.8C-63.7,142.5-67,147.2-68.9,148z M-72.9,132.6c-2.4,1-3.6,0.8-2.4-0.4
		c0.4-0.4,1.6-0.6,2.8-0.6C-70.7,131.7-70.7,131.7-72.9,132.6z M-98,153.1l1.6,2.3c1.6,2.4,1.4,3.9-0.5,2.7
		c-0.6-0.4-1.1-1.6-1.1-2.8V153.1z M-104.5,156.5c0.8,0,1.5,0.6,1.5,1.4c0,0.8,1.6,2,3.5,2.7c2.9,1,3.5,1.8,3.5,4.1
		c0,3.9-1.8,3.5-6.3-1.2l0,0C-106.2,159.4-107.1,156.5-104.5,156.5z M-119.6,162.5c0.9,0,1.6,0.7,1.6,1.5s0.6,1.8,1.4,2.1
		s1.7,1.2,2,2.1c0.4,1.2-0.2,1-2.7-0.5C-120.8,165.4-122.1,162.5-119.6,162.5z M-124.3,143.3c0.5,0.7,1.7,1,2.6,0.6
		c1.3-0.5,1.7-0.1,1.7,2c0,2.3-2.3,4.6-3.5,3.4c-0.2-0.2-0.7-2-1-3.9C-125,143.3-124.9,142.5-124.3,143.3z M-127.2,166.5
		c0.5,0,1.7,0.9,2.7,2s2.2,2,2.7,2s2.7,1.2,5,2.6c2.3,1.5,5.3,3,6.7,3.5c1.8,0.6,1.2,0.7-1.8,0.3c-4.9-0.7-12.3-3.7-14.6-6
		C-128.1,169.3-128.6,166.5-127.2,166.5z M-80.1,207.5c0.5,0,1.4,0.7,2.1,1.5s1.9,1.5,2.7,1.5s2.4,0.9,3.6,2c2.9,2.7,2.1,2.5-4.8-1
		c-3.2-1.6-6.4-3-7-3s-1.4-0.7-1.7-1.6c-0.7-1.9-8.8-5.7-22.1-10.4c-8.1-2.9-10.1-4-10.3-5.7c-0.2-1.7-1.2-2.3-5-2.8
		c-2.6-0.4-5.8-1.1-7.2-1.7l0,0c-2.5-1-7.9-6.9-6.3-6.9c0.9,0,10.9,2.2,19,4.2c3.6,0.9,6.2,2.4,8.7,5c2,2,4.5,4,5.7,4.3
		c2,0.6,10.9,6.2,11.9,7.5C-90.1,201.7-80.9,207.5-80.1,207.5z M-94.5,143.5L-94.5,143.5c-0.8,0-0.7-1.3,0.2-2.5
		c0.8-1,4.3-2.8,7.7-4c1.2-0.4,1.6-0.3,1,0.2C-87.8,139.2-93.9,143.5-94.5,143.5z M-66.7,177c-6.1,0.7-6.1,0.7-5.7-1.8
		c0.6-3.3-0.6-3.8-5.1-2.3c-2.1,0.7-5.2,1-6.9,0.7l0,0c-1.7-0.4-3.2-1.3-3.3-2.1c-0.2-1.6,1.3-9,1.5-7.6c0.1,0.5,0.7,0.4,1.5-0.2
		c1-0.8,2-0.4,4.4,1.9c1.7,1.6,5,3.7,7.4,4.5c5.1,1.8,13.1,5.6,12.7,6C-60.4,176.2-63.3,176.6-66.7,177z M-57.6,167.8
		c1.1-3-0.5-4.1-5.3-3.6l0,0c-2.6,0.3-5.7,0.1-7-0.4c-2.2-0.8-2.2-0.9-0.5-2.4c5.6-4.9,9.2-4.3,15.8,2.8c3.9,4.1,6,5.1,11.7,5.2
		c2.5,0.1,2.6,0.2,1.5,3c-0.7,1.8-1.5,2.6-2.2,2.1c-0.6-0.4-4.1-1.9-7.8-3.2C-55.7,169.9-57.9,168.6-57.6,167.8z M-53,182.5
		c1.5-0.9,0.4-3-1.6-3c-0.8,0-1.4-0.4-1.4-1c0-1.1,2.6-0.3,5.5,1.6c1.1,0.7,2.7,1.3,3.6,1.3c0.9,0,4.3,1.2,7.5,2.7l5.9,2.7l-3.8,0.3
		C-41.8,187.7-54.9,183.7-53,182.5z M-45.3,198.3c4.2,1.7,5.5,3.2,2.8,3.2c-0.8,0-2.7-1.1-4.2-2.5l-2.8-2.5L-45.3,198.3z M-22.8,211
		L-22.8,211c-8.7-0.3-18.2-1.2-21.2-1.9c-5.1-1.3-4.3-1.4,13.1-1C-14.4,208.4-7,209.3-7,211C-7,211.3-14.1,211.3-22.8,211z
		 M15.2,227.2L15.2,227.2c-0.7,0.3-1.6,0.3-1.9-0.1c-0.3-0.3,0.3-0.6,1.3-0.5C15.7,226.7,16,226.9,15.2,227.2z M79.4,229
		c-0.7,1.9-5.2,2-16.9,0.6c-4.4-0.5-11.1-1.2-15-1.6s-7.2-0.8-7.5-0.9c-0.3-0.2-3.4-0.6-7-1c-9.5-1-19.3-3-29.4-5.9l0,0
		c-4.9-1.4-9.2-2.8-9.5-3.2c-0.3-0.3,6.4-0.4,14.9-0.2c11.6,0.3,16.2,0.8,18.5,2c2.5,1.3,7,1.6,25.8,1.7c14,0,23.5,0.5,24.8,1.1
		C80,222.6,80.6,225.8,79.4,229z M-165.3,226.5L-165.3,226.5L-165.3,226.5c-2.2,0-5.1-2.6-3.9-3.4c0.6-0.4,0.8-1.5,0.5-2.4
		s0.6-0.2,2,1.7C-163.6,226.5-163.6,226.5-165.3,226.5z M-251,185.1L-251,185.1c-1.5-0.9-1.2-6.7,0.3-8.7c1.8-2.3,3.6-0.4,3.6,3.8
		C-247,183.4-249.2,186.2-251,185.1z M-234.9,200.5c-0.5,0-1.8-3.8-3-8.5l0,0c-2.2-8.7-2.7-12.4-1.4-11.2c0.6,0.6,5.2,17.1,5.3,18.9
		C-234,200.2-234.4,200.5-234.9,200.5z M-230.2,190.4c-0.6,0.2-1.5-0.2-1.9-1c-1.8-2.8-0.9-4.4,1.1-1.9
		C-229.9,189-229.6,190.2-230.2,190.4z M144.4,447.1c-1,0.3-3.5,1.4-5.4,2.4s-4.7,2.1-6.2,2.5s-2.7,0.5-2.7,0.3
		c0-1.5,14.6-7.4,15.7-6.3C146,446.2,145.4,446.7,144.4,447.1z M199.5,449.9c-0.9,0.3-1.5,0-1.5-0.7c0-1.7,1.1-2.7,2.1-2
		C201.4,447.9,201.1,449.3,199.5,449.9z M263.4,390.4c3.5-1.3,4.3-1.3,3.9-0.2c-0.3,0.7-1.7,1.6-3.2,1.9s-3.2,0.7-3.9,1l0,0
		c-0.7,0.2-1.2,0.1-1.2-0.3S261,391.3,263.4,390.4z M292,341.5c2.4,0,2.7,1.5,0.4,2.4c-0.9,0.3-1.8,0.6-2,0.6l0,0
		c-0.2,0-0.4-0.7-0.4-1.5S290.9,341.5,292,341.5z M330,307c-0.5,0.3-1,0.2-1-0.4s0.4-1.3,1-1.6c0.5-0.3,1-0.2,1,0.4
		S330.5,306.7,330,307z M332.2,289.7c-1.1,2.4-2.1,4.9-2.3,5.5c-0.3,0.9-1,0.9-2.8-0.1c-2-1.1-2.1-1.4-0.9-2.2
		c0.8-0.5,2.8-2.9,4.3-5.4C333.8,282.2,334.9,283.6,332.2,289.7z M326.9,281.6c0.5-0.8,1.2-1.2,1.5-0.9c0.3,0.3-0.1,1.1-0.9,1.8
		C325.8,284,325.6,283.7,326.9,281.6z M304.2,255.7c1.8-1.1,4.3-3.2,5.5-4.6c1.2-1.4,3.2-2.6,4.5-2.5h2.3l-2.5,2
		c-4.3,3.4,0.1,2.2,5.5-1.5l5-3.4l1.5,2.2c0.8,1.2,1.4,2.4,1.3,2.7c-0.6,1.1-15.2,5.7-21.9,6.9l0,0c-2.3,0.4-4.2,0.6-4.2,0.5
		C301,257.8,302.4,256.8,304.2,255.7z M303.3,270.7c2.1-2,4.3-3.2,6.1-3.2c2.6,0,2.7-0.2,2.1-3c-0.6-2.7-0.4-3,2.2-3.5
		c2.9-0.6,12.8-3.4,15.1-4.2c1.4-0.5,1.7,4.4,0.4,6.5c-0.4,0.7-5.7,3-11.7,5.1s-12.2,4.4-13.8,5C299.5,275,299.5,274.4,303.3,270.7z
		 M300,281.6c1.4-0.7,3.3-2.1,4.3-3.2c1-1,2.8-1.9,4-1.9s4.2-0.9,6.6-2s6.1-2.3,8.2-2.6l3.9-0.6l-1.5,3.1
		c-2.2,4.4-7.2,9.3-13.8,13.5c-6,3.8-6.6,4.1-6.6,2.8c0-1.5,4.9-6.1,6.5-6.1c0.9,0,1.3-0.5,1-1c-0.8-1.3-8.2-1.3-8.7,0l0,0
		c-0.2,0.6-1.5,0.7-3.3,0.2l-3-0.8L300,281.6z M294.8,266c0.2,0.2-1.5,2.2-3.6,4.4c-3.6,3.8-5.2,7.5-5.2,12c0,0.9,1.4,3.2,3.1,5
		s2.9,3.4,2.8,3.5c-0.2,0.1-1.7,1.1-3.4,2.3l-3.1,2.2l-1.2-2.3c-1-2-2-2.3-6.4-2.3c-2.8,0-6.5,0.7-8.1,1.5s-4.2,1.9-5.7,2.3
		c-1.9,0.6-3.8,0.3-6.3-1l-3.5-1.8l3.1-0.6c1.7-0.3,4.1-0.6,5.3-0.6s3-0.8,3.8-1.8c1.5-1.7,1.5-1.9-0.5-3.7
		c-2.1-1.8-2.1-1.9-0.2-3.2c1.1-0.8,4.2-3.1,6.9-5.1C276.9,273.4,294,265.2,294.8,266z M265,307.1c0-0.2,0.7-0.7,1.5-1
		s1.5-0.1,1.5,0.4s-0.7,1-1.5,1l0,0C265.6,307.5,265,307.4,265,307.1z M172.7,340.2c-8.2,3.8-8.8,4.7-6.3,9.5
		c1.6,3.1,2.8,2.7-12.9,4.8c-9.3,1.2-10.5,1.4-20.6,3l0,0c-4.2,0.7-8.2,1-9,0.8c-2.2-0.7,8.3-6.7,11.8-6.8c1.8,0,6.8-1.8,11.2-4
		s8.6-4,9.4-4c0.7,0,1.8-0.4,2.3-0.9s9.3-3.9,19.5-7.6c23.4-8.6,23.1-8.4,22.8-10.9c-0.2-1.4,0.3-2.1,1.7-2.3
		c1.1-0.1,4.8-0.5,8.3-0.8c3.4-0.3,8.1-1.3,10.3-2.2c4-1.6,5.7-1.4,4.6,0.5c-0.3,0.5-5.9,2.7-12.4,4.7
		C201.4,327.9,187,333.6,172.7,340.2z M204.8,337.6l-0.3,5.6c-0.2,3.8-0.7,5.8-1.6,6.1c-0.8,0.2-3.6,1.5-6.2,2.8
		c-5.8,2.9-6.3,2.9-6.9,0.5c-0.3-1.2-1.6-2-3.3-2.2c-2.7-0.3-2.6-0.4,2.1-3.1c2.7-1.5,5.8-3.3,6.9-4s3.6-2.2,5.6-3.4L204.8,337.6z
		 M154.4,390.5L154.4,390.5c-3.4-1.8-3-2.6,1.9-3.4c7.5-1.1,10.4,1.4,4.1,3.5C157.5,391.5,156.3,391.5,154.4,390.5z M158.5,419.6
		L158.5,419.6c-1.7-1.4-1.9-2-0.6-2c0.5,0,1.2,0.7,1.5,1.6C159.9,420.5,159.8,420.6,158.5,419.6z M155,372.6c0,0.4-0.8,0.7-1.8,0.9
		c-1.9,0.2-20.1,0.3-26.8,0.1l-4-0.1l3.5-1.3c4.4-1.6,4.7-4.1,0.5-4c-1.7,0.1-7.4,1.3-12.8,2.8c-5.7,1.6-11.5,2.6-14,2.4l-4.2-0.3
		l4.2-1.8c2.3-1,4.4-2.4,4.7-3.2c0.3-0.8,1.6-1.4,2.8-1.4c1.3,0,5.4-0.7,9.3-1.5c3.8-0.8,14.6-2.4,23.9-3.6s17.2-2.3,17.5-2.4
		c0.3-0.2,4.1-0.6,8.4-1c7.3-0.6,7.7-0.5,6.8,1.1c-2.1,3.8-7.5,8.2-12.7,10.4C157.4,370.9,155,372.2,155,372.6z M30.7,384.9
		c2.2,0.7,7.5,1.5,15.5,2.4l6.3,0.7l-13.3,4.4c-12,3.9-14,4.3-19.3,3.7c-3.3-0.4-6.9-1-8.1-1.5c-2-0.7-1.9-0.8,0.8-1.5
		s4.4-2.1,4.4-3.8c0-1.8-4.7-4.8-8.6-5.4l0,0c-5.5-0.8-5.6-2-0.3-2.7c4.8-0.6,10.9-4.5,10.9-6.9c0-1.9,2.4-2.6,8.5-2.6
		c9.3,0,10.9-0.1,14-1.1c1.8-0.6,3.5-1.8,3.9-2.6c0.5-1.3,1-1.3,4.2,0c2,0.8,4.8,1.5,6.2,1.5c2.8,0,10.3,2,11.6,3
		c1.3,1.1-11.1,3.1-22.3,3.6c-13.4,0.5-16.7,1.1-17.4,3C26.8,381.1,28.5,384.2,30.7,384.9z M-4.9,446L-4.9,446c-1.9-2-2-5-0.3-7.1
		c1.8-2.3,7.6-3.1,13.2-1.9c1.4,0.3,4.9,0.9,7.7,1.4c6.4,1,7.6,2,3.4,2.8c-1.7,0.3-3.4,1-3.7,1.4C14.6,443.9-4,447-4.9,446z
		 M1,453.5c0,0.6-0.4,1.1-1,1.1c-0.5,0-1-0.2-1-0.4c0-0.2,0.5-0.7,1-1.1S1,452.9,1,453.5z M21,429.2c-2.5-0.3-7-1.3-10-2.2l0,0
		c-3-0.9-7.3-2.2-9.5-2.9c-5.4-1.6-3.2-2.7,6.2-3c9.2-0.3,11.2,0.1,11.2,2.5c0,1,1.5,2.8,3.2,4l3.2,2.2L21,429.2z M20,411.2
		c0-1.8,7.4-2.4,8.5-0.7c0.4,0.6-1.2,1-3.9,1C22,411.5,20,411.4,20,411.2z M24.5,423.5c-1.4-1.3-0.3-1.1,3.6,0.6
		c3.4,1.5,3.4,1.5,0.4,0.9C26.8,424.7,25,424,24.5,423.5z M28.5,429c3.8,0.4,4.3,1.5,0.6,1.5c-1.7,0-3.2-0.4-3.2-0.9
		S27.1,428.8,28.5,429z M31.5,403.3c-1.9,1-5.7,1.6-10.5,1.6c-8.1,0.1-9.5-0.1-24.4-3.4l0,0c-12.8-2.8-15.8-4-8.3-3.3
		c4.1,0.4,6.4,0.1,8-0.9c1.2-0.8,3.6-1.3,5.2-1.2c5.9,0.5,16.5,2.8,16.5,3.6c0,0.5-0.5,0.9-1.2,0.9c-0.9,0-0.9,0.3-0.1,1.1
		c0.8,0.8,2.1,0.7,4.4-0.3c1.9-0.8,3.8-1.3,4.4-1.2c0.5,0.1,2.8,0.6,5,0.9l4,0.7L31.5,403.3z M-136.8,418.4
		c-0.4-2.2-0.2-2.3,10.8-4.3c5.2-1,10-2.4,10.6-3.1c0.9-1.2,1.5-1,3.8,0.7c1.5,1.1,2.6,2.6,2.6,3.3s1.3,2.4,3,3.8
		c2.6,2.3,2.8,2.7,1.2,3.3c-4.1,1.7-18.7,1.6-25.2-0.2l0,0C-134.3,420.6-136.6,419.4-136.8,418.4z M-120.3,385.7
		c-1.5-0.6-2.7-1.3-2.7-1.6c0-0.7,10.3,0.6,11,1.4c0.3,0.3,1.7,1.2,3.2,2s2.6,1.5,2.5,1.7C-106.7,389.5-117.1,386.9-120.3,385.7z
		 M-122.6,379.1c-1.1-0.1-2.6-0.5-3.2-0.9c-0.7-0.4-1.2-0.2-1.2,0.6c0,0.8-0.7,0.5-1.8-0.7c-1-1.1-4.4-2.9-7.7-3.9s-7.6-2.4-9.5-3.2
		c-1.9-0.7-4.4-1.6-5.6-1.9s-3.7-2.1-5.8-4s-4.1-3.6-4.6-3.7c-0.4-0.2-3.8-3.1-7.4-6.4l0,0c-3.6-3.4-6.6-6.3-6.6-6.5
		c0-0.3,2-4,2.5-4.7c0.6-0.8,7.4,3.4,7,4.4c-0.7,1.9,1.6,3.4,5.2,3.4c3.3,0,16.5,4.1,18.7,5.8c0.6,0.5,2.3,1.2,3.8,1.5s4.2,2.1,6,4
		c2.2,2.2,6.7,4.6,13.4,7.2c5.5,2.1,11.7,4.9,13.7,6.2c2.1,1.3,4.6,2.3,5.6,2.3s3.6,0.7,5.8,1.6c3.3,1.4,3.6,1.7,1.9,2.3
		c-2.3,0.8-5.1,0.7-13.1-0.8C-113.2,380.3-120,379.3-122.6,379.1z M-133.1,399.4l2.2,3.1l-3.3-0.6c-1.8-0.3-4.9-1.8-6.9-3.2l0,0
		c-2-1.4-5.6-4.4-8.2-6.7l-4.6-4l2.8-1.2c2.2-1,3.8-1,7.7,0c4.1,1,15.8,6.7,14.3,7C-135.1,394.6-135.8,395.6-133.1,399.4z
		 M-149,399.1c0,0.2-0.5,0.4-1,0.4s-1-0.5-1-1.1s0.5-0.8,1-0.4S-149,398.8-149,399.1z M-154.5,379.5c-1-1.1-1.4-2-0.8-2
		c0.6,0,1.8,0.9,2.8,2s1.4,2,0.8,2S-153.5,380.6-154.5,379.5z M-176.7,358.8L-176.7,358.8c-7-3.3-8-4.6-4.9-6.6
		c2.2-1.5,2.5-1.4,4.1,0.3c0.9,1,3,2.4,4.6,3.1s2.9,1.7,2.9,2.3c0,0.6,0.8,1.9,1.8,3c1.7,1.9,1.7,1.9-0.8,1.2
		C-170.4,361.6-173.9,360.1-176.7,358.8z M-172.9,370.3c-0.9-0.7-2.9-2.5-4.4-4.1c-4.1-4.3-3.4-4.9,1.9-1.7c1.8,1.1,3.3,3,3.6,4.5
		C-171.4,371.2-171.5,371.4-172.9,370.3z M-118.6,290.4c-0.8-1.3,4.6-1.1,12.6,0.6c3.9,0.8,7.6,1.3,8.1,0.9c0.5-0.3,0.9-0.1,0.9,0.5
		s0.7,1.1,1.5,1.1s1.5,0.4,1.5,0.8c0,0.5,3.4,1.9,7.6,3.2c7.3,2.3,10.3,4,7,4c-0.9,0-1.6,0.4-1.6,0.9c0,1.2,5.9,7.1,7.1,7.1
		c0.5,0,0.7,0.4,0.5,0.9c-0.3,0.5-4.3,0.9-8.8,0.9c-8.1,0-8.4,0-15-4.3c-7-4.6-13.8-6.5-16.1-4.6c-0.9,0.7-2.4,0.8-4.5,0.2
		c-2.7-0.8-3.3-0.6-4.2,1c-0.8,1.6-0.5,2.4,1.5,4.4c1.4,1.4,3.2,2.5,4,2.5s1.5,0.4,1.5,1c0,1.3-0.7,1.3-5.8-0.5
		c-4.6-1.6-12.9-8.9-18.7-16.4l0,0c-1.9-2.4-3.4-4.7-3.4-5.1c0-1.8,7.6-1.6,10.8,0.3c4.6,2.7,11.1,4.1,12.8,2.6
		C-118.7,291.8-118.3,290.9-118.6,290.4z M-54.1,321c9.4-0.1,17.4,0.3,17.6,0.7c0.3,0.5,2,0.8,3.7,0.8c1.8,0,4.8,0.4,6.7,1
		s6,1.2,9,1.5c9.6,0.9,15,2.2,15,3.6c0,0.5-2.1,0.9-4.7,0.9s-8.1,0.4-12.3,1c-4.1,0.5-11.8,1.5-17,2.1s-10.6,1.6-12,2.1
		c-1.5,0.6-3.2,0.6-4.5,0c-7.5-3.5-17.1-8.6-17.4-9.3c-0.2-0.5-0.7-0.8-1.2-0.8s-4-2-7.9-4.5l0,0c-3.8-2.5-7.2-4.9-7.5-5.4
		s5.1-0.8,12-0.8s12.7,0.4,13,0.9s1.3,0.9,2.2,0.9s3,0.7,4.7,1.4c3,1.4,2.9,1.4-2.1,1c-2.8-0.2-5.5-0.5-6-0.6
		c-2.4-0.5-8.1,0.2-9.4,1.1C-75,320.5-71.1,321.1-54.1,321z M67.5,322.7c3.3,0.2,10.7,0.1,16.5-0.1s13.2,0.1,16.5,0.8
		c3.3,0.6,7.6,1.4,9.5,1.8s5.8,1.7,8.5,2.9c2.8,1.3,6.9,3.1,9.2,4.1c4.1,1.7,6,4,2.5,3c-1-0.3-4.2-0.8-7.2-1.1
		c-9.1-1-10.8-1.6-11.3-3.5c-0.5-2-5.4-5.7-6.3-4.8c-0.3,0.3,1,1.9,2.8,3.7c3.2,3,3.2,3.1,0.8,2.6c-2.9-0.6-23.6-3.5-46.5-6.6l0,0
		c-8.8-1.2-16.2-2.3-16.4-2.6c-0.2-0.2,1.8-0.5,4.5-0.6C55.5,322.2,56.4,322.2,67.5,322.7z M66.1,316l3.4,1.5l-3.4-0.4
		c-1.9-0.2-3.9-0.9-4.5-1.5C60.1,314,62.1,314.2,66.1,316z M149.5,282.7c2.8-0.6,8.8-2.1,13.5-3.2s11-2.3,14-2.5
		c14.2-1.2,23.7-3.2,37.1-7.9c10.6-3.7,27.5-12.1,32.8-16.4c6.5-5.2,14.5-8.5,10.2-4.2c-1.1,1.1-2.4,2-2.8,2
		c-1,0-13.6,10.3-17.5,14.3c-2.3,2.4-2.7,3.4-2.1,6.3c0.4,2,0.2,3.4-0.3,3.4s-1.5,1.1-2.1,2.5c-1.1,2.5-3.4,3.5-2.9,1.3
		c0.3-1.6-7.6-2.3-11.3-1c-3.4,1.2-3.8,0.2-0.9-2.4c1.1-1,2-2.2,2-2.7c0-1.4-4.7-0.9-6,0.6c-1.3,1.6-5.6,3.2-10.9,4.1
		c-2.8,0.5-26.7,9.4-33.6,12.5c-10.6,4.8-12.5,5.1-31,5c-9.9-0.1-20-0.4-22.5-0.7l0,0c-5.5-0.7-6.1-1.1-2.4-2
		c1.6-0.4,3.3-0.9,3.8-1.2c0.5-0.3,2.5-0.7,4.4-0.8c1.9-0.2,4.1-0.8,4.9-1.5c0.9-0.7,3.2-1,6.1-0.6c3.8,0.4,5.5,0.1,8.7-1.7
		C142.7,284.8,146.7,283.3,149.5,282.7z M142,279c0-1,1-1.5,2.9-1.5c1.6,0,5.1-0.2,7.7-0.5l4.9-0.5l-6,2c-3.3,1.1-6.8,2-7.8,2
		C142.8,280.5,142,279.9,142,279z M114.1,336c0.5-0.3,3.3,0.1,6.2,1c5.9,1.8,19.7,3.7,20.9,3c0.4-0.3,0.7-2,0.6-3.9
		c-0.2-2.8-0.6-3.3-2-2.9c-1.9,0.6-8.1-3.2-7.3-4.5c0.6-0.9,18.1-0.8,19,0.1c1.1,1.1,8.4-1.5,8.9-3.2c0.2-0.9,1.6-1.9,3-2.2
		c3.2-0.6,12.7,0.2,12.6,1.1c0,0.3-7.1,4.1-15.8,8.4c-8.6,4.3-17.7,8.9-20.2,10.3c-4.1,2.3-5.1,2.4-10,1.5c-3-0.5-9-1.2-13.4-1.4
		l0,0c-4.4-0.2-8.1-0.8-8.2-1.3C108,341.1,111.6,337.5,114.1,336z M108,337.5c-0.5,0-1-0.5-1-1c0-0.6,0.5-1,1-1s1,0.4,1,1
		S108.5,337.5,108,337.5z M174,299.2c1.6,1.8,3,3.6,3,4.2c0,0.5-2.6,2-5.8,3.3c-5.1,2.1-7.4,2.3-21.8,2.4l0,0
		c-16,0.1-23.9-0.5-22-1.7c0.5-0.3,3.9-1.4,7.5-2.4s7.2-2.3,8-3s3.5-1.5,6-1.9c2.4-0.4,4.9-1.1,5.5-1.5c0.6-0.5,5.8-2.5,11.5-4.6
		c5.8-2.1,10.7-4,11-4.4c0.3-0.3,1.3-0.7,2.4-0.8c1.5-0.1,1.2,0.5-1.3,2.8c-1.8,1.6-4.1,2.9-5.1,2.9
		C170.3,294.5,170.5,295.5,174,299.2z M129,312.1c2.5,0.2,8.8,0.6,14,0.9c10.9,0.7,14,1.8,14,5.2c0,2.1-0.5,2.3-4.2,2.3
		c-4.5,0-19.6-1.6-23.8-2.4c-7-1.5-8-1.8-8-2.6c0-0.5-1.5-1.3-3.2-1.7c-3.2-0.8-3.2-0.9,1.8-1.4C122.2,312,126.5,311.9,129,312.1z
		 M163.2,320.7l-0.5-3.1l-0.5-3.1l4.6,0.2c2.5,0.1,8.4-0.8,13.1-1.9c4.7-1.2,12.7-2.8,18-3.7c5.2-0.9,13.8-2.5,19-3.5
		c12.3-2.5,26.5-3.6,27.4-2.1c2,3.3-19.6,11.1-38.9,14c-11.9,1.8-15.6,2.1-29.1,2.7L163.2,320.7z M181,302.5c0-0.5,0.7-1,1.6-1
		c0.9,0,1.3,0.5,0.9,1c-0.3,0.6-1,1-1.6,1C181.4,303.5,181,303.1,181,302.5z M198.6,288.4c2.4-2.1,6.9-3.6,17.3-6
		c14.3-3.2,12.6-2-6.4,4.7C198.8,290.8,195.4,291.2,198.6,288.4z M240.3,294.7c-5.9,0.5-10.9,0.6-11.1,0.4
		c-0.9-0.9,7.7-2.5,15.5-2.8C256.7,291.8,253.3,293.7,240.3,294.7z M123.7,298.5c5.4-0.1,12.1-0.1,14.8,0l5,0.1l-3.5,1.5
		c-1.9,0.8-6.7,3.1-10.6,5c-7.7,3.7-7.4,3.7-27.7,1.3l0,0c-10.8-1.3-11.8-2-7.6-5.2c1.9-1.4,4.9-3.3,6.7-4.2
		c3.1-1.6,3.7-1.6,8.2-0.1C112.3,298.1,117,298.6,123.7,298.5z M114,315.3c0-0.7,1.1-0.1,2.4,1.4c1.4,1.6,4.1,3.1,6.6,3.7
		c7,1.6,6.5,2.8-0.8,1.8c-3.7-0.5-8.8-1.2-11.3-1.6l-4.5-0.7l3.8-1.6C112.3,317.4,114,316,114,315.3z M77.2,332.1
		c-0.3-0.3,0.3-0.6,1.3-0.5c1.2,0,1.4,0.3,0.6,0.6l0,0C78.4,332.5,77.6,332.5,77.2,332.1z M37.2,349.9c-5-0.3-13.2,0.5-21.2,2.2
		c-1.4,0.3-4.2,0.8-6.2,1.1l0,0c-3.3,0.5-3.8,0.3-3.8-1.5c0-1.1,0.3-2.3,0.8-2.5c0.7-0.4,26-1,33-0.8c1.8,0.1,3.2,0.5,3.2,1
		C43,349.9,40.4,350.1,37.2,349.9z M40,366.8c0,1.1-3.6,1.6-14.2,2.1c-9.3,0.4-9.8,0.3-11.2-1.9c-0.8-1.3-1.5-2.5-1.5-2.7
		c0-1.2,12.4-3.9,15.8-3.5C32.5,361.3,39.9,365.3,40,366.8z M-1.4,377.1c-2.4,0.4-5.6,0.5-7.2,0.3c-2.4-0.3-2-0.5,2.1-1.1
		c2.8-0.4,6.3-1,7.9-1.3c1.9-0.4,2.6-0.2,2.2,0.5C3.2,375.9,1,376.7-1.4,377.1L-1.4,377.1z M-24,366.7c0-0.5,1.4-0.6,3-0.4
		c1.7,0.2,3.6-0.1,4.4-0.7c1-0.8,2.3-0.7,5.2,0.3l3.9,1.4l-8.2,0.1l0,0C-20.3,367.5-24,367.2-24,366.7z M-43.9,355.4
		c-1.9,0.1-5-0.3-7-0.8l0,0c-2-0.5-5.4-1.3-7.6-1.8c-2.9-0.6-3.5-1-2-1.4c1.1-0.3,6.1,0.5,11,1.7C-43.1,354.7-41.5,355.3-43.9,355.4
		z M-43,350.7c1.4,0,1.9,0.2,1.2,0.5s-1.8,0.3-2.5,0C-45,350.9-44.4,350.7-43,350.7z M-48,364c0.6-0.4,4.1-0.3,7.8,0.1
		c9.1,1.1,9.3,1.2,12.6,1.3c1.6,0.1,2.6,0.4,2.2,0.8c-0.7,0.7-7.2,0.6-17.1-0.3l0,0C-49.1,365.3-49.7,365.1-48,364z M-30.9,349.1
		c-4.6-0.9-8.7-1.8-9.2-2.1l0,0c-1.1-0.7-1.2-2.2-0.2-2.8c1.1-0.6,9.4-0.1,19.2,1.3c4.6,0.7,10.3,1.1,12.5,0.9
		c6.4-0.4,9.6,0.9,9.6,3.8c0,1.9-0.4,2.4-1.7,1.8c-2.5-0.9-10.9-2-10.2-1.2c0.3,0.3,3,1.2,6,2l5.4,1.4l-7.2,0.7
		c-6.6,0.7-7.5,0.5-11.5-1.8C-20.6,351.8-26.3,350-30.9,349.1z M0.5,368l3.3-1.4c2.5-1,3.6-1.1,4.4-0.3c0.6,0.6,0.9,1.4,0.5,1.7l0,0
		c-0.3,0.3-2.3,0.4-4.4,0.3L0.5,368z M39.5,345.2c-9.6-1.5-15.5-1.7-15.5-0.7c0,0.7-3,1.1-8,1.1l0,0c-8.9,0-9.6-0.7-5.1-5.2
		c3.9-4,7.4-4.3,16.5-1.3c4.3,1.4,8.5,2.6,9.3,2.6s2.7,1,4.1,2.1l2.7,2.1L39.5,345.2z M29.6,326.1c-0.9,0.4-3.1-0.1-4.9-1l-3.2-1.6
		l4.5,0.6C31.2,324.9,31.9,325.3,29.6,326.1L29.6,326.1z M21.8,325.6c1.1,0.1,0.8,0.4-0.8,0.9c-4.2,1.3-16.3,1.1-18.2-0.4
		c-1-0.7-1.8-2-1.8-2.8c0-2,17.1-1.3,18.3,0.8C19.7,324.9,20.8,325.6,21.8,325.6z M41,335.9c-3.9-2.6-6.6-2.5-5.6,0.2
		c0.3,0.9-0.1,1.4-1.2,1.3l0,0c-0.9,0-3.3-0.7-5.2-1.4l-3.5-1.3l4-0.7c2.2-0.4,5.4-1.2,7-1.9c1.7-0.6,3.8-1,4.9-0.8
		c1.6,0.3,1.8-0.2,1.4-2.6l-0.4-2.9l4.5,0.8c2.5,0.5,6.8,1,9.6,1.3c8.7,0.8,19.6,2.9,19.6,3.8c0,0.5-0.3,0.7-0.8,0.4
		c-1.5-0.9-16.1,1.1-19.3,2.7c-1.8,0.9-4.8,1.6-6.6,1.6s-3.6,0.4-3.9,1C45.1,338.1,43.2,337.4,41,335.9z M43.2,311.9L43.2,311.9
		c-2.9-0.3-5.2-1.1-5.2-1.6c0-1,3.4-0.6,11.5,1.1C54.5,312.5,50.8,312.8,43.2,311.9z M39,318.6c0,0.6-22.9,0.3-26-0.4
		c-0.8-0.2-2.3-0.7-3.4-1.1c-1.1-0.5-2.6-0.3-3.7,0.3c-1,0.6-2.6,1.2-3.6,1.1l0,0c-1,0-2.4-0.4-3.1-0.9c-1.1-0.7-0.9-1,0.8-1.6
		c1.2-0.4,2.1-1.2,2.1-1.7c0-0.7,5.3-0.9,17.2-0.4c14.5,0.5,17.5,0.9,18.5,2.3C38.4,317.2,39,318.2,39,318.6z M-1.4,333.9
		c6.9-0.3,8.4-0.1,8.4,1.1c0,0.8-0.5,1.7-1,2.1c-0.6,0.3-1.6,2.1-2.4,3.9c-0.9,2.1-2.2,3.5-3.8,3.7c-1.3,0.2-11.1-0.8-21.9-2.3l0,0
		c-10.7-1.5-20.4-3.2-21.4-3.6c-1.3-0.6,3.8-1.3,15-2.1c9.3-0.7,17.3-1.5,17.8-1.8C-10.2,334.5-6,334.1-1.4,333.9z M-65.8,351.1
		c-0.3-0.3,0.3-0.6,1.3-0.5c1.2,0,1.4,0.3,0.6,0.6l0,0C-64.6,351.5-65.4,351.5-65.8,351.1z M-65.9,347.4c-4.1,0.4-17.4-2.2-25.7-4.9
		c-5.6-1.9-16.4-6.7-17.5-7.9c-0.6-0.6-4.4-2.8-12.2-7.3c-3.2-1.8-5.7-3.6-5.8-4c0-0.4,1-0.2,2.2,0.5s4.9,2,8.2,2.9
		c3.3,0.9,8.2,3,10.9,4.8c2.7,1.7,5.7,3.2,6.6,3.2s2,0.3,2.4,0.8c0.4,0.4,1.1,0.8,1.4,0.8s2.6,0.8,4.8,1.9c3,1.3,4.6,1.6,5.9,0.9
		s3-0.6,5.9,0.5c2.2,0.8,4.9,1.6,6,1.9c1.1,0.2,3.8,1.6,6,3.2l4.1,2.8L-65.9,347.4z M-97.5,342.4c0.5,0.5,3,1.4,5.4,2.1
		c2.5,0.7,6.3,2.1,8.5,3.2l4,1.8l-4.3-0.6c-4.1-0.6-4.3-0.5-4,1.8c0.2,1.7,1.4,2.8,3.8,3.6c3.2,1.1,3,1.2-3,0.7
		c-5.5-0.5-6.9-1-9.2-3.5c-1.5-1.6-2.8-3.8-2.8-4.8l0,0c0-1-0.3-2.6-0.6-3.5C-100.3,341.4-99.1,341-97.5,342.4z M-86.5,359.5
		c2.4-0.5,17.5,0.1,22,0.9c4.2,0.8,3.2,0.9-6.5,0.8C-80.9,361.2-89.8,360.2-86.5,359.5z M-138.3,308c6.8,3.1,7.2,4.5,1.5,4.5
		c-2.7,0-4.5-0.8-6.7-2.8c-1.6-1.5-4.7-4.2-6.8-6s-3.4-3.2-2.9-3.2c1.1,0,7.3,3.1,8.2,4.1C-144.8,304.9-141.7,306.4-138.3,308z
		 M-149.2,281.7L-149.2,281.7c-1.2-0.5-2.4-1.4-2.7-2.1c-0.3-1,0.1-1,1.6-0.1C-147.2,281.1-146.4,282.7-149.2,281.7z M-151,293.8
		c0,0.4,0.6,0.8,1.4,0.8c0.8,0,1.6,0.8,1.9,1.9c0.4,1.6-0.7,1.2-7.1-2l0,0c-7.2-3.6-19-12.8-14.6-11.4c1.1,0.4,4.4,1.3,7.3,2.1
		c3.7,1,6.2,2.4,8.2,4.7C-152.4,291.6-151.1,293.4-151,293.8z M-166.4,275.2c-0.6,0.6-11.1-5.7-11.5-7c-0.2-0.6-1.5-2.2-2.8-3.5
		s-2.7-3.9-3-5.6c-0.5-3.2-0.5-3.2,3.3-2.8c4.9,0.6,9.3,5.1,12.2,12.8C-167,272.3-166.2,275-166.4,275.2z M-175,282.6
		c0,0.5-0.2,0.9-0.5,0.9c-1.2,0-6.5-3.7-6-4.2C-180.7,278.5-175,281.5-175,282.6z M-165.3,294.7c2.1,2.1,5.1,5.1,6.7,6.6
		s4.8,4.4,7,6.5l4,3.8l-5.5-0.5c-7.8-0.8-7.9-0.8-4.2-1.5c4.5-0.9,4.5-2.6-0.1-2.9c-3.3-0.3-3.7-0.6-3.2-2.3
		c0.8-2.4-1.1-4.9-3.7-4.9c-3.4,0-9.5-3.8-14.5-9.1l0,0c-2.7-2.8-5.2-5.8-5.7-6.7C-185.9,281.2-169.3,290.7-165.3,294.7z
		 M-177.6,306.1c3.7,0.5,5.8,1.6,8.5,4.1c4,3.9,4.4,3.9-9.6-0.3c-5.1-1.5-9.5-3.4-9.8-4.2c-0.4-1.1,0.2-1.3,2.7-0.9
		C-184,305.2-180.3,305.7-177.6,306.1z M-174.8,315c0.7,0.2,2.6,0.6,4.2,0.9c7.1,1,11.1,2,12.2,2.9c0.7,0.5,2.9,0.9,5,0.8
		c8.6-0.4,13.7,0,16.2,1.3c6.1,3.2,9.5,5.3,11.9,7.4c1.4,1.2,3,2.2,3.5,2.2c0.6,0,4.2,2,8.1,4.4s8,4.6,9.1,4.9
		c1.8,0.5,1.8,0.5-0.2,0.6c-1.2,0.1-2.6,0.8-3,1.6c-0.6,1.2-1.2,0.9-2.8-1.5c-2.1-3.1-3.9-3.8-4.9-1.7c-0.5,1-0.7,1-1.2,0
		c-0.9-2-2.4-1.5-2.4,0.8c0,1.3,0.8,2.3,2,2.6c1.1,0.3,2,1.2,2,2s1.3,2,2.9,2.7c2.2,0.9,2.7,1.6,2.1,2.7c-0.5,0.9-0.5,1.7,0.2,2.1
		c0.6,0.4,0.7,0.9,0.1,1.2c-1,0.6-7.3-4.9-7.3-6.4c0-0.4-0.8-1.1-1.8-1.4s-2.7-1.4-3.8-2.3c-2.1-1.9-2.7-2.2-12.4-7.5
		c-6.7-3.6-14.7-5.9-17.8-5.1c-1.1,0.3-3.8-1.2-6.9-3.6c-2.8-2.2-5.6-4.1-6.2-4.1c-0.6,0-1-0.4-1-1c0-0.5-2-2.1-4.5-3.6l0,0
		C-175.9,315.4-177.3,314.2-174.8,315z M-80,389.6c1.4,0.5,3.9,1.1,5.5,1.3c1.7,0.2,4.7,1.2,6.8,2.1c3.1,1.5,3.6,2,2.5,3.1
		c-1.8,1.8-12.6,0-15.3-2.5c-1.1-1-4.9-2.8-8.5-4l0,0c-3.6-1.2-6.7-2.4-7-2.7C-97,385.8-84,388-80,389.6z M-57.6,402.5h5.2l-0.4,3
		c-0.3,2.2-0.9,2.9-2.1,2.5c-0.9-0.3-3-0.8-4.6-1.1c-1.6-0.4-3.8-0.9-4.7-1.1c-1-0.3-1.8-0.8-1.8-1.3
		C-66,403.2-63.2,402.5-57.6,402.5z M-69.6,378.7c-0.3,0.5-4.1,0.8-8.4,0.8c-6.8,0-9.4-0.6-18.2-3.9c-5.6-2.1-11.5-4.5-13-5.2l0,0
		c-1.5-0.7-2.7-1.5-2.6-1.8c0.6-3.5,2.1-8.7,2.7-9.3c0.4-0.4,3.2,0.2,6.2,1.3c6.8,2.6,12.8,3.7,20.1,3.8c3.1,0,6.7,0.5,8,0.9
		c2.9,1.1,17.4,2.6,36.3,3.7c5,0.3,10.6,0.7,12.5,0.8c1.9,0.1,6.4,0.3,9.9,0.4s6.2,0.4,6,0.6s-4,0.7-8.4,1
		C-45,374-68.6,377.1-69.6,378.7z M-41.4,389.4c1.4,0.6,3.6,1.1,5,1.1s2.3,0.4,2,0.9s-2.9,0.6-5.8,0.4c-2.9-0.3-5.7-0.9-6.2-1.3
		C-48,389-44.1,388.2-41.4,389.4z M-38.2,384.2c0.6-0.4,1.3-0.2,1.6,0.3s2.4,1.2,4.6,1.6c2.2,0.4,4,1,4,1.5s-1.5,0.6-3.2,0.3l0,0
		C-35.6,387.2-39.6,385-38.2,384.2z M-33.5,377.4c9.6-0.3,11.8,0,13.5,1.7c1.3,1.3,0.5,1.4-7.5,0.8C-39.6,379-42.6,377.7-33.5,377.4
		z M-16,384c6.9,0.5,21.5,3.2,23.6,4.4c1.3,0.7,0.5,1.2-3.4,2.1C-3.2,392.2-6,392-12,389.3l0,0c-3-1.4-6.4-3.2-7.5-4.1
		C-21.4,383.7-21.2,383.6-16,384z M58.2,381.5c1.8,0,6.6-0.2,10.8-0.4c6.9-0.4,7.3-0.3,4.5,1c-3.6,1.6-5.2,1.8-12.8,1.7
		C54.7,383.5,52.5,381.6,58.2,381.5z M64.7,362.3L64.7,362.3c-3.1-1.2-3.7-2.8-0.9-2.8c1,0,2.5-0.7,3.2-1.6
		c2.5-3.1,9.1-4.7,24.4-6.3c4.8-0.5,9.7-1.7,12.2-2.9c2.5-1.3,4.4-1.7,4.8-1.1c0.3,0.5,2.1,1,3.9,1s4.1,0.6,5.1,1.3
		c1.8,1.3,1.7,1.4-0.5,3c-1.3,0.9-3.1,1.7-4.1,1.7c-0.9,0-2,0.5-2.3,1s-1.7,1-3.1,1s-3.7,0.6-5.2,1.4c-1.5,0.7-4.4,1.6-6.6,2
		s-4.4,1.2-5,2s-3.2,2.1-5.8,2.9C79.4,366.6,74.6,366,64.7,362.3z M87,382.7c3-0.7,9.1-1.6,13.5-1.8s8.5-0.9,9.2-1.4
		c0.7-0.6,1.4-0.6,1.7,0c0.3,0.5,5.6,1.2,11.8,1.6c6.2,0.4,14,1,17.3,1.3l6,0.6l-3.5,1.5c-2.8,1.2-7.8,1.5-26.5,1.3l0,0
		c-12.7-0.1-25.7-0.5-29-0.9l-6-0.7L87,382.7z M217.1,337.3c0.5-1,1.5-1.8,2.2-1.8s5.9-3.2,11.6-7s11.1-7,12-7s2.7-0.6,4.1-1.3
		c7.8-4.1,8-2.4,0.3,3.4c-3.1,2.4-6.5,5-7.4,5.9c-4.7,4.3-13.9,10.6-13.9,9.5c0-0.2-1.5,0-3.3,0.4l0,0
		C218.2,340.5,215.8,339.6,217.1,337.3z M246.5,286.4c-6.9,0.2-9.5-0.4-6.3-1.4c6.8-2.1,11.9-3.5,15-4c3.5-0.6,3.8-0.5,3.8,1.8
		C259,285.7,257.5,286.1,246.5,286.4z M276.3,259.5c0.6,0,0.6,0.5-0.1,1.2c-0.7,0.6-1.4,1-1.7,0.7
		C273.8,260.7,275,259.5,276.3,259.5z M277.2,252.4c-0.7,0.7-1.3,1.6-1.3,2s-1.6,2.4-3.5,4.4c-2.5,2.7-4.3,3.7-6.5,3.7
		c-2,0-3-0.5-3-1.5c0-2.4-6.5-1.9-11.4,0.9c-2.6,1.4-4.8,2.1-5.6,1.6c-0.9-0.6-0.5-1.2,1.6-2.3c1.6-0.8,4-2.7,5.4-4.2
		s3.8-3.4,5.5-4.2s3.4-2.2,3.8-2.9c0.4-0.8,1.5-1.4,2.3-1.4c1.7,0,6-2.8,11.1-7.2c1.8-1.5,3.9-2.8,4.7-2.8c0.8,0,4.1-2,7.4-4.5
		s6.2-4.5,6.6-4.5C295.5,229.5,282.2,247.2,277.2,252.4z M202.9,63.4c1.1-1.3,2-2.1,2-1.8c0.1,1.6-2.3,6.9-3.1,6.9
		C200.3,68.5,200.9,65.9,202.9,63.4z M237.2,100.2L237.2,100.2c-0.7,0.3-1.6,0.3-1.9-0.1c-0.3-0.3,0.3-0.6,1.3-0.5
		C237.7,99.7,238,99.9,237.2,100.2z M252.2,108.5c-0.5,0-2.1-0.9-3.5-2s-2.9-2-3.4-2s-1.8-0.7-2.8-1.6c-1.8-1.5-1.8-1.5,1-0.9
		c1.6,0.4,3.2,1,3.5,1.4s1.8,1.7,3.4,2.9C251.9,107.5,252.8,108.5,252.2,108.5z M275.3,119.6c-2.9-2.3-4.8-1.8-4,1.2
		c0.5,2,0.5,2-1.7,0.1c-1.2-1.1-4.8-3.7-7.9-5.8c-4.6-3.1-5.8-4.4-5.8-6.6c0-5.8-16.5-13.3-37.2-17c-3.1-0.6-8.7-2.4-12.3-4
		s-7-2.8-7.5-2.5s-1.3-0.4-1.9-1.4l0,0c-1.4-2.5-1.4-2.4,1-5.5c2-2.5,4.9-3.6,4.9-1.7c0,1.7,3.2,2.2,4.4,0.7c1-1.3,2.1-1.3,9.1,0
		c4.4,0.8,9.6,1.7,11.5,2c8.6,1.2,18,4,18,5.3c0,1-1,1.2-4.5,0.7c-3.7-0.6-4.5-0.4-4.5,0.9c0,2.5,3.2,3.8,11.8,4.5
		c0.7,0.1,1.2,1,1.2,2.1c0,2.5,4.8,4,6.1,1.9c0.7-1.1,1.4-1.1,4.6,0c8.9,3.2,15.1,6.4,14.7,7.6c-0.7,1.8,3.4,2.9,5.2,1.4
		c1.1-0.9,1.8-0.9,2.6-0.2c1.5,1.5,0.1,3.6-4.1,6.5c-3.8,2.6-4.5,5.4-1.8,7.2c1.3,0.8,2.3,0.8,3.7-0.1c2.4-1.5,4.1-0.9,5.9,1.9
		c1.7,2.7,1.1,3.2-4.3,3C279.5,121.6,277,120.9,275.3,119.6z M271.3,166.4c1.8-3.9,3.1-5,7.8-7.3c5.4-2.6,8.7-5.9,9.9-10
		c0.8-3,2.5-2.9,3.9,0.1c1.2,2.4,1.4,4.9,1.1,9.6c-0.1,1.8-5.9,7.9-9.5,10.1c-1.6,1-5.8,2.1-9.2,2.5l0,0c-3.5,0.4-6.3,0.4-6.2,0.1
		S270.1,169,271.3,166.4z M209.4,243.6c5.5-2.3,10.5-4.6,11.3-5.2c0.7-0.6,1.6-0.9,1.9-0.6c0.5,0.5,17.2-7.7,25.8-12.8
		c4-2.4,4.4-2.4,9.5-1.1c4.5,1.2,5.7,1.2,7.9,0c1.5-0.8,3.9-1.4,5.4-1.4s4.7-0.4,7-0.9s6.8-1.5,9.9-2.2c6.3-1.4,10.3-4.4,7.8-5.9
		c-0.8-0.5-2.1-0.5-3-0.1c-3.3,1.7-9.1,2-9.7,0.5c-0.3-0.8-1.4-1.4-2.4-1.4s-2.1-0.4-2.4-1c-0.6-0.9,3.3-7.7,6.4-11.3
		c0.8-1,3.3-4,5.5-6.7s5.3-5.5,7-6.2c6.1-2.6,11.7-10.9,13.3-19.9c0.7-3.9,0.6-6.7-0.6-11.3c-1.6-6.4-7.2-16.4-9.8-17.4
		c-2.7-1-2.8,0.7-0.2,3c1.4,1.2,3.1,3.8,3.7,5.8c3.7,11.3,3.8,19.2,0.3,25.9c-1.4,2.8-3.6,5.7-4.9,6.5c-2.2,1.5-2.3,1.4-1.7-1.5
		c0.5-2.3,0.1-3.4-1.3-4.5c-3.4-2.6-4.5-1.9-3.8,2.4c0.5,3.3,0.3,4.1-1.5,5.2c-1.2,0.7-2.1,1.8-2.1,2.5c0,1.8-2.7,2.4-4,0.8
		c-3-3.7-5.4,0.3-2.7,4.5c1,1.7,0.7,2.6-2.8,6.7c-2.2,2.6-4.8,5.2-5.8,5.8s-5.9,4.1-11,7.9c-7.9,5.9-9.2,6.5-9.4,4.8
		c-0.5-2.9,4.9-16.1,7-17.2c1.9-1,2.4-3.5,0.8-4c-0.5-0.2-0.1-2.6,0.8-5.3c4.7-13.2,5.9-14.6,11-14c4,0.5,12.4-1.6,17.4-4.4
		c4.6-2.5,8-9.5,7.2-14.6c-0.3-2.2-1-4.4-1.5-4.9s-0.9-1.7-0.9-2.6s-0.6-2.2-1.4-2.9c-0.8-0.6-2.3-3.1-3.4-5.5
		c-1.3-2.7-3.9-5.7-7.1-8.1c-2.8-2.1-5-3.9-4.8-4.1s3.8-0.5,8.1-0.7l7.8-0.4l8.9,8.5l8.9,8.5l-2.1,2c-2,1.9-2,2.1-0.4,3.3
		c1,0.7,3,1,4.4,0.8c3.2-0.6,4.6,1.7,5.6,9.1c0.7,5.8,0.7,5.2-0.3,13.5c-1.2,9.4-4.5,18.6-9.1,25.5c-3.7,5.5-6.4,11.7-10.2,23.5
		c-1.3,3.9-1.8,4.5-4,4.2c-1.7-0.2-4.1,0.8-7,3c-4.6,3.4-9.9,6.7-13,8c-1.7,0.7-1.7,0.6-0.2-1.4c2-2.8,2-6.8,0-6.8
		c-0.8,0-1.5,0.5-1.5,1c0,1.5-7.6,8.7-10,9.4c-1.1,0.4-2,1-2,1.5s-2,1.3-4.4,1.9c-2.4,0.6-5.2,1.4-6.2,1.7c-2.1,0.7,1.7-3.1,8.1-8.1
		c4.2-3.2,10.5-9.3,10.5-10c0-1.2-1.8-0.2-5.5,3.1c-6.1,5.3-6.2,5.4-9,6.6c-1.4,0.6-2.5,1.5-2.5,2s-0.7,0.8-1.5,0.8s-1.5,0.5-1.5,1
		c0,0.6-1,1.5-2.2,2c-1.2,0.6-3.7,2-5.4,3.3c-3.6,2.6-17.3,5.1-34.1,6.2l0,0c-5.6,0.4-10.2,0.5-10.2,0.3
		C198,248.8,200.8,247.2,209.4,243.6z M259.5,217.7c0.6-0.1,2.2-1.2,3.6-2.5s4-3.1,5.7-4c2.9-1.5,3.2-1.5,3.2,0c0,0.9,0.9,2.5,2,3.4
		c2,1.7,1.9,1.8-4.8,3l0,0c-3.7,0.7-7.7,1-8.8,0.7C259.4,218,258.9,217.7,259.5,217.7z M-22.3,257.1c1.5,0.4,2.2,0.2,2.2-0.6
		c0-0.9,0.4-0.9,1.7,0.1c1.3,1.1,6.9,1.4,26.2,1.4c13.5,0,28.4-0.3,33.1-0.7c19.5-1.6,26-1.7,26-0.3c0,0.7,1.5,2.2,3.2,3.3
		c6.4,3.9,17,5.5,35.2,5.3c12.6-0.2,16.1-0.4,34.1-2.6c6.4-0.8,24.9-4.8,26-5.6c0.6-0.5,1.4-0.6,1.7-0.3c0.5,0.5,7.1-1.2,12.7-3.3
		c0.8-0.3,2.2-0.7,3-0.8s3.7-1,6.4-1.8c5.1-1.6,6.6-1.5,6.6,0.8c0,0.7,0.6,1.5,1.2,1.7c2.8,0.9,22.7-0.2,32.6-1.7
		c1.5-0.2,4.7-0.7,7.2-1c4.3-0.6,4.4-0.5,2.5,1.1c-3,2.5-26.4,13.6-27.4,13.1c-0.5-0.3-5.3,0.6-10.7,1.9
		c-11.6,2.9-11.4,2.9-11.4,1.1c0-2.9-3.6-4.8-7.6-4.1c-8.4,1.4-15.4,4.6-15.4,7c0,1.9-13.8,3-19.4,1.6c-5.6-1.4-7.9-1.4-7-0.1
		c0.5,0.7-1.3,0.8-5.7,0.4c-3.5-0.4-6.5-0.9-6.8-1.1c-0.2-0.2-0.9,0-1.5,0.5s-3.6,1.3-6.6,1.9c-29.3,5.9-31.3,6.7-31.8,12.5
		c-0.3,3.4-0.1,3.7,2.3,3.7c1.4,0,3.6-0.7,4.9-1.5c1.9-1.3,25.6-4.7,30.7-4.4c1.6,0.1-3,1.8-6.5,2.4c-3.3,0.6-15.7,5.2-19.7,7.3
		C94.6,297,88,302.5,88,304c0,0.9-1.2,1.2-4.2,1c-2.3-0.2-8.5-0.6-13.8-1c-11.2-0.8-21.6-2-30.8-3.7c-6.2-1.1-6.4-1.3-3.2-1.8
		c1.9-0.3,4.2-0.3,5.1,0.1c2.3,1.1,26.8,1.9,30.8,1.1c1.9-0.4,4-1.7,4.8-2.8c1.3-1.9,1.1-2.4-1.2-5.2c-2.4-2.9-2.5-3.1-0.8-4
		c1-0.5,3.7-1.5,6-2.1c3.4-0.9,4.2-1.6,4.2-3.4c0-7.2-16.4-10.7-51-10.8c-10.7,0-23.8-0.5-29-0.9c-17.5-1.5-20.5-1.8-20.9-1.8
		c-0.2,0-0.1-0.7,0.2-1.4c0.3-0.8,0-1.9-0.6-2.6c-0.6-0.7-0.7-1-0.1-0.7c1.1,0.6,8.2,1.5,17.6,2.1c3.1,0.2,6.1,0.6,6.5,0.9
		c0.9,0.5,15.8,1.7,27.3,2.1c9.3,0.3,17.7-0.6,17-1.9c-0.3-0.6-1.2-0.9-2-0.8c-8.1,1.1-39.3-1.1-59-4.2c-1.4-0.2-4.5-0.7-7-1.1
		s-6.4-1.6-8.8-2.6l0,0C-31.2,255.5-29.9,254.9-22.3,257.1z M53.8,294.5c2.5,0,12.4-3,13.9-4.2c0.8-0.7,2.2-0.1,4.3,1.9l3.2,2.8
		l-3.8,0.7c-6.5,1.2-24.2,0.8-36.3-0.7c-11.5-1.4-15.9-2.1-30-4.9c-4.1-0.8-8-1.2-8.8-1l0,0c-1.5,0.6-1.7,0-0.3-1.3
		c0.7-0.7,3.4-0.7,7.8-0.2c3.7,0.5,16.9,1,29.4,1.1s22.4,0.5,22.2,1c-0.3,0.4-1.1,0.8-1.9,0.8c-0.8,0-1.4,0.9-1.4,2
		C52,293.8,52.6,294.5,53.8,294.5z M-27.8,266.6c1.5,0,3,0.4,3.3,0.9s0,1-0.7,0.9c-0.7,0-2.2-0.5-3.3-0.9
		C-30.3,266.8-30.2,266.7-27.8,266.6z M-33,266c0.5,0.3,1,0.8,1,1.1c0,0.2-0.5,0.4-1,0.4s-1-0.5-1-1.1C-34,265.9-33.6,265.7-33,266z
		 M-61.8,268.7c6.2-0.1,13.4-0.4,16.1-0.6c2.6-0.2,8.3,0.3,12.5,1c4.2,0.8,12.3,1.6,18,1.9c13.9,0.7,17,2.5,3.6,2.1
		c-5.5-0.1-10.7-0.5-11.5-0.7c-1-0.3-1.6,0.4-1.8,2.3c-0.5,4.5,2.7,5.1,20.8,3.9c39.3-2.8,55.5-3,64.9-1.1c2.6,0.5,6.3,1.2,8.4,1.6
		c2.1,0.3,3.8,1,3.8,1.5s-1.7,1.7-3.8,2.6c-3.2,1.4-8.1,1.7-34.8,1.7c-29.5,0-34.8-0.3-44-2.4c-2.2-0.5-6.5-1.4-9.6-2
		s-7.1-2.2-8.9-3.5c-3.7-2.7-5.5-3.1-6.5-1.3c-0.8,1.3,3.3,4.8,5.8,4.8c0.9,0,2,0.5,2.4,1.1c1,1.6-2.8,0.3-11-3.7
		c-6.8-3.3-11.6-4.3-11.6-2.4c0,0.5,3,2.4,6.8,4.1c3.7,1.7,7.6,3.6,8.7,4.1c1,0.6,2.8,1.2,4,1.4c3.1,0.5,9.2,2,18.1,4.4
		c4.4,1.2,8.5,1.9,9.2,1.6s1.5,0,1.8,0.5s1.7,1,3.1,1s4.9,0.7,7.7,1.5c4.4,1.3,7.3,1.8,13.3,2.4c0.6,0.1,1.4,1,1.6,2
		c0.3,1.1,1.9,2.6,3.6,3.5c3.9,2,27.8,5.3,44.1,6c15.3,0.7,24.7,1.5,28,2.5c1.4,0.4,4.4,0.7,6.8,0.6s4.2,0.1,4.2,0.5
		c0,1-11.7,4.2-17.6,4.8c-3.5,0.4-7.6,0-11.7-1.1c-3.4-0.9-14.1-3.2-23.7-5.1s-20.7-4.2-24.5-5.1s-10.2-2.2-14-3.1
		c-3.8-0.8-7.4-1.9-8-2.4s-2.2-0.9-3.8-0.9c-5.3,0-2.7,3.2,4.4,5.6l4.3,1.4l-4.9-0.5c-2.7-0.3-6.2-0.5-7.8-0.5c-2.1,0-3.1-0.6-3.5-2
		c-0.5-2.1-2.8-2.5-7.1-1.4c-1.9,0.5-2.2,1.1-1.7,3l0.6,2.4l-5.3-2.9c-2.9-1.6-8.4-4.6-12.3-6.7c-9.2-4.9-12.5-7.3-12.5-9
		c0-1.9-3.3-3.5-4.9-2.5c-0.8,0.5-3.2-0.3-6.4-2.2c-6.5-3.9-10.6-6.2-18.4-10.5l0,0c-3.4-1.9-6.2-3.5-6.2-3.6S-68,268.9-61.8,268.7z
		 M-118,248.1c1.4,0.4,2.7,1.1,3,1.5s3.6,2.4,7.4,4.4s8.1,4.5,9.7,5.6c1.5,1.1,5.7,3.4,9.3,5s6.6,3.5,6.6,4s0.8,0.9,1.8,0.9
		s2.3,0.5,2.8,1c1,1,2.8,2,13.1,7.5c4.3,2.3,10.1,6.5,9,6.5c-0.3,0-2.1-0.6-3.9-1.4s-8-3.4-13.8-5.7c-13.1-5.4-23.7-10.9-31.6-16.4
		l0,0c-3.3-2.4-8.3-6.4-11-8.9C-119.6,248.3-120.1,247.6-118,248.1z M-121.9,276.2c3.3-1.5,8.5-1.7,10.5-0.5
		c0.6,0.3,3.3,0.9,6.1,1.3c4.6,0.6,5.1,0.5,5.6-1.4c0.7-2.5,0.1-2.9-4.9-3.6c-7.1-1-9.3-1.6-10-2.7c-0.6-1,10.5-0.5,15.6,0.6
		c2.9,0.6,8,3.1,8,3.9c0,0.4,0.6,0.8,1.2,0.8c0.7,0,3.5,1.1,6.2,2.5c2.8,1.4,5.3,2.5,5.8,2.5c0.7,0,7.1,2.7,12.4,5.3
		c1.2,0.6,2.9,0.8,3.8,0.4c0.9-0.3,1.6-0.2,1.6,0.3s5.1,2.5,11.2,4.5c6.2,2,12.4,4.4,13.8,5.3c1.4,0.9,3.2,1.9,4,2.2
		c0.8,0.3,5.7,3,10.8,6c8.4,5,9,5.5,6.3,5.8c-4.6,0.5-17.2-2.5-24.6-5.8c-3.7-1.7-7.3-3-8-3s-3.7-1.1-6.7-2.5
		c-10.6-4.9-12.2-2-1.8,3.2c3.5,1.8,6.9,3.2,7.4,3.3c0.5,0,2.3,1.2,4,2.5l3,2.5l-6.2-2.4c-3.4-1.3-7.7-2.7-9.5-3
		c-3.5-0.7-7.4-2-12.3-4.1c-1.7-0.7-6.6-2.7-11-4.3c-4.4-1.6-13.4-5.1-20-7.6s-14.4-5.5-17.2-6.5l0,0
		C-125.5,278.4-125.9,278-121.9,276.2z M-162.1,259.5c1.1,0,2,0.6,2,1.3c0,2,4,6.1,7.9,8.3c8.8,4.9,11.8,6.3,13.3,6.3
		c0.9,0,3.4,1.2,5.4,2.6s4.5,2.5,5.5,2.5s3.3,0.9,5.1,2.1l3.3,2.1l-7-0.6c-6.2-0.6-11-1.9-12.5-3.6c-0.3-0.3-3.7-2.8-7.5-5.5
		s-8.9-6.5-11.3-8.4l0,0C-163.3,262.3-164.9,259.5-162.1,259.5z M-190.5,236.5c1.5,0,5.6,2.9,12.4,8.7c4.1,3.5,7.8,6.3,8.3,6.3
		c0.9,0,3.8,2.5,3.8,3.3c0,1.2-7-1.3-8.9-3.2c-2.3-2.3-4.1-2-4.1,0.5c0,1.1-0.9,1.4-3.2,1.2c-3-0.3-3.5-0.9-5.9-6.8l0,0
		C-190.8,240.2-191.6,236.5-190.5,236.5z M-198.4,256c2.6,0.9,9.3,9.9,9.3,12.5c0,1.2,0.5,3,1,4.1c0.6,1.2,0.7,1.9,0.1,1.9
		c-1.7,0-3.9-2.9-4.6-6c-0.5-2.1-1.7-3.5-3.9-4.6l0,0c-1.8-0.9-4.5-2.9-6.1-4.5l-2.8-2.9l2.6-0.6
		C-201.3,255.6-199.4,255.6-198.4,256z M-208.2,275.1c-4.8-4.8-10.8-13.6-9.2-13.6c0.7,0,6.7,4.1,7.4,5.1c0.3,0.4,2.1,1.6,4,2.8
		c2.2,1.3,3.6,3,3.7,4.4c0.1,1.2,0.5,3.3,0.9,4.5C-200.4,281.9-202.3,280.9-208.2,275.1z M-227.6,197.1c-0.8-1.1-1.5-2.4-1.4-3
		c0-0.6,0.7-0.2,1.5,0.9s1.5,2.4,1.4,3C-226.1,198.6-226.8,198.2-227.6,197.1z M-226.5,204.7c-0.7-2.3-0.6-2.3,2.2-0.8
		c2.8,1.4,4,2.7,12,12.2c3.9,4.7,3,6.4-2.4,4.3c-2.9-1.1-4.7-2.9-7.4-7.4C-224.2,209.7-226.1,206-226.5,204.7z M-219.4,222.9
		c1,0.9,2.8,2.2,3.9,3.1c3.6,2.7-1,1.9-5.5-0.9c-2.2-1.4-4.4-2.5-4.9-2.5s-1.2-0.4-1.5-0.9C-228.4,220.1-221.4,221.3-219.4,222.9z
		 M-251.3,217.2c4.4,0.7,12.1,5.3,8.8,5.3c-1.1,0-4.2-0.8-6.9-1.8C-255.6,218.5-256.8,216.4-251.3,217.2z M-244.9,239.2
		c-1.2-2.9-3.3-6.9-4.7-8.7s-2.5-3.9-2.5-4.5c0-1.5,2.5-2.5,3.6-1.4c0.5,0.5,4,1,7.9,1.2c7,0.4,7.4,0.5,25,8.9
		c3.3,1.6,6.5,2.9,7.1,2.9s1.7,1.3,2.3,2.9c0.7,1.6,2.3,4.4,3.6,6.2s2.4,3.6,2.4,4c0,1.1-12.8,3.2-14.7,2.4c-4.5-1.9-6.2-0.5-2,1.7
		c1.5,0.8,1.8,1.3,0.9,1.6c-1.5,0.5-6.2-3.5-6.2-5.4c0-2-4.5-6.4-6.7-6.4c-1.1,0-3.9-1.6-6.2-3.6c-3.3-2.8-4.2-4.2-3.9-6.2
		c0.3-2.2-0.1-2.7-2.4-2.9c-2.2-0.3-2.8,0.2-3.3,2.2c-0.7,3,2.2,8.6,4.5,8.6c1.4,0,1.4,0.1,0,1C-242.4,245-242.5,244.9-244.9,239.2z
		 M-236.5,248.5c1.9,0,2.3,0.7,2.7,4.2c0.2,2.3,0.3,4.4,0.1,4.7c-0.2,0.2-1.7-1.1-3.3-3l0,0C-241,249.9-240.8,248.5-236.5,248.5z
		 M-239,246.5c0-0.5,0.5-1,1.1-1s0.8,0.5,0.4,1c-0.3,0.5-0.8,1-1.1,1C-238.8,247.5-239,247.1-239,246.5z M-261.5,297.5
		c2.5-3,5.8-7.8,7.5-10.5c1.6-2.8,4.1-6.3,5.5-7.9c2.5-2.8,2.6-2.8,4.3-1c0.9,1,2.5,3.4,3.5,5.1c1.5,2.7,1.6,3.2,0.4,3.2
		c-1.4,0-2.9,1.4-7.9,7.2c-1.3,1.5-3.4,2.9-4.8,3c-1.4,0.2-4.9,1.7-7.8,3.5l0,0c-2.9,1.8-5.2,3.1-5.2,3
		C-266,303.1-263.9,300.6-261.5,297.5z M-269.5,327.4c-0.2,0.2-1.3-1.5-2.4-3.7c-2.7-5.3-2.6-5.9,0.9-11.4c3.1-4.9,3.9-5.4,5.7-3.6
		c0.8,0.8,1.9,0.6,3.9-0.8c4.9-3.4,5.4-3.5,4.7-1.6c-0.4,1-1.5,3-2.5,4.5s-1.8,3-1.8,3.5C-261,314.9-268.3,326.1-269.5,327.4z
		 M-256.9,340L-256.9,340c-0.4,0.2-2-0.4-3.5-1.4c-2.7-1.8-2.7-1.9-0.9-3.2c2.9-2.1,8.3-9.9,8.3-12.1c0-1.6-0.5-1.8-2.6-1.3
		c-1.4,0.4-2.4,0.3-2.2-0.1s1.9-3.9,3.8-7.8c5.4-11.2,7.6-14.1,12.1-15.4c4.2-1.3,5.1-3.4,2.2-5c-1.6-0.9-1.6-1.1,0.2-2.4
		c1-0.8,1.6-1.9,1.2-2.6c-1.1-1.8,0.3-1.3,2.7,0.9c2,1.9,5.6,2.4,5,0.7c-0.1-0.4-0.2-2.1-0.2-3.7s-0.6-3.5-1.4-4.3
		c-3.4-3.4-6.2-12.8-3.9-12.8c1.7,0,15.9,14.8,18.2,19l2.5,4.5l-2.6-1.7c-1.8-1.2-3.6-1.5-5.7-1.1c-2.5,0.5-3.1,1.1-3.1,3.4
		c0,1.5,0.8,3.8,1.7,5.1c1,1.3,2.6,4,3.7,5.9c2.9,5.2,7,9.4,16.9,17.4c12.6,10.1,12.3,9.9,15.1,9.2c3.4-0.9,3.3-4.1-0.2-6.3
		c-1.5-1-3.9-3.1-5.2-4.7c-1.4-1.6-5.3-6.1-8.7-9.9c-5.3-5.9-6-7.2-5-8.7c1.1-1.8,0.5-5.9-1.8-11.3c-0.7-1.5,0.6-1.2,6.4,2
		c6.7,3.6,7,3.9,4.6,4.6c-4.3,1.2-5.4,2.6-4.5,5.8c0.8,2.9,6.3,11.6,8.5,13.5c0.6,0.5,2.1,2.5,3.4,4.2c3.4,4.9,9,3.9,5.8-1
		c-1.8-2.8-3-7.7-1.9-7.7c0.5,0,1.7,0.9,2.6,1.9c1,1.1,3.1,2.2,4.7,2.6s2.9,1,2.9,1.4s1.8,1.6,3.9,2.5c5.9,2.7,13.6,10.2,13.2,13
		c-0.2,1.6,0.7,3.1,3,4.8c2.8,2.2,3,2.7,1.6,3.2c-1.1,0.4-3.7-0.6-7-2.6c-2.9-1.8-5.8-3.3-6.5-3.3s-1.2-0.4-1.2-0.8
		c0-1.5-10.1-6.6-12.1-6.1c-2.8,0.7-1.9,3.3,2.1,5.9c1.9,1.2,4.6,3.1,6,4.2l2.5,1.9l-4.2,0.7c-2.3,0.4-4.5,1.1-4.8,1.6
		c-0.9,1.5-1.9,1.1-6-2.6l-3.9-3.5h3c1.7,0,3.6,0.5,4.2,1.1c0.6,0.6,1.7,0.9,2.3,0.7c1.7-0.6-3.3-3.7-8.5-5.3
		c-4.3-1.3-4.4-1.3-5.5,1.5c-1,2.3-3.8,4.7-4.4,3.7c-2.4-3.7-4.7-8.7-5.6-12c-1.4-5.2-2.6-6.8-5.1-6.8c-3.6,0-1.7,7.6,4.6,17.7
		c1.4,2.3,2.4,4.3,2.1,4.3c-1.2,0-11.6-13.6-11.6-15.2c0-1-0.8-2.2-1.9-2.7c-1-0.6-2.7-2.7-3.6-4.8c-1-2.1-2.9-5-4.3-6.5
		c-2.3-2.4-2.4-3-1.3-5.2c0.7-1.3,1-2.9,0.6-3.5c-1.5-2.5-4.6-0.9-8.4,4.2c-2.1,2.9-6.3,8.6-9.4,12.7c-3,4.1-7,10.1-8.8,13.2
		C-254.8,336.9-256.5,339.7-256.9,340z M-188.6,348.6c-0.9,1-2,1.9-2.3,1.9l0,0c-0.3,0-1.8-1.8-3.3-3.9c-2.4-3.4-2.6-4-1.2-5.1
		c1.8-1.5,5.3,0,7.3,3.2C-187.1,346.4-187.2,347-188.6,348.6z M-189.3,363.3c-0.9,0.8-2.6,1-4.1,0.6c-1.4-0.4-2.6-1.3-2.6-2
		c0-1.5,1.9-1.6,5.9-0.5C-188.1,362-188,362.2-189.3,363.3z M-203,354.5c-0.8,1.3-1,1.2-1-0.5c0-1.1,0.5-2.7,1.1-3.5
		c0.9-1.3,1-1.3,0.6,0.1c-0.6,2,2.6,4.1,5,3.3c1.6-0.5,1.6-0.4-0.1,1c-1.7,1.4-2,1.4-3.2-0.2C-201.8,353.2-202.1,353.2-203,354.5
		L-203,354.5z M-239.8,352.5L-239.8,352.5c-0.4,0-2-0.8-3.6-1.9l-2.8-1.9l3.4-2.6c3-2.3,7.7-3.6,7.7-2.1
		C-235,345.3-239.1,352.5-239.8,352.5z M-233.5,334.3c-0.5-1.2-2-2.4-3.2-2.6c-2-0.3-2.2,0.1-2.2,3.7c0,4-0.1,4.1-3.4,4.1
		c-1.9,0-3.9,0.7-4.6,1.5s-1.6,1.5-2.1,1.5l0,0c-1.4,0-1-1.3,1.6-5.2c1.4-2,2.5-3.9,2.5-4.2c0-0.3,1.6-3.2,3.6-6.6
		c3.5-5.8,5.4-7.5,5.4-4.8c0,0.7,1.7,3.3,3.9,5.7c3.3,3.8,3.7,4.8,2.8,6.8C-230.6,337.2-232.3,337.2-233.5,334.3z M-228,355
		c-0.7,0.8-1.9,1.5-2.6,1.5l0,0c-1.5,0-1.7-1.5-0.6-4.2c0.6-1.5,0.9-1.5,2.6-0.3C-227.1,353.2-227,353.7-228,355z M-217,364.6
		c0,2-0.2,1.9-3.5-0.6l-3.5-2.6l2-3.9c2.4-4.7,2.5-5.9,0.4-5.9c-0.9,0-2.6-1.2-4-2.7c-2.9-3.3-3-4.8-0.7-8.5c2-3.2,2.9-3.4,5.4-1.1
		c1.9,1.7,3.8,2.9,9.6,5.9c3.5,1.8,4.1,3.5,1.8,5.4c-0.8,0.7-1.2,1.6-0.9,2.1s-0.1,0.9-0.9,0.9C-213,353.5-217,361.4-217,364.6z
		 M-198.6,374.9c-1.1,0.7-3.1,1.2-4.5,1.1c-1.4-0.2-3.3-0.3-4.2-0.4c-1,0-1.8-0.9-1.8-2s-0.5-2.2-1-2.6l0,0
		c-3.8-2.3,2.8-3.5,12.5-2.2c3.7,0.5,7.7,0.4,10.3-0.3c5.1-1.3,6.7-0.4,14.7,8.1c4.3,4.5,4.6,5.2,2.5,4.7c-1.4-0.3-6-1.2-10.3-1.9
		c-6.6-1.1-8-1.7-8.9-3.6C-190.5,373.2-195.3,372.7-198.6,374.9z M-184.8,386.2c3.5,0.3,7.7,0.9,9.3,1.3c2.7,0.7,4.9,0.7,12.3-0.2
		c1.7-0.2,3.1,0.7,5,3.2c1.5,1.9,2.1,3.1,1.5,2.7s-1.4-0.3-1.7,0.2c-0.5,0.9-9.6-0.5-24-3.6l0,0
		C-192.4,387.6-193.8,385.5-184.8,386.2z M-158.5,416.8L-158.5,416.8c-0.9,1.1-1.6,1.4-2,0.8s-0.2-1.1,0.5-1.1
		c0.6,0,0.9-0.4,0.6-0.9c-0.3-0.5,0.1-1.2,0.9-1.5C-156.7,413.5-156.7,414.5-158.5,416.8z M-162.5,411c-4.3,0.6-9.5-3.1-9.3-6.4
		c0.3-4-0.8-5.1-4-3.9c-1.9,0.7-2.8,0.7-3.1-0.1l0,0c-0.2-0.6-1.6-2.2-3-3.6l-2.6-2.4l3.5,1.1c13,3.9,23.8,6.5,30.5,7.3
		c2.2,0.3,7.5,1,11.9,1.7c6,1,8,1,8.3,0.1c0.4-1.3,3.2-1.6,3.2-0.4c0,0.4,1.6,1.4,3.5,2.1c5.8,2.1,3.1,3.4-5.9,2.6
		C-136.3,408.5-151.1,409.4-162.5,411z M-143,414.5c0,0.5-0.5,1-1,1c-0.6,0-1-0.5-1-1s0.5-1,1-1S-143,414-143,414.5z M-117,444
		c-11.8,1-23,2.7-23.5,3.6c-0.8,1.4,3.7,2.3,10,2.2l6-0.2l-5.4,2.5c-6.5,3-7.3,3-9.7,0.4c-1-1.2-3.9-3.2-6.4-4.6l0,0
		c-18.5-10.1-18.5-10.1-7.3-10.8c3.7-0.2,11.7-0.8,17.7-1.4c6-0.5,11.4-0.8,12-0.6c0.6,0.2,3.6,0.6,6.6,0.8c3.1,0.3,6.8,0.7,8.2,1
		c1.5,0.3,3.8,0.8,5.2,1.1c1.4,0.3,2.5,0.9,2.5,1.4C-101,441-109.4,443.4-117,444z M-94.4,429.9c-1.6-0.3-3.5-0.7-4.2-0.8l0,0
		c-3.3-0.5-2.5-2.6,1.1-2.6c1.2,0,4.2-0.7,6.8-1.6c3.5-1.2,5.1-1.3,6.7-0.5c2.6,1.4,2.7,3,0.2,3c-1,0-3.2,0.7-4.8,1.5
		C-90.4,430-92.7,430.3-94.4,429.9z M-79.8,433.8c-1.5,0.3-3.5,0.8-4.5,1.2l0,0c-1,0.4-1.7,0.3-1.7-0.2c0-1.8,9.9-5.4,13.1-4.7
		c1.6,0.4,3.1,1,3.4,1.4c0.6,0.9-4.4,8.1-5.7,8.1c-0.5,0-0.7-0.3-0.5-0.8c0.2-0.4,0-1.8-0.5-3.1C-76.9,433.8-77.6,433.4-79.8,433.8z
		 M-76,420c0-1.2,0.4-1.3,1.9-0.5c2.6,1.4,4,3.6,1.6,2.7c-1-0.4-2.2-0.7-2.7-0.7l0,0C-75.6,421.5-76,420.8-76,420z M-69.3,446.8
		c-1.6,2.9-10.5,11.8-11.8,11.8l0,0l0,0c-1.4,0-1.2-0.7,0.3-1.3c0.7-0.3,2.1-2.2,3.2-4.3c2.6-5,5.8-8.4,7.9-8.4
		C-68.2,444.5-68.2,444.9-69.3,446.8z M-64.5,440.5c-2.4,2-3.4-1-1.7-5.1c1.2-2.8,2.1-3.6,3.6-3.3c1.1,0.2,2.3,0.4,2.7,0.5
		C-58.9,432.6-62.6,439-64.5,440.5z M-66.6,426.3c-0.3-0.3,0.2-0.9,1.2-1.2c1.4-0.5,1.5-0.4,0.6,0.6l0,0
		C-65.4,426.3-66.3,426.6-66.6,426.3z M-17.6,426.6c-3.3,1.2-3.8,4-1.3,7.3c2.1,2.8,2.1,3,0.3,4c-1,0.6-3.9,1.8-6.4,2.7
		c-2.5,0.9-7,2.7-10,3.9c-3,1.2-7.8,2.5-10.6,2.7c-4.5,0.4-5.3,0.2-6.8-1.8c-1.9-2.7-2.1-6-0.5-9.1c0.6-1.2,1.5-2.9,1.9-3.7
		c0.4-0.8,1.6-1.4,2.6-1.3c6.3,0.8,22,0,23.3-1.3c1-1-2-2.2-5.8-2.4c-7.8-0.3-11.5-1.5-12.1-3.9c-0.7-3.1-7.1-6.6-12.9-7.1
		c-0.8-0.1-1.1-0.8-0.8-1.6c0.5-1.2-0.7-1.4-7.6-1.3c-5.5,0.1-13.2-0.7-23.2-2.6l0,0c-13.2-2.4-15.3-3.1-17.9-5.6l-2.9-2.8l7.1,0.5
		c5.8,0.4,7.5,0.2,9-1.2c1.7-1.5,2.2-1.6,4.7-0.2c1.6,0.8,4.3,1.7,6.1,2c1.8,0.3,3.8,0.9,4.5,1.4s5,2.2,9.7,3.7s9.4,3.1,10.5,3.6
		c1.1,0.4,3.1,1.1,4.5,1.5s3.7,1.5,5.1,2.5c4,2.8,7.7,4,15.9,4.9c4.1,0.5,9.3,1.6,11.5,2.6C-15.9,425.6-15.7,425.9-17.6,426.6z
		 M-21.3,412c-9.9-0.2-15.7-1.1-15.7-2.3l0,0c0-0.4-1.8-2.6-3.9-4.8l-3.9-4.1l6.2-1.2c6.5-1.2,10.6-0.8,23.7,2.4
		c5.9,1.4,26.6,5.6,27.9,5.6c0.3,0,0,0.5-0.5,1.1c-0.8,0.8-2.7,0.8-6.9,0c-3.2-0.6-7.6-1-9.9-1c-3.5,0.1-3.8,0.2-1.7,1
		c1.3,0.5,3.3,1.1,4.5,1.3c1.2,0.2,3.9,0.7,6,1.1s3.6,1.2,3.5,1.7c-0.3,1-5.2,1.9-9,1.8c-6.9-0.2-9.3-0.5-9.9-1.4
		C-11.6,412.7-16.1,412.1-21.3,412z M-12.6,429.4c1.7-0.8,2.5-1.8,2.2-2.6c-0.3-0.8-0.2-1.2,0.2-1.1c0.4,0.2,3.1,1.2,6,2.3
		c3.4,1.3,5.3,2.5,5.3,3.6c0,1.4-1,1.6-7.2,1.1l0,0C-14.6,432.2-16.5,431.2-12.6,429.4z M15.6,458.3c-0.3,0.5-1.6,1.2-2.9,1.5
		c-1.2,0.3-7.7,1.9-14.2,3.6c-13.7,3.5-14.6,3.6-18.4,1.6l0,0c-3-1.6-4.8-4.5-2.8-4.6c0.7,0,4.1-0.4,7.7-0.9
		C-4.1,458,16.3,457.2,15.6,458.3z M33.7,449.9c-1.8,0.2-6,0.7-9.5,1.1c-5.1,0.6-6.2,0.4-6.2-0.8c0-0.9,1.8-2,4.5-2.7
		c2.5-0.7,5-1.9,5.7-2.7c0.7-0.8,2.8-2.3,4.8-3.2c3-1.5,4.8-1.7,10.9-1c4.1,0.4,7.6,1,7.8,1.3C52.5,442.7,37.1,449.5,33.7,449.9z
		 M44.7,431.3c0.3,0.9-0.8,1.2-3.4,1.2c-4.3,0-7.5-1.4-5.2-2.2C38.7,429.4,44.3,430,44.7,431.3z M39.2,417.5c2,0,3.9,0.4,4.2,0.9
		s-1,0.8-3,0.6l0,0C35.7,418.7,34.7,417.5,39.2,417.5z M44.2,414.1c-0.3-0.3,0.3-0.6,1.3-0.5c1.2,0,1.4,0.3,0.6,0.6l0,0
		C45.4,414.5,44.6,414.5,44.2,414.1z M70,428.1c-6.8,1.9-7.9,2.8-7.3,5.9c0.3,1.5,0,2.5-0.7,2.5c-2.1,0-7.2-3.1-6.6-4
		c0.8-1.3-0.5-4.1-1.6-3.5l0,0c-0.5,0.3-0.9,0.2-0.9-0.3c0-0.8,6.8-3.1,15.5-5.1c4.9-1.1,10.8-0.9,11.2,0.6
		C80.1,425.3,79.5,425.5,70,428.1z M81.5,461.3c-0.8,3.3-2.3,5.2-4.1,5.2l0,0c-0.8,0-1.4-1.1-1.4-2.8c0-2.2,0.7-3,3.1-3.9
		C82.1,458.7,82.1,458.7,81.5,461.3z M85.2,433.6c-1,0-3.2,0.3-5,0.5l0,0c-1.8,0.2-3.2,0.3-3.2,0.2c0-0.1,1.3-1.2,2.8-2.4
		c2.1-1.7,3.2-1.9,4.9-1.1C87.4,432,87.7,433.5,85.2,433.6z M79.7,414.7c-1.5-1.5-4.5-1.5-5,0c-0.4,1.2-5.2,0.5-23.3-3.2
		c-2.8-0.6-6.4-1.3-8-1.6l0,0c-1.7-0.3-4.5-0.9-6.3-1.2l-3.3-0.6l2.1-1.8c1.2-1,2.9-1.6,3.8-1.3c0.9,0.3,3.1,0.1,4.8-0.3
		c1.9-0.5,5-0.5,8,0.1c2.7,0.5,5.8,1.1,6.9,1.3c3.1,0.5,17.8,3.4,31.8,6.2c8.2,1.7,12.4,2.9,11.8,3.6c-0.6,0.6-2.1,0.6-4.2-0.2
		c-2.5-0.9-3.8-0.8-5.9,0.2C89.9,417.4,81.7,416.7,79.7,414.7z M91.4,427.2c1-0.4,3.4-0.7,5.5-0.7c2,0,4.1-0.4,4.7-1
		s1.5-0.6,2.4-0.1c1.7,1.1,1.1,1.4-6,2.8l0,0C92.9,429.3,88.1,428.5,91.4,427.2z M105.4,430.7c5.7,0.4,4.2,1.8-1.9,1.8
		c-3,0-5.5-0.2-5.5-0.4C98,431.2,101.9,430.5,105.4,430.7z M113,441c-1.2,1.3-3.1,2.5-4.3,2.8c-1.2,0.3-5.2,1.7-8.9,3.1l0,0
		c-7.6,3-9.3,1.8-2-1.4c2.6-1.1,5.4-2.7,6.2-3.4c0.8-0.7,3.7-1.8,6.4-2.4l4.8-1L113,441z M111.4,423.1L111.4,423.1
		c-1.4,0.3-2.5,0.5-2.5,0.3c0-0.5,10.4-5.9,11.4-5.9C121.9,417.5,114,422.5,111.4,423.1z M115.4,407.5c-0.6,0-2.2,0.9-3.5,2.1
		c-1.9,1.7-3.2,2-6.4,1.5c-9.1-1.4-37.2-6.7-40.1-7.6c-1.7-0.5-4.1-0.9-5.2-0.9s-2.2-0.4-2.2-1c0-0.5,0.6-0.7,1.4-0.4
		c1.6,0.6,17.6-3,20.7-4.6c1.1-0.6,1.9-2,1.9-3.1c0-2.4,0-2.4-15.5,1.5c-5.5,1.4-12.7,3.1-16,3.7l0,0c-4.2,0.9-7.5,0.9-11,0.3
		c-5.3-1-5.1-1.2,3.5-3.3c2.5-0.6,8.1-2.3,12.5-3.7c8.7-2.8,10.3-2.9,23.6-1.8c5.8,0.5,8.9,1.1,8.8,1.8c-0.3,2.6,0.2,3.5,1.8,3.5
		c5.3,0,12.1,1.7,14.8,3.5c3.1,2.2,4.6,2.3,18.3,1.2c3.6-0.3,5.2,0,4.9,0.7C127.3,402,117.2,407.5,115.4,407.5z M130.5,410.6
		c2.6-1.9,6.4-5.1,8.4-7.2c3.4-3.6,4-3.8,9.1-3.8c4.9,0,5.8,0.4,7.9,3c1.3,1.6,2.2,3.1,2,3.2s-4.2,1.5-8.9,3
		c-4.7,1.6-9.9,3.5-11.6,4.3l0,0c-1.7,0.8-5,1.3-7.4,1.2l-4.2-0.3L130.5,410.6z M132,435c-0.5-0.3-1-0.8-1-1.1c0-0.2,0.5-0.4,1-0.4
		s1,0.5,1,1.1S132.5,435.4,132,435z M145.7,429c-14.5,0.8-14.8,0.8-16.4,1.8c-0.6,0.4-1.4,0.4-1.8,0.1l0,0c-0.4-0.4-0.6-0.9-0.6-1.3
		c0-0.9,20.6-6,26.5-6.6c2.8-0.3,6.2-0.7,7.7-0.9c1.6-0.3,3.2,0.2,3.9,1s1.9,1.5,2.8,1.5c1.4,0,1.4,0.2,0,1.6
		C166,427.9,165.8,427.9,145.7,429z M168.9,401.1c1.2-0.7,4.1,0.4,4.1,1.5c0,0.5-0.9,0.9-1.9,0.9l0,0
		C168.8,403.5,167.4,402,168.9,401.1z M169.7,462.6c-2.7,2.2-12.6,4.2-16.1,3.4c-1.4-0.4-3.3-1.9-4.1-3.5l0,0
		c-1.9-3.6-1.8-3.9,0.3-4.6c1-0.3,4.4-1.6,7.7-2.9c3.3-1.2,7.5-2.8,9.4-3.4s4.5-2.2,5.9-3.6c2.6-2.6,5.2-3.3,5.2-1.4
		C178,449,171.8,460.9,169.7,462.6z M175.2,410.1c-0.3-0.3,0.3-0.6,1.3-0.5c1.2,0,1.4,0.3,0.6,0.6l0,0
		C176.4,410.5,175.6,410.5,175.2,410.1z M183.6,428.4c2.9,1.3,3.1,1.6,1.6,2.7c-1.4,1-2,0.9-3.4-0.3c-1.5-1.3-2.2-1.4-4.8-0.3
		c-3.3,1.4-4.5,1.1-2.6-0.5C177.3,427.4,180.3,426.9,183.6,428.4z M192.8,384.3c-0.2-1.8,0.5-3.4,2-4.9c1.3-1.2,2.1-2.8,1.8-3.5
		c-0.3-0.9,0.9-2.3,3.2-3.7c4.8-3,13.9-6.7,14.6-6c0.6,0.6-4,5.3-5.1,5.3c-0.5,0-4.8,3.4-10.8,8.7l-2.9,2.6l2.3,1.9
		c2.9,2.4,6.1,2.4,6.1,0.1c0-1.4,0.2-1.5,0.9-0.4s1.4,1,4-0.8c3.3-2.4,3.7-3.1,2.2-4.6s15.7-14.9,24.3-18.8c6.3-2.9,7-3.1,6.1-1.6
		c-0.3,0.6,0.1,2.4,0.9,4.2c1.4,2.9,1.4,3.3-0.1,5c-0.9,1-4.9,3.6-8.8,5.7c-20.1,10.8-23.1,12.5-23.4,13.3c-0.2,0.5-1,0.9-1.8,0.9
		s-2.2,0.4-3.2,0.9c-7.1,3.8-14,6.1-18.9,6.1l0,0c-6,0-6.8-0.9-2.6-2.8C192.1,387.8,193,387.1,192.8,384.3z M199.1,402.6
		c2.1-1,5.7-2.2,7.9-2.5c3.6-0.6,4-0.5,3.7,1.1c-0.2,1.1-1.7,2.1-3.8,2.7c-1.9,0.5-4.2,1.5-5.1,2.3c-0.9,0.8-2.7,1.4-4.1,1.4l0,0
		C194,407.5,194.7,404.7,199.1,402.6z M187.5,407.5c0.3,0.4-1.2,1-3.2,1.3c-3.9,0.5-5.6,0.1-3.1-0.6
		C184.7,407,187,406.8,187.5,407.5z M206.5,422c-1.1,0.9-2.9,2.4-4,3.3s-3.1,2.4-4.5,3.3s-4.5,3.4-6.8,5.5c-2.4,2.1-5.3,3.9-6.5,4
		s-3.4,0.5-4.9,0.9c-1.7,0.5-2.8,0.3-2.8-0.3c0-1.1,1.2-1.6,6.8-2.7c1.8-0.4,3.8-1.5,4.5-2.6s1.8-1.9,2.6-1.9s4-2,7-4.3
		c3.1-2.4,6.7-4.9,8.1-5.6C208.4,420.5,208.4,420.5,206.5,422z M210,428.5c-2.4,0-2.7-2.5-0.4-3.4s2.4-0.8,2.4,1.4
		C212,427.9,211.3,428.5,210,428.5z M206,415.5c-0.6,0-1-0.4-1-0.8c0-0.9,7.1-3.4,7.8-2.7C213.3,412.5,207.4,415.5,206,415.5z
		 M204.3,395.8L204.3,395.8c-1.2,0.5-2.8,0.8-3.7,0.6c-1.3-0.3,14.9-8.8,16.7-8.8c0.3,0,3.8-1.9,7.8-4.3s9.2-5.1,11.5-6
		c4-1.6,4.2-1.6,4.2,0c0,4-9.7,9.5-26,14.8C210.3,393.6,205.5,395.3,204.3,395.8z M218.5,424.9L218.5,424.9
		c-0.8,0.3-1.7,0.1-2.1-0.4c-0.3-0.5,0.3-1,1.5-1C220.3,423.5,220.6,424.1,218.5,424.9z M220.4,413.5L220.4,413.5
		c-3.1,1.7-5.8,2.9-6.1,2.7c-0.3-0.3,0.5-1,1.6-1.6s2.1-1.7,2.1-2.5s1.2-1.6,2.8-1.9s3.6-0.9,4.7-1.3
		C229.1,407.5,226,410.3,220.4,413.5z M253.9,382.3c-1.2,2-13.9,8.4-20.6,10.4c-2.3,0.7-4.2,1.6-4.2,1.9s-1.3,0.6-3,0.7l0,0
		c-1.7,0-3,0-3-0.1s1.6-0.8,3.5-1.5c5.7-2.1,16.9-9,17.6-10.9c0.5-1.3,1.9-1.8,5.8-2C254.6,380.6,254.9,380.7,253.9,382.3z
		 M244,362.7c0-0.5,0.5-1.3,1-1.6s1-0.2,1,0.4c0,0.5-0.5,1.3-1,1.6C244.4,363.4,244,363.2,244,362.7z M255,372
		c-1.4,0.8-2.8,1.4-3.2,1.5c-0.4,0-0.8-0.4-0.8-0.9c0-1.1,2.5-2.1,4.8-2.1C257,370.6,256.8,371,255,372z M266.6,356.8
		c-0.7,0.3-4,0.8-7.2,1.2c-3.2,0.4-6.9,1.1-8.2,1.6c-1.6,0.6-2.2,0.5-2.2-0.5c0-1.5,2.7-4,5.2-4.9c1-0.3,1.8-1,1.8-1.5
		s1.9-0.7,4.2-0.5c2.3,0.2,5,0.4,6,0.4C268.3,352.7,268.6,356.1,266.6,356.8z M272.2,331.5c-2.3,0-10.5,3.2-16.5,6.4
		c-4.8,2.6-11.3,8.7-12.2,11.6c-0.7,2.2-8.9,4.9-11,3.7c-1.1-0.6-3-0.5-5.6,0.3c-3.4,1.1-3.9,1.7-3.9,4.3c0,2.9-0.1,2.9-1.9,1.2
		c-1.6-1.4-2.9-1.6-7.2-1.1c-7.2,0.9-18.7,4.4-21.8,6.5c-1.4,0.9-4.4,2.6-6.6,3.6c-2.3,1.1-5.3,3.6-6.8,5.6
		c-2.7,3.8-4.9,4.6-16.7,6.3c-3.9,0.6-4.7,0.4-5.3-1.2c-0.4-1-0.9-2.3-1.2-2.9s1.6-1.9,4.2-3c6.3-2.5,7-2.7,5.5-1.6
		c-2.3,1.6-1,5.7,1.8,6c2,0.2,3.7-1.1,8.7-7c4.9-5.8,7.4-7.8,12-9.7c3.2-1.3,8.9-3.9,12.8-5.6s8.6-3.8,10.5-4.5s4.6-1.9,5.9-2.6
		c2.9-1.5,5.7-0.7,4.1,1.1c-0.6,0.7-0.8,2-0.4,2.9c1.2,3.2,6.4,1.2,6.4-2.4c0-4.8,7.2-9.5,25-16.2c21.8-8.3,19.5-7.7,20.8-5.6
		C274.4,330.3,274.2,331.5,272.2,331.5z M283,342.5c-1.3,0-1.3-1.1,0-3c0.8-1.2,1-1.1,1,0.8C284,341.5,283.5,342.5,283,342.5z
		 M266,323.2c-5.8,2-11.8,4.2-13.3,5c-4.4,2.3-4.3,0.7,0.2-2.1c2.2-1.4,4.3-3,4.7-3.7c0.4-0.6,4.6-3.7,9.3-6.8
		c4.8-3.1,11.4-7.9,14.9-10.6c3.4-2.7,7.3-5.5,8.5-6.2c5.8-3.3,10.1-5.4,10.5-5c0.2,0.2-0.9,1.1-2.6,2c-3.2,1.6-4.5,3.7-3.4,5.3
		c1.1,1.7,3.9,2.2,5.1,1c0.9-0.9,1-0.8,0.6,0.4c-0.3,0.9-1.7,2.2-3.1,2.9c-1.3,0.7-2.4,1.7-2.4,2.1s-0.7,0.8-1.6,0.8
		c-2.5,0-7.1,3.1-8.5,5.7C283.4,317,280.9,318.2,266,323.2z M287.5,366.4c-0.3-0.3-0.8-1.9-1.2-3.6c-0.5-2.5-0.2-3.3,1.5-4.2
		c2.3-1.2,6.1-0.6,6.1,1.1C294,361,288.2,367.1,287.5,366.4z M318,356.5c0.5,0,1,0.5,1,1.1s-0.5,0.8-1,0.4c-0.5-0.3-1-0.8-1-1.1
		C317,356.7,317.4,356.5,318,356.5z M317,367c0.5-0.3,1-0.1,1,0.4c0,0.6-0.5,1.1-1,1.1s-1-0.2-1-0.4C316,367.8,316.4,367.4,317,367z
		 M305.8,361.3c-2-2.3-2.5-10.1-0.9-12.7c0.8-1.2,1.2-1.2,2.6-0.1c2,1.6,5.5,8.3,5.5,10.4c0,0.8,0.6,1.6,1.2,1.9
		c1,0.3,0.9,0.8-0.2,2.1C312.3,365.1,308.4,364.3,305.8,361.3z M317,374.5L317,374.5c-2.1,0-4.1-1-6.3-3.1c-3.1-3-3.1-3.1-0.7-2.4
		c3.6,1,8.9,3.6,9.6,4.6C319.8,374.1,318.7,374.5,317,374.5z M328,368.2c0,0.8,0.7,1.7,1.5,2s1.5,1.2,1.5,2s-0.7,1.4-1.5,1.4
		s-1.5-0.9-1.5-2c0-1.3-0.5-1.8-1.5-1.4c-0.8,0.3-2.2,0-3-0.7c-1.5-1.3-2-4.2-0.9-5.3C323.5,363.3,328,366.6,328,368.2z"/>
	<path class="st0" d="M262,437.7c3.6,1.3,3.2,2.4-0.5,1.4c-1.4-0.4-2.5-1.1-2.5-1.6S260.2,437.1,262,437.7z M229.7,455.8
		c-1.3,0.8-3.4,3.1-4.8,5.1c-2.7,4-4.4,4.2-4.6,0.5c-0.1-1.3-0.4-3.1-0.7-3.9c-0.7-1.8,0.5-4.6,3.3-8l2.1-2.5l2.4,2.8
		c1.3,1.5,2.9,2.8,3.5,2.8C232.7,452.5,232.1,454.2,229.7,455.8z M245.1,432.5c2,0,7.8,2.4,7.8,3.2c0,1-0.7,1-5.2-0.3l0,0
		C244.2,434.5,242.5,432.5,245.1,432.5z M239.2,437.3c3.1,0.8,4.7,2.2,4.7,4.2c0,1.7-3.3,5.1-5,5.1c-0.5,0-1,0.7-1,1.5
		c0,2.1-2.9,1.9-6.8-0.5c-1.8-1.1-3.2-2.4-3.2-3s2-2.5,4.5-4.4C235.6,437.8,237.7,436.9,239.2,437.3z"/>
	<path class="st0" d="M271.1,102.9c-1.8,0.4-4.5,0-6.7-0.9c-2-0.8-4.3-1.3-5.2-0.9c-1.3,0.5-1.2,1,0.7,3c1.9,2,3.1,2.3,7.9,2.2
		c4.7-0.1,5.7-0.5,6-2C274.1,102.5,273.7,102.3,271.1,102.9z"/>
	<path class="st0" d="M-177.9,340.5c0.6,0,0.7-0.4,0.4-1c-0.3-0.5-1.1-1-1.6-1c-0.6,0-0.7,0.5-0.4,1
		C-179.2,340.1-178.5,340.5-177.9,340.5z"/>
	<path class="st0" d="M301,200.8c0-1,1.2-4,2.6-6.7c2.4-4.5,2.5-5,0.9-6.5c-1.5-1.5-1.8-1.5-3.1,0.4c-0.8,1.1-2.3,3-3.3,4.2
		s-2.1,3-2.3,4l0,0c-0.9,3.5-0.7,5.1,0.8,6.3C298.4,204.1,301,203.1,301,200.8z"/>
	<path class="st0" d="M-165.3,226.5L-165.3,226.5L-165.3,226.5z"/>
	<path class="st0" d="M252.9,81.5L252.9,81.5L252.9,81.5z"/>
	<path class="st0" d="M177.2,223.5c2.9-1.3,5.5-2.7,5.8-3.1c0.3-0.4,1.2-0.6,2-0.6c2,0.2,8-2.3,8-3.2c0-1.4-3.8-1.8-8.2-0.8
		c-6.3,1.5-15.1,4.8-17.1,6.6l0,0c-2.3,1.9-2.2,3.7,0.2,5.9c2.5,2.3,11,4.7,12.3,3.4c1-1-4-4.1-6.7-4.1
		C170.5,227.5,172,225.8,177.2,223.5z"/>
	<path class="st0" d="M256.6,171.6c-1.1,0-1.6,0.2-1.3,0.5s1.2,0.4,1.9,0.1C258,171.9,257.7,171.7,256.6,171.6L256.6,171.6z"/>
	<path class="st0" d="M-107,68.4c1.6-0.1-1.6-1.7-3.5-1.8c-0.5,0-0.3,0.4,0.5,0.9S-107.9,68.5-107,68.4z"/>
	<path class="st0" d="M-270.4,274.9c1-1.6,2.9-4.2,4.2-5.8c3.4-4.1,6.5-11.3,5.8-13.1c-1-2.5-4.1-0.1-7.4,5.8
		c-0.6,1.1-1.6,2.6-2.8,4.4c-0.3,3.5-0.6,7.1-0.9,10.6C-271.4,276.4-271,275.8-270.4,274.9z"/>
	<path class="st0" d="M208.3,195.1c1.7-0.7,5.9-2.1,9.2-3s8.2-2.6,11-3.7c2.8-1.1,6.5-2.4,8.4-2.8c1.9-0.5,4.1-1.5,5-2.4
		c1.4-1.4,1.4-1.7-0.1-3.3c-1.4-1.4-2.2-1.5-4.7-0.6c-2.5,1-3.1,0.8-4.2-0.8c-1.3-1.9-1.4-1.9-5.8,0.6c-4.2,2.4-7.4,3.9-14.5,7
		c-4.1,1.8-9.1,3.2-14.4,3.9c-2.4,0.3-6.2,1.5-8.5,2.5s-7.8,3.1-12.4,4.6l0,0c-4.5,1.5-8.2,3.1-8.2,3.6c0,1.1-0.9,1.2,9.5-1
		c4.9-1,12.9-2.2,17.8-2.6C201.2,196.7,206.6,195.8,208.3,195.1z"/>
</g>
</svg>
